<?xml version="1.0" encoding="UTF-8" standalone="no"?>
<!-- Created with Inkscape (http://www.inkscape.org/) -->

<svg
   width="134.7359mm"
   height="8.2867279mm"
   viewBox="0 0 134.7359 8.2867279"
   version="1.1"
   id="svg5"
   inkscape:version="1.1.2 (0a00cf5339, 2022-02-04)"
   sodipodi:docname="dcrennes_title_text.svg"
   xmlns:inkscape="http://www.inkscape.org/namespaces/inkscape"
   xmlns:sodipodi="http://sodipodi.sourceforge.net/DTD/sodipodi-0.dtd"
   xmlns="http://www.w3.org/2000/svg"
   xmlns:svg="http://www.w3.org/2000/svg">
  <sodipodi:namedview
     id="namedview7"
     pagecolor="#ffffff"
     bordercolor="#666666"
     borderopacity="1.0"
     inkscape:pageshadow="2"
     inkscape:pageopacity="0.0"
     inkscape:pagecheckerboard="0"
     inkscape:document-units="mm"
     showgrid="false"
     inkscape:zoom="1.2328608"
     inkscape:cx="365.41028"
     inkscape:cy="136.67399"
     inkscape:window-width="1600"
     inkscape:window-height="839"
     inkscape:window-x="0"
     inkscape:window-y="24"
     inkscape:window-maximized="1"
     inkscape:current-layer="layer1" />
  <defs
     id="defs2" />
  <g
     inkscape:label="Calque 1"
     inkscape:groupmode="layer"
     id="layer1"
     transform="translate(-49.777565,-96.190762)">
    <g
       aria-label="DRUPALCAMP ROAZHON"
       id="text1705"
       style="font-size:10.5833px;line-height:1.25;font-family:'Josefin Sans';-inkscape-font-specification:'Josefin Sans';letter-spacing:0px;word-spacing:0px;stroke-width:0.264583">
      <path
         d="m 49.777565,104.29757 v -7.789309 h 2.328326 q 1.174747,0 2.000244,0.349249 0.825497,0.349249 1.322912,0.93133 0.507999,0.582081 0.740831,1.301746 0.232833,0.719664 0.232833,1.449914 0,0.86783 -0.317499,1.56633 -0.306916,0.68791 -0.846664,1.18533 -0.539748,0.48683 -1.248829,0.75141 -0.709081,0.254 -1.502829,0.254 z m 1.534579,-1.48166 h 0.910164 q 0.582081,0 1.05833,-0.14817 0.476248,-0.15875 0.814914,-0.45508 0.349249,-0.29633 0.529165,-0.74083 0.190499,-0.45508 0.190499,-1.03717 0,-0.761993 -0.253999,-1.238241 -0.243416,-0.486832 -0.613832,-0.751414 -0.359832,-0.264583 -0.740831,-0.359833 -0.380998,-0.105833 -0.645581,-0.105833 h -1.248829 z"
         style="font-weight:bold;-inkscape-font-specification:'Josefin Sans Bold'"
         id="path12771" />
      <path
         d="m 60.297365,96.508261 q 0.730247,0 1.301745,0.190499 0.571499,0.179916 0.952497,0.529165 0.391582,0.338666 0.592665,0.825497 0.201083,0.476249 0.201083,1.079497 0,0.476249 -0.148166,0.952501 -0.137583,0.47624 -0.465666,0.86783 -0.317499,0.39158 -0.846664,0.63499 -0.529165,0.23284 -1.312329,0.23284 h -1.100663 v 2.47649 h -1.534578 v -7.789309 z m 0.264582,3.831159 q 0.349249,0 0.582081,-0.11642 0.232833,-0.11642 0.359833,-0.296333 0.137583,-0.179917 0.190499,-0.370416 0.0635,-0.201083 0.0635,-0.370415 0,-0.127 -0.04233,-0.317499 -0.03175,-0.201083 -0.148167,-0.402166 -0.116416,-0.201083 -0.359832,-0.338665 -0.232832,-0.137583 -0.634998,-0.137583 H 59.47187 v 2.349497 z m 1.439329,0.95249 1.92616,3.00566 h -1.788577 l -1.968494,-2.96332 z"
         style="font-weight:bold;-inkscape-font-specification:'Josefin Sans Bold'"
         id="path12768" />
      <path
         d="m 66.573249,101.41891 q 0,0.37042 0.22225,0.70908 0.222249,0.33867 0.582081,0.55033 0.370416,0.21167 0.804331,0.21167 0.476249,0 0.846664,-0.21167 0.370415,-0.21166 0.582081,-0.55033 0.22225,-0.33866 0.22225,-0.70908 v -4.910649 h 1.513412 v 4.942399 q 0,0.85725 -0.423332,1.524 -0.423332,0.65616 -1.142997,1.03716 -0.719664,0.37042 -1.598078,0.37042 v 0 q -0.867831,0 -1.587495,-0.37042 -0.709081,-0.381 -1.132413,-1.03716 -0.423332,-0.66675 -0.423332,-1.524 v -4.942399 h 1.534578 z"
         style="font-weight:bold;-inkscape-font-specification:'Josefin Sans Bold'"
         id="path12765" />
      <path
         d="m 75.558456,96.508261 q 0.96308,0 1.629828,0.328082 0.666748,0.317499 1.015997,0.910164 0.349249,0.582081 0.349249,1.386412 0,0.476249 -0.148167,0.963081 -0.137583,0.47625 -0.455082,0.86783 -0.306915,0.39158 -0.83608,0.635 -0.518582,0.23283 -1.280579,0.23283 h -1.100664 v 2.46591 H 73.19838 v -7.789309 z m 0.264582,3.831159 q 0.349249,0 0.582082,-0.11642 0.232832,-0.127 0.359832,-0.306917 0.137583,-0.190499 0.190499,-0.391582 0.0635,-0.201083 0.0635,-0.349249 0,-0.116416 -0.04233,-0.306915 -0.03175,-0.201083 -0.148166,-0.402166 -0.116417,-0.201083 -0.359832,-0.338665 -0.232833,-0.137583 -0.634998,-0.137583 h -1.100664 v 2.349497 z"
         style="font-weight:bold;-inkscape-font-specification:'Josefin Sans Bold'"
         id="path12762" />
      <path
         d="m 78.257186,104.29757 3.513655,-8.096225 h 0.08467 l 3.513655,8.096225 h -1.777994 l -2.24366,-5.693816 1.111247,-0.761998 -2.688158,6.455814 z m 2.402409,-2.81516 h 2.338909 l 0.539748,1.29116 h -3.354906 z"
         style="font-weight:bold;-inkscape-font-specification:'Josefin Sans Bold'"
         id="path12759" />
      <path
         d="m 86.501568,96.508261 h 1.534579 v 6.307649 h 3.661821 v 1.48166 h -5.1964 z"
         style="font-weight:bold;-inkscape-font-specification:'Josefin Sans Bold'"
         id="path12756" />
      <path
         d="m 98.915762,103.65199 q -0.127,0.10583 -0.476249,0.28575 -0.338665,0.17991 -0.83608,0.3175 -0.497415,0.13758 -1.100663,0.127 -0.920748,-0.0212 -1.650995,-0.32809 -0.719665,-0.3175 -1.227663,-0.85724 -0.497415,-0.53975 -0.761998,-1.23825 -0.264582,-0.6985 -0.264582,-1.49225 0,-0.888992 0.264582,-1.629823 0.275166,-0.740831 0.772581,-1.28058 0.507999,-0.539748 1.206497,-0.83608 0.698497,-0.296333 1.545161,-0.296333 0.783164,0 1.386413,0.211666 0.603248,0.211666 0.984246,0.455082 l -0.603248,1.449912 q -0.264582,-0.201082 -0.709081,-0.412748 -0.433915,-0.22225 -1.005413,-0.22225 -0.444499,0 -0.857248,0.1905 -0.402165,0.179916 -0.719664,0.518581 -0.306916,0.338666 -0.486832,0.793748 -0.179916,0.444498 -0.179916,0.973665 0,0.56091 0.15875,1.02658 0.169333,0.46566 0.476248,0.80433 0.306916,0.32808 0.730248,0.508 0.433915,0.17991 0.973663,0.17991 0.624415,0 1.068914,-0.20108 0.444498,-0.20108 0.677331,-0.42333 z"
         style="font-weight:bold;-inkscape-font-specification:'Josefin Sans Bold'"
         id="path12753" />
      <path
         d="m 99.571912,104.29757 3.513658,-8.096225 h 0.0847 l 3.51366,8.096225 h -1.778 l -2.24365,-5.693816 1.11124,-0.761998 -2.68816,6.455814 z m 2.402408,-2.81516 h 2.33891 l 0.53975,1.29116 h -3.35491 z"
         style="font-weight:bold;-inkscape-font-specification:'Josefin Sans Bold'"
         id="path12750" />
      <path
         d="m 107.81629,104.29757 v -8.106808 h 0.0106 l 4.32857,6.138318 -0.65617,-0.14817 4.31799,-5.990148 h 0.0212 v 8.106808 h -1.53458 v -4.646069 l 0.0953,0.793749 -2.63524,3.74649 h -0.0212 l -2.70933,-3.74649 0.26458,-0.730249 v 4.582569 z"
         style="font-weight:bold;-inkscape-font-specification:'Josefin Sans Bold'"
         id="path12747" />
      <path
         d="m 120.20933,96.508261 q 0.96308,0 1.62983,0.328082 0.66675,0.317499 1.016,0.910164 0.34925,0.582081 0.34925,1.386412 0,0.476249 -0.14817,0.963081 -0.13758,0.47625 -0.45508,0.86783 -0.30692,0.39158 -0.83608,0.635 -0.51858,0.23283 -1.28058,0.23283 h -1.10066 v 2.46591 h -1.53458 v -7.789309 z m 0.26459,3.831159 q 0.34925,0 0.58208,-0.11642 0.23283,-0.127 0.35983,-0.306917 0.13758,-0.190499 0.1905,-0.391582 0.0635,-0.201083 0.0635,-0.349249 0,-0.116416 -0.0423,-0.306915 -0.0318,-0.201083 -0.14817,-0.402166 -0.11642,-0.201083 -0.35983,-0.338665 -0.23283,-0.137583 -0.635,-0.137583 h -1.10066 v 2.349497 z"
         style="font-weight:bold;-inkscape-font-specification:'Josefin Sans Bold'"
         id="path12744" />
      <path
         d="m 132.47538,96.783427 q 0.42334,0 0.83608,0.126999 0.42334,0.116416 0.762,0.380999 0.34925,0.253999 0.56092,0.656164 0.21166,0.402166 0.21166,0.963081 0,0.423332 -0.127,0.825497 -0.127,0.391583 -0.41275,0.709083 -0.28575,0.3175 -0.74083,0.508 -0.45508,0.1905 -1.12183,0.1905 h -1.16416 v 3.15382 h -0.51858 v -7.514143 z m -0.0635,3.862903 q 0.56092,0 0.93133,-0.15875 0.37042,-0.15875 0.58209,-0.41275 0.21166,-0.253996 0.29633,-0.550329 0.0952,-0.306916 0.0952,-0.592665 0,-0.338665 -0.127,-0.634998 -0.11642,-0.296332 -0.34925,-0.518581 -0.23283,-0.232833 -0.56092,-0.359832 -0.32808,-0.137583 -0.73024,-0.137583 h -1.27 v 3.365488 z m 1.0795,0.23283 2.08491,3.41841 h -0.60325 l -2.09549,-3.40782 z"
         style="font-weight:300;-inkscape-font-specification:'Josefin Sans Light'"
         id="path12741" />
      <path
         d="m 136.90978,100.55108 q 0,-0.793746 0.29633,-1.481661 0.29633,-0.698498 0.8255,-1.227663 0.52916,-0.539748 1.21708,-0.83608 0.69849,-0.306916 1.49224,-0.306916 0.79375,0 1.49225,0.306916 0.69849,0.296332 1.22766,0.83608 0.52916,0.529165 0.8255,1.227663 0.30691,0.687915 0.30691,1.481661 0,0.79375 -0.30691,1.49225 -0.29634,0.68791 -0.8255,1.21708 -0.52917,0.52916 -1.22766,0.82549 -0.6985,0.29634 -1.49225,0.29634 -0.79375,0 -1.49224,-0.28575 -0.68792,-0.28575 -1.21708,-0.80433 -0.52917,-0.51859 -0.8255,-1.21708 -0.29633,-0.6985 -0.29633,-1.524 z m 0.52916,0.0106 q 0,0.68792 0.254,1.29117 0.254,0.60325 0.70908,1.05833 0.45508,0.45508 1.04775,0.71966 0.60325,0.254 1.28058,0.254 0.6985,0 1.30174,-0.254 0.60325,-0.26458 1.05833,-0.71966 0.45509,-0.45508 0.70909,-1.05833 0.26458,-0.60325 0.26458,-1.30175 0,-0.687913 -0.26458,-1.291161 -0.254,-0.613832 -0.70909,-1.068914 -0.45508,-0.465665 -1.05833,-0.730247 -0.60324,-0.264583 -1.29116,-0.264583 -0.6985,0 -1.30174,0.275166 -0.60325,0.264583 -1.05833,0.730248 -0.4445,0.465665 -0.6985,1.079496 -0.24342,0.603248 -0.24342,1.280575 z"
         style="font-weight:300;-inkscape-font-specification:'Josefin Sans Light'"
         id="path12738" />
      <path
         d="m 145.55631,104.29757 3.17499,-7.842226 h 0.0423 l 3.17499,7.842226 h -0.58208 l -2.76224,-7.016728 0.35983,-0.201083 -2.88924,7.217811 z m 1.53458,-2.97391 h 3.33374 l 0.14816,0.48683 h -3.6089 z"
         style="font-weight:300;-inkscape-font-specification:'Josefin Sans Light'"
         id="path12735" />
      <path
         d="m 153.08103,104.29757 q 0.24341,-0.33867 0.53974,-0.75141 0.29634,-0.41275 0.62442,-0.87842 0.33866,-0.47625 0.68791,-0.97366 0.35984,-0.508 0.73025,-1.016 0.37042,-0.508 0.71967,-0.994829 0.35983,-0.497415 0.68791,-0.952497 0.33867,-0.465666 0.635,-0.867831 0.29633,-0.402165 0.53975,-0.719664 l 0.0952,0.137583 h -4.24391 q -0.1905,0 -0.34925,-0.05292 -0.15875,-0.05292 -0.254,-0.169333 -0.0952,-0.116416 -0.0952,-0.317499 v -0.328082 h 0.49741 v 0.127 q 0,0.137583 0.0741,0.190499 0.0741,0.05292 0.254,0.05292 h 4.83657 l -5.14348,7.101393 -0.0423,-0.0847 h 5.43982 v 0.49742 z"
         style="font-weight:300;-inkscape-font-specification:'Josefin Sans Light'"
         id="path12732" />
      <path
         d="m 166.69114,96.783427 v 7.514143 h -0.51858 v -3.53482 h -4.52966 v 3.53482 h -0.51858 v -7.514143 h 0.51858 v 3.492493 h 4.52966 v -3.492493 z"
         style="font-weight:300;-inkscape-font-specification:'Josefin Sans Light'"
         id="path12729" />
      <path
         d="m 168.60671,100.55108 q 0,-0.793746 0.29633,-1.481661 0.29633,-0.698498 0.8255,-1.227663 0.52916,-0.539748 1.21708,-0.83608 0.69849,-0.306916 1.49224,-0.306916 0.79375,0 1.49225,0.306916 0.69849,0.296332 1.22766,0.83608 0.52916,0.529165 0.8255,1.227663 0.30691,0.687915 0.30691,1.481661 0,0.79375 -0.30691,1.49225 -0.29634,0.68791 -0.8255,1.21708 -0.52917,0.52916 -1.22766,0.82549 -0.6985,0.29634 -1.49225,0.29634 -0.79375,0 -1.49224,-0.28575 -0.68792,-0.28575 -1.21708,-0.80433 -0.52917,-0.51859 -0.8255,-1.21708 -0.29633,-0.6985 -0.29633,-1.524 z m 0.52916,0.0106 q 0,0.68792 0.254,1.29117 0.254,0.60325 0.70908,1.05833 0.45508,0.45508 1.04775,0.71966 0.60325,0.254 1.28058,0.254 0.6985,0 1.30174,-0.254 0.60325,-0.26458 1.05833,-0.71966 0.45509,-0.45508 0.70909,-1.05833 0.26458,-0.60325 0.26458,-1.30175 0,-0.687913 -0.26458,-1.291161 -0.254,-0.613832 -0.70909,-1.068914 -0.45508,-0.465665 -1.05833,-0.730247 -0.60324,-0.264583 -1.29116,-0.264583 -0.6985,0 -1.30174,0.275166 -0.60325,0.264583 -1.05833,0.730248 -0.4445,0.465665 -0.6985,1.079496 -0.24342,0.603248 -0.24342,1.280575 z"
         style="font-weight:300;-inkscape-font-specification:'Josefin Sans Light'"
         id="path12726" />
      <path
         d="m 184.49223,104.47749 -5.92665,-6.678067 0.13759,-0.105833 0.0106,6.60398 h -0.508 v -7.672893 h 0.0318 l 5.92665,6.730983 -0.13758,0.0423 -0.0106,-6.614563 h 0.49742 v 7.694063 z"
         style="font-weight:300;-inkscape-font-specification:'Josefin Sans Light'"
         id="path12723" />
    </g>
  </g>
</svg>
