<?xml version="1.0" encoding="UTF-8" standalone="no"?>
<!-- Created with Inkscape (http://www.inkscape.org/) -->

<svg
   width="111.01266mm"
   height="42.889343mm"
   viewBox="0 0 111.01266 42.889343"
   version="1.1"
   id="svg1"
   inkscape:version="1.3 (1:1.3+202307231459+0e150ed6c4)"
   sodipodi:docname="logo_header.svg"
   xmlns:inkscape="http://www.inkscape.org/namespaces/inkscape"
   xmlns:sodipodi="http://sodipodi.sourceforge.net/DTD/sodipodi-0.dtd"
   xmlns="http://www.w3.org/2000/svg"
   xmlns:svg="http://www.w3.org/2000/svg">
  <sodipodi:namedview
     id="namedview1"
     pagecolor="#ffffff"
     bordercolor="#666666"
     borderopacity="1.0"
     inkscape:showpageshadow="2"
     inkscape:pageopacity="0.0"
     inkscape:pagecheckerboard="0"
     inkscape:deskcolor="#d1d1d1"
     inkscape:document-units="mm"
     inkscape:zoom="1.9779745"
     inkscape:cx="200.96316"
     inkscape:cy="77.604641"
     inkscape:window-width="1920"
     inkscape:window-height="998"
     inkscape:window-x="0"
     inkscape:window-y="0"
     inkscape:window-maximized="1"
     inkscape:current-layer="layer1" />
  <defs
     id="defs1">
    <clipPath
       clipPathUnits="userSpaceOnUse"
       id="clipPath2">
      <path
         d="M 0,283.465 H 283.465 V 0 H 0 Z"
         transform="translate(-173.50491,-167.75611)"
         id="path2" />
    </clipPath>
    <clipPath
       clipPathUnits="userSpaceOnUse"
       id="clipPath4">
      <path
         d="M 0,283.465 H 283.465 V 0 H 0 Z"
         transform="translate(-154.2861,-170.3552)"
         id="path4" />
    </clipPath>
    <clipPath
       clipPathUnits="userSpaceOnUse"
       id="clipPath6">
      <path
         d="M 0,283.465 H 283.465 V 0 H 0 Z"
         transform="translate(-119.58591,-164.31121)"
         id="path6" />
    </clipPath>
    <clipPath
       clipPathUnits="userSpaceOnUse"
       id="clipPath8">
      <path
         d="M 0,283.465 H 283.465 V 0 H 0 Z"
         transform="translate(-127.43121,-174.29221)"
         id="path8" />
    </clipPath>
    <clipPath
       clipPathUnits="userSpaceOnUse"
       id="clipPath10">
      <path
         d="M 0,283.465 H 283.465 V 0 H 0 Z"
         transform="translate(-105.207,-176.5163)"
         id="path10" />
    </clipPath>
    <clipPath
       clipPathUnits="userSpaceOnUse"
       id="clipPath12">
      <path
         d="M 0,283.465 H 283.465 V 0 H 0 Z"
         transform="translate(-132.8286,-152.4353)"
         id="path12" />
    </clipPath>
    <clipPath
       clipPathUnits="userSpaceOnUse"
       id="clipPath14">
      <path
         d="M 0,283.465 H 283.465 V 0 H 0 Z"
         transform="translate(-141.33201,-159.1604)"
         id="path14" />
    </clipPath>
    <clipPath
       clipPathUnits="userSpaceOnUse"
       id="clipPath16">
      <path
         d="M 0,283.465 H 283.465 V 0 H 0 Z"
         transform="translate(-128.7178,-155.11501)"
         id="path16" />
    </clipPath>
    <clipPath
       clipPathUnits="userSpaceOnUse"
       id="clipPath18">
      <path
         d="M 0,283.465 H 283.465 V 0 H 0 Z"
         transform="translate(-148.88091,-100.24291)"
         id="path18" />
    </clipPath>
    <clipPath
       clipPathUnits="userSpaceOnUse"
       id="clipPath20">
      <path
         d="M 0,283.465 H 283.465 V 0 H 0 Z"
         transform="translate(-123.39501,-125.029)"
         id="path20" />
    </clipPath>
    <clipPath
       clipPathUnits="userSpaceOnUse"
       id="clipPath22">
      <path
         d="M 0,283.465 H 283.465 V 0 H 0 Z"
         transform="translate(-158.4561,-89.311205)"
         id="path22" />
    </clipPath>
    <clipPath
       clipPathUnits="userSpaceOnUse"
       id="clipPath24">
      <path
         d="M 0,283.465 H 283.465 V 0 H 0 Z"
         transform="translate(-111.66891,-93.7253)"
         id="path24" />
    </clipPath>
    <clipPath
       clipPathUnits="userSpaceOnUse"
       id="clipPath26">
      <path
         d="M 0,283.465 H 283.465 V 0 H 0 Z"
         transform="translate(-128.22561,-96.462605)"
         id="path26" />
    </clipPath>
    <clipPath
       clipPathUnits="userSpaceOnUse"
       id="clipPath28">
      <path
         d="M 0,283.465 H 283.465 V 0 H 0 Z"
         transform="translate(-137.8911,-81.175505)"
         id="path28" />
    </clipPath>
    <clipPath
       clipPathUnits="userSpaceOnUse"
       id="clipPath30">
      <path
         d="M 0,283.465 H 283.465 V 0 H 0 Z"
         transform="translate(-111.5703,-93.381605)"
         id="path30" />
    </clipPath>
    <clipPath
       clipPathUnits="userSpaceOnUse"
       id="clipPath32">
      <path
         d="M 0,283.465 H 283.465 V 0 H 0 Z"
         transform="translate(-111.62841,-93.582702)"
         id="path32" />
    </clipPath>
    <clipPath
       clipPathUnits="userSpaceOnUse"
       id="clipPath34">
      <path
         d="M 0,283.465 H 283.465 V 0 H 0 Z"
         transform="translate(-137.04351,-81.279005)"
         id="path34" />
    </clipPath>
    <clipPath
       clipPathUnits="userSpaceOnUse"
       id="clipPath36">
      <path
         d="M 0,283.465 H 283.465 V 0 H 0 Z"
         transform="translate(-134.2861,-96.726305)"
         id="path36" />
    </clipPath>
    <clipPath
       clipPathUnits="userSpaceOnUse"
       id="clipPath38">
      <path
         d="M 0,283.465 H 283.465 V 0 H 0 Z"
         transform="translate(-143.5791,-80.652102)"
         id="path38" />
    </clipPath>
    <clipPath
       clipPathUnits="userSpaceOnUse"
       id="clipPath40">
      <path
         d="M 0,283.465 H 283.465 V 0 H 0 Z"
         transform="translate(-135.2187,-81.481205)"
         id="path40" />
    </clipPath>
    <clipPath
       clipPathUnits="userSpaceOnUse"
       id="clipPath42">
      <path
         d="M 0,283.465 H 283.465 V 0 H 0 Z"
         transform="translate(-141.47121,-80.7263)"
         id="path42" />
    </clipPath>
    <clipPath
       clipPathUnits="userSpaceOnUse"
       id="clipPath44">
      <path
         d="M 0,283.465 H 283.465 V 0 H 0 Z"
         transform="translate(-136.9185,-81.291702)"
         id="path44" />
    </clipPath>
    <clipPath
       clipPathUnits="userSpaceOnUse"
       id="clipPath46">
      <path
         d="M 0,283.465 H 283.465 V 0 H 0 Z"
         transform="translate(-138.1323,-81.1433)"
         id="path46" />
    </clipPath>
    <clipPath
       clipPathUnits="userSpaceOnUse"
       id="clipPath48">
      <path
         d="M 0,283.465 H 283.465 V 0 H 0 Z"
         transform="translate(-131.4619,-82.355202)"
         id="path48" />
    </clipPath>
    <clipPath
       clipPathUnits="userSpaceOnUse"
       id="clipPath50">
      <path
         d="M 0,283.465 H 283.465 V 0 H 0 Z"
         transform="translate(-143.16021,-80.652102)"
         id="path50" />
    </clipPath>
    <clipPath
       clipPathUnits="userSpaceOnUse"
       id="clipPath52">
      <path
         d="M 0,283.465 H 283.465 V 0 H 0 Z"
         transform="translate(-137.4976,-81.2243)"
         id="path52" />
    </clipPath>
    <clipPath
       clipPathUnits="userSpaceOnUse"
       id="clipPath54">
      <path
         d="M 0,283.465 H 283.465 V 0 H 0 Z"
         transform="translate(-128.5039,-97.007502)"
         id="path54" />
    </clipPath>
    <clipPath
       clipPathUnits="userSpaceOnUse"
       id="clipPath56">
      <path
         d="M 0,283.465 H 283.465 V 0 H 0 Z"
         transform="translate(-134.2861,-96.726305)"
         id="path56" />
    </clipPath>
    <clipPath
       clipPathUnits="userSpaceOnUse"
       id="clipPath58">
      <path
         d="M 0,283.465 H 283.465 V 0 H 0 Z"
         transform="translate(-111.6489,-93.653)"
         id="path58" />
    </clipPath>
    <clipPath
       clipPathUnits="userSpaceOnUse"
       id="clipPath60">
      <path
         d="M 0,283.465 H 283.465 V 0 H 0 Z"
         transform="translate(-111.58641,-93.4382)"
         id="path60" />
    </clipPath>
    <clipPath
       clipPathUnits="userSpaceOnUse"
       id="clipPath62">
      <path
         d="M 0,283.465 H 283.465 V 0 H 0 Z"
         transform="translate(-111.50391,-93.157902)"
         id="path62" />
    </clipPath>
    <clipPath
       clipPathUnits="userSpaceOnUse"
       id="clipPath64">
      <path
         d="M 0,283.465 H 283.465 V 0 H 0 Z"
         transform="translate(-154.3701,-111.8249)"
         id="path64" />
    </clipPath>
    <clipPath
       clipPathUnits="userSpaceOnUse"
       id="clipPath66">
      <path
         d="M 0,283.465 H 283.465 V 0 H 0 Z"
         transform="translate(-159.15141,-165.4157)"
         id="path66" />
    </clipPath>
    <clipPath
       clipPathUnits="userSpaceOnUse"
       id="clipPath68">
      <path
         d="M 0,283.465 H 283.465 V 0 H 0 Z"
         transform="translate(-107.1895,-135.15991)"
         id="path68" />
    </clipPath>
    <clipPath
       clipPathUnits="userSpaceOnUse"
       id="clipPath70">
      <path
         d="M 0,283.465 H 283.465 V 0 H 0 Z"
         transform="translate(-107.6904,-133.88551)"
         id="path70" />
    </clipPath>
    <clipPath
       clipPathUnits="userSpaceOnUse"
       id="clipPath72">
      <path
         d="M 0,283.465 H 283.465 V 0 H 0 Z"
         transform="translate(-106.6675,-136.36111)"
         id="path72" />
    </clipPath>
    <clipPath
       clipPathUnits="userSpaceOnUse"
       id="clipPath74">
      <path
         d="M 0,283.465 H 283.465 V 0 H 0 Z"
         transform="translate(-106.1143,-137.5154)"
         id="path74" />
    </clipPath>
    <clipPath
       clipPathUnits="userSpaceOnUse"
       id="clipPath76">
      <path
         d="M 0,283.465 H 283.465 V 0 H 0 Z"
         transform="translate(-108.18651,-132.49)"
         id="path76" />
    </clipPath>
    <clipPath
       clipPathUnits="userSpaceOnUse"
       id="clipPath78">
      <path
         d="M 0,283.465 H 283.465 V 0 H 0 Z"
         transform="translate(-107.9292,-106.44601)"
         id="path78" />
    </clipPath>
    <clipPath
       clipPathUnits="userSpaceOnUse"
       id="clipPath80">
      <path
         d="M 0,283.465 H 283.465 V 0 H 0 Z"
         transform="translate(-99.2842,-148.966)"
         id="path80" />
    </clipPath>
    <clipPath
       clipPathUnits="userSpaceOnUse"
       id="clipPath82">
      <path
         d="M 0,283.465 H 283.465 V 0 H 0 Z"
         transform="translate(-107.53611,-104.9089)"
         id="path82" />
    </clipPath>
    <clipPath
       clipPathUnits="userSpaceOnUse"
       id="clipPath84">
      <path
         d="M 0,283.465 H 283.465 V 0 H 0 Z"
         transform="translate(-106.7178,-101.9558)"
         id="path84" />
    </clipPath>
    <clipPath
       clipPathUnits="userSpaceOnUse"
       id="clipPath86">
      <path
         d="M 0,283.465 H 283.465 V 0 H 0 Z"
         transform="translate(-108.5674,-109.22341)"
         id="path86" />
    </clipPath>
    <clipPath
       clipPathUnits="userSpaceOnUse"
       id="clipPath88">
      <path
         d="M 0,283.465 H 283.465 V 0 H 0 Z"
         transform="translate(-108.2598,-107.8298)"
         id="path88" />
    </clipPath>
    <clipPath
       clipPathUnits="userSpaceOnUse"
       id="clipPath90">
      <path
         d="M 0,283.465 H 283.465 V 0 H 0 Z"
         transform="translate(-108.7734,-130.64521)"
         id="path90" />
    </clipPath>
    <clipPath
       clipPathUnits="userSpaceOnUse"
       id="clipPath92">
      <path
         d="M 0,283.465 H 283.465 V 0 H 0 Z"
         transform="translate(-102.5874,-145.9016)"
         id="path92" />
    </clipPath>
    <clipPath
       clipPathUnits="userSpaceOnUse"
       id="clipPath94">
      <path
         d="M 0,283.465 H 283.465 V 0 H 0 Z"
         transform="translate(-103.29351,-147.8362)"
         id="path94" />
    </clipPath>
    <clipPath
       clipPathUnits="userSpaceOnUse"
       id="clipPath96">
      <path
         d="M 0,283.465 H 283.465 V 0 H 0 Z"
         transform="translate(-104.4946,-145.4245)"
         id="path96" />
    </clipPath>
    <clipPath
       clipPathUnits="userSpaceOnUse"
       id="clipPath98">
      <path
         d="M 0,283.465 H 283.465 V 0 H 0 Z"
         transform="translate(-102.2803,-149.77711)"
         id="path98" />
    </clipPath>
    <clipPath
       clipPathUnits="userSpaceOnUse"
       id="clipPath100">
      <path
         d="M 0,283.465 H 283.465 V 0 H 0 Z"
         transform="translate(-101.5269,-147.02851)"
         id="path100" />
    </clipPath>
    <clipPath
       clipPathUnits="userSpaceOnUse"
       id="clipPath102">
      <path
         d="M 0,283.465 H 283.465 V 0 H 0 Z"
         transform="translate(-108.3013,-108.00751)"
         id="path102" />
    </clipPath>
    <clipPath
       clipPathUnits="userSpaceOnUse"
       id="clipPath104">
      <path
         d="M 0,283.465 H 283.465 V 0 H 0 Z"
         transform="translate(-106.7466,-102.0554)"
         id="path104" />
    </clipPath>
    <clipPath
       clipPathUnits="userSpaceOnUse"
       id="clipPath106">
      <path
         d="M 0,283.465 H 283.465 V 0 H 0 Z"
         transform="translate(-108.6196,-109.47631)"
         id="path106" />
    </clipPath>
    <clipPath
       clipPathUnits="userSpaceOnUse"
       id="clipPath108">
      <path
         d="M 0,283.465 H 283.465 V 0 H 0 Z"
         transform="translate(-100.95651,-152.32351)"
         id="path108" />
    </clipPath>
    <clipPath
       clipPathUnits="userSpaceOnUse"
       id="clipPath110">
      <path
         d="M 0,283.465 H 283.465 V 0 H 0 Z"
         transform="translate(-98.373002,-146.8103)"
         id="path110" />
    </clipPath>
    <clipPath
       clipPathUnits="userSpaceOnUse"
       id="clipPath112">
      <path
         d="M 0,283.465 H 283.465 V 0 H 0 Z"
         transform="translate(-107.58351,-105.0896)"
         id="path112" />
    </clipPath>
    <clipPath
       clipPathUnits="userSpaceOnUse"
       id="clipPath114">
      <path
         d="M 0,283.465 H 283.465 V 0 H 0 Z"
         transform="translate(-105.85011,-99.108102)"
         id="path114" />
    </clipPath>
    <clipPath
       clipPathUnits="userSpaceOnUse"
       id="clipPath116">
      <path
         d="M 0,283.465 H 283.465 V 0 H 0 Z"
         transform="translate(-107.9727,-106.62571)"
         id="path116" />
    </clipPath>
    <clipPath
       clipPathUnits="userSpaceOnUse"
       id="clipPath118">
      <path
         d="M 0,283.465 H 283.465 V 0 H 0 Z"
         transform="translate(-102.93261,-148.528)"
         id="path118" />
    </clipPath>
    <clipPath
       clipPathUnits="userSpaceOnUse"
       id="clipPath120">
      <path
         d="M 0,283.465 H 283.465 V 0 H 0 Z"
         transform="translate(-106.6362,-136.4314)"
         id="path120" />
    </clipPath>
    <clipPath
       clipPathUnits="userSpaceOnUse"
       id="clipPath122">
      <path
         d="M 0,283.465 H 283.465 V 0 H 0 Z"
         transform="translate(-107.12451,-135.32101)"
         id="path122" />
    </clipPath>
    <clipPath
       clipPathUnits="userSpaceOnUse"
       id="clipPath124">
      <path
         d="M 0,283.465 H 283.465 V 0 H 0 Z"
         transform="translate(-105.436,-143.3752)"
         id="path124" />
    </clipPath>
    <clipPath
       clipPathUnits="userSpaceOnUse"
       id="clipPath126">
      <path
         d="M 0,283.465 H 283.465 V 0 H 0 Z"
         transform="translate(-102.4893,-146.011)"
         id="path126" />
    </clipPath>
    <clipPath
       clipPathUnits="userSpaceOnUse"
       id="clipPath128">
      <path
         d="M 0,283.465 H 283.465 V 0 H 0 Z"
         transform="translate(-99.283705,-148.96651)"
         id="path128" />
    </clipPath>
    <clipPath
       clipPathUnits="userSpaceOnUse"
       id="clipPath130">
      <path
         d="M 0,283.465 H 283.465 V 0 H 0 Z"
         transform="translate(-104.24511,-145.9402)"
         id="path130" />
    </clipPath>
    <clipPath
       clipPathUnits="userSpaceOnUse"
       id="clipPath132">
      <path
         d="M 0,283.465 H 283.465 V 0 H 0 Z"
         transform="translate(-101.4844,-147.07051)"
         id="path132" />
    </clipPath>
    <clipPath
       clipPathUnits="userSpaceOnUse"
       id="clipPath134">
      <path
         d="M 0,283.465 H 283.465 V 0 H 0 Z"
         transform="translate(-108.40191,-131.8493)"
         id="path134" />
    </clipPath>
    <clipPath
       clipPathUnits="userSpaceOnUse"
       id="clipPath136">
      <path
         d="M 0,283.465 H 283.465 V 0 H 0 Z"
         transform="translate(-108.0049,-133.02901)"
         id="path136" />
    </clipPath>
    <clipPath
       clipPathUnits="userSpaceOnUse"
       id="clipPath138">
      <path
         d="M 0,283.465 H 283.465 V 0 H 0 Z"
         transform="translate(-107.57961,-134.1862)"
         id="path138" />
    </clipPath>
    <clipPath
       clipPathUnits="userSpaceOnUse"
       id="clipPath140">
      <path
         d="M 0,283.465 H 283.465 V 0 H 0 Z"
         transform="translate(-162.45411,-165.96901)"
         id="path140" />
    </clipPath>
    <clipPath
       clipPathUnits="userSpaceOnUse"
       id="clipPath142">
      <path
         d="M 0,283.465 H 283.465 V 0 H 0 Z"
         transform="translate(-99.052202,-119.2829)"
         id="path142" />
    </clipPath>
    <clipPath
       clipPathUnits="userSpaceOnUse"
       id="clipPath144">
      <path
         d="M 0,283.465 H 283.465 V 0 H 0 Z"
         transform="translate(-98.591305,-134.3474)"
         id="path144" />
    </clipPath>
    <clipPath
       clipPathUnits="userSpaceOnUse"
       id="clipPath146">
      <path
         d="M 0,283.465 H 283.465 V 0 H 0 Z"
         transform="translate(-108.77391,-130.64521)"
         id="path146" />
    </clipPath>
    <clipPath
       clipPathUnits="userSpaceOnUse"
       id="clipPath148">
      <path
         d="M 0,283.465 H 283.465 V 0 H 0 Z"
         transform="translate(-112.7671,-100.1872)"
         id="path148" />
    </clipPath>
    <clipPath
       clipPathUnits="userSpaceOnUse"
       id="clipPath150">
      <path
         d="M 0,283.465 H 283.465 V 0 H 0 Z"
         transform="translate(-160.1797,-90.094505)"
         id="path150" />
    </clipPath>
    <clipPath
       clipPathUnits="userSpaceOnUse"
       id="clipPath152">
      <path
         d="M 0,283.465 H 283.465 V 0 H 0 Z"
         transform="translate(-101.70261,-124.5818)"
         id="path152" />
    </clipPath>
    <clipPath
       clipPathUnits="userSpaceOnUse"
       id="clipPath154">
      <path
         d="M 0,283.465 H 283.465 V 0 H 0 Z"
         transform="translate(-128.9907,-179.1662)"
         id="path154" />
    </clipPath>
    <clipPath
       clipPathUnits="userSpaceOnUse"
       id="clipPath156">
      <path
         d="M 0,283.465 H 283.465 V 0 H 0 Z"
         transform="translate(-125.2954,-178.46161)"
         id="path156" />
    </clipPath>
    <clipPath
       clipPathUnits="userSpaceOnUse"
       id="clipPath158">
      <path
         d="M 0,283.465 H 283.465 V 0 H 0 Z"
         transform="translate(-105.2358,-177.9509)"
         id="path158" />
    </clipPath>
    <clipPath
       clipPathUnits="userSpaceOnUse"
       id="clipPath160">
      <path
         d="M 0,283.465 H 283.465 V 0 H 0 Z"
         transform="translate(-133.7725,-129.1784)"
         id="path160" />
    </clipPath>
    <clipPath
       clipPathUnits="userSpaceOnUse"
       id="clipPath162">
      <path
         d="M 0,283.465 H 283.465 V 0 H 0 Z"
         transform="translate(-124.24071,-111.15601)"
         id="path162" />
    </clipPath>
    <clipPath
       clipPathUnits="userSpaceOnUse"
       id="clipPath164">
      <path
         d="M 0,283.465 H 283.465 V 0 H 0 Z"
         transform="translate(-137.0488,-124.9343)"
         id="path164" />
    </clipPath>
    <clipPath
       clipPathUnits="userSpaceOnUse"
       id="clipPath166">
      <path
         d="M 0,283.465 H 283.465 V 0 H 0 Z"
         transform="translate(-131.9736,-134.2888)"
         id="path166" />
    </clipPath>
    <clipPath
       clipPathUnits="userSpaceOnUse"
       id="clipPath168">
      <path
         d="M 0,283.465 H 283.465 V 0 H 0 Z"
         transform="translate(-125.39991,-123.3386)"
         id="path168" />
    </clipPath>
    <clipPath
       clipPathUnits="userSpaceOnUse"
       id="clipPath170">
      <path
         d="M 0,283.465 H 283.465 V 0 H 0 Z"
         transform="translate(-135.32961,-110.3845)"
         id="path170" />
    </clipPath>
    <clipPath
       clipPathUnits="userSpaceOnUse"
       id="clipPath172">
      <path
         d="M 0,283.465 H 283.465 V 0 H 0 Z"
         transform="translate(-137.4429,-124.10521)"
         id="path172" />
    </clipPath>
    <clipPath
       clipPathUnits="userSpaceOnUse"
       id="clipPath174">
      <path
         d="M 0,283.465 H 283.465 V 0 H 0 Z"
         transform="translate(-134.28171,-129.77611)"
         id="path174" />
    </clipPath>
    <clipPath
       clipPathUnits="userSpaceOnUse"
       id="clipPath176">
      <path
         d="M 0,283.465 H 283.465 V 0 H 0 Z"
         transform="translate(-129.7852,-124.2878)"
         id="path176" />
    </clipPath>
    <clipPath
       clipPathUnits="userSpaceOnUse"
       id="clipPath178">
      <path
         d="M 0,283.465 H 283.465 V 0 H 0 Z"
         transform="translate(-135.3408,-108.00661)"
         id="path178" />
    </clipPath>
    <clipPath
       clipPathUnits="userSpaceOnUse"
       id="clipPath180">
      <path
         d="M 0,283.465 H 283.465 V 0 H 0 Z"
         transform="translate(-128.6221,-123.0827)"
         id="path180" />
    </clipPath>
    <clipPath
       clipPathUnits="userSpaceOnUse"
       id="clipPath182">
      <path
         d="M 0,283.465 H 283.465 V 0 H 0 Z"
         transform="translate(-133.18161,-128.5486)"
         id="path182" />
    </clipPath>
    <clipPath
       clipPathUnits="userSpaceOnUse"
       id="clipPath184">
      <path
         d="M 0,283.465 H 283.465 V 0 H 0 Z"
         transform="translate(-136.6333,-122.68921)"
         id="path184" />
    </clipPath>
    <clipPath
       clipPathUnits="userSpaceOnUse"
       id="clipPath186">
      <path
         d="M 0,283.465 H 283.465 V 0 H 0 Z"
         transform="translate(-129.93261,-103.93231)"
         id="path186" />
    </clipPath>
    <clipPath
       clipPathUnits="userSpaceOnUse"
       id="clipPath188">
      <path
         d="M 0,283.465 H 283.465 V 0 H 0 Z"
         transform="translate(-136.3384,-107.9333)"
         id="path188" />
    </clipPath>
    <clipPath
       clipPathUnits="userSpaceOnUse"
       id="clipPath190">
      <path
         d="M 0,283.465 H 283.465 V 0 H 0 Z"
         transform="translate(-129.0981,-123.5534)"
         id="path190" />
    </clipPath>
    <clipPath
       clipPathUnits="userSpaceOnUse"
       id="clipPath192">
      <path
         d="M 0,283.465 H 283.465 V 0 H 0 Z"
         transform="translate(-137.0664,-122.7917)"
         id="path192" />
    </clipPath>
    <clipPath
       clipPathUnits="userSpaceOnUse"
       id="clipPath194">
      <path
         d="M 0,283.465 H 283.465 V 0 H 0 Z"
         transform="translate(-133.7725,-129.1784)"
         id="path194" />
    </clipPath>
  </defs>
  <g
     inkscape:label="Calque 1"
     inkscape:groupmode="layer"
     id="layer1"
     transform="translate(-36.394542,-67.078767)">
    <path
       id="path1"
       d="m 0,0 c 0.329,-4.327 0.945,-8.885 1.546,-13.155 l -0.074,-0.208 c 1.518,-8.588 2.172,-17.29 1.95,-25.974 -0.205,-7.398 -2.681,-14.514 -7.093,-20.393 -1.937,-2.519 -4.249,-4.725 -6.858,-6.546 l -0.114,-0.07 c -0.581,-0.334 -1.298,-0.343 -1.899,-0.023 l -0.244,0.188 c -0.402,0.569 -0.576,1.263 -0.491,1.944 l 0.054,0.916 c 0.26,4.89 0.091,9.8 -0.504,14.676 l -0.716,6.35 -2.516,21.001 c -0.543,3.391 -1.505,9.463 -1.596,12.433 0.03,0.136 0.047,0.275 0.05,0.415 0.014,0.858 0.166,1.706 0.452,2.51 l 0.277,0.359 c 0.696,1.326 1.782,2.404 3.114,3.097 0.853,0.435 1.781,0.714 2.739,0.825 3.984,0.481 7.932,0.914 11.922,1.656 z m -30.574,-4.317 0.533,-3.151 1.974,-15.282 c 0.043,-0.616 -0.371,-1.155 -0.978,-1.271 l -16.533,-2.839 -6.047,-1.339 c -2.301,-0.51 -4.525,-1.298 -6.625,-2.344 -0.33,-0.191 -0.733,-0.209 -1.082,-0.046 l -0.318,0.245 c -0.819,0.745 -0.605,3.1 -0.605,3.1 l 0.022,0.36 c 0.036,0.479 0.098,0.955 0.186,1.426 l 0.107,0.49 c 1.796,4.884 4.92,9.155 9.029,12.345 l 0.436,0.325 c 3.509,2.579 7.433,4.554 11.614,5.846 2.716,0.869 5.483,1.581 8.287,2.135 m 4.27,-30.857 c 0.867,-8.02 1.225,-13.364 1.458,-19.077 0.018,-0.426 0,-0.858 -0.053,-1.292 -0.311,-7.771 -6.008,-14.182 -13.702,-15.418 -9.065,-1.463 -17.735,4.686 -19.377,13.735 -1.64,9.049 4.378,17.562 13.442,19.025 5.361,1.106 11.269,1.704 18.232,3.027 M 16.654,21.771 C 8.921,15.867 -2.933,14.455 -15.361,12.955 -33.97,10.684 -55.083,8.16 -68.699,-9.546 c -15.987,-20.846 -11.775,-50.95 9.419,-67.332 21.275,-16.36 51.528,-12.726 67.587,8.116 13.616,17.706 10.662,38.726 8.048,57.327 l -0.233,1.662 C 14.473,2.015 13.09,13.182 16.654,21.771"
       style="fill:#44b7ec;fill-opacity:1;fill-rule:nonzero;stroke:none"
       transform="matrix(0.35277776,0,0,-0.35277776,69.686173,79.234749)"
       clip-path="url(#clipPath2)" />
    <path
       id="path3"
       d="M 0,0 C 1.321,-0.005 2.302,-0.845 3.688,-1.267 3.082,-0.392 2.545,0.297 2.102,1.042 0.705,3.389 -0.642,5.764 -2.034,8.113 c -1.856,3.132 -4.467,6.211 -6.32,7.487 -0.085,-0.876 0.325,-1.986 -0.667,-2.459 -1.045,-0.5 -1.738,0.5 -2.477,1.015 -1.523,1.061 -2.986,2.209 -4.483,3.329 0.065,0.022 0.13,0.071 0.177,0.057 0.712,-0.217 1.557,-0.831 2.105,-0.508 0.507,0.298 0.118,1.317 0.181,2.016 0.159,1.74 0.254,3.484 0.17,5.232 -0.025,0.503 0.06,1.13 -0.469,1.375 -0.489,0.228 -0.861,-0.273 -1.245,-0.528 -0.871,-0.579 -1.608,-1.382 -2.743,-1.554 1.247,1.501 2.534,2.946 4.103,4.105 0.591,0.437 0.947,0.058 1.217,-0.445 0.597,-1.116 0.696,-2.349 0.712,-3.569 0.018,-1.466 -0.089,-2.934 -0.142,-4.4 -0.026,-0.745 0.122,-1.414 0.885,-1.931 0.887,3.371 1.162,6.673 0.142,10.007 -0.085,0.276 -0.385,0.534 -0.132,0.866 -0.482,-0.098 -0.526,0.372 -0.717,0.601 -0.643,0.77 -1.391,1.139 -2.392,0.83 -2.136,-0.367 -3.993,-1.443 -5.925,-2.327 -0.381,0.098 -0.767,0.18 -1.142,0.296 -6.191,1.93 -12.333,1.763 -18.422,-0.445 -0.389,-0.141 -0.722,-0.191 -1.13,-0.022 -3.584,1.484 -7.391,1.671 -11.191,1.84 -1.887,0.084 -2.612,-0.662 -2.568,-2.563 0.066,-2.854 1.201,-5.428 2.173,-8.043 0.041,0.17 0.027,0.327 -0.004,0.48 -0.43,2.173 -0.912,4.338 -1.266,6.523 -0.125,0.767 -0.415,1.778 0.533,2.255 0.873,0.44 1.476,-0.303 2.043,-0.828 1.418,-1.309 2.475,-2.876 3.192,-4.67 l -0.006,-0.004 c -0.189,-0.197 -0.379,-0.393 -0.569,-0.589 -1.071,1.232 -1.864,2.738 -3.6,3.667 0.31,-2.306 0.603,-4.402 1.33,-6.418 -0.002,-0.002 -0.004,-0.004 -0.006,-0.007 -1.75,-2.959 -2.449,-6.144 -2.152,-9.573 0.123,-1.432 -0.113,-2.81 -0.919,-4.075 -0.771,-1.21 -2.737,-3.269 -3.158,-6.57 0.121,0.402 0.268,0.396 0.419,0.476 0.49,0.085 0.561,0.4 0.729,0.106 0.415,-0.73 0.682,-1.525 0.843,-2.335 0.794,-3.985 3.115,-6.941 6.224,-9.383 2.053,-1.613 4.194,-3.09 6.84,-4.317 -1.019,-0.09 -1.664,0.275 -2.329,0.459 -0.72,0.2 -1.461,0.414 -2.104,0.779 -1.009,0.573 -1.281,0.177 -1.318,-0.785 -0.054,-1.372 0.215,-2.704 0.721,-3.947 2.789,-6.848 3.869,-14.079 4.933,-21.324 0.625,-4.262 1.393,-8.501 2.814,-12.59 0.888,3.736 1.404,7.547 2.361,11.272 1.218,4.738 3.014,9.235 5.347,13.524 1.196,2.198 2.657,4.215 4.268,6.126 1.274,2.473 2.965,4.51 5.702,5.454 0.397,1.252 1.501,1.879 2.419,2.643 1.025,0.852 2.148,1.586 3.229,2.371 -3.151,-0.224 -6.231,-0.729 -9.075,-2.222 -0.183,-0.096 -0.387,-0.429 -0.66,-0.138 -0.003,-0.004 -0.006,-0.007 -0.009,-0.011 0.018,-0.045 0.036,-0.089 0.053,-0.133 -0.056,-0.002 -0.112,-0.004 -0.168,-0.006 0.039,0.046 0.077,0.092 0.115,0.139 l -0.015,0.036 0.03,-0.016 c 2.076,2.504 4.813,3.728 7.987,3.989 1.524,0.125 3.062,0.265 4.598,0.073 1.748,0.502 3.252,1.567 4.97,2.146 3.113,1.051 6.293,1.779 9.564,2.107 0.349,0.034 0.687,0.166 1.031,0.252 -0.335,0.387 -0.33,0.89 -0.416,1.345 C 1.67,-2.651 1.455,-2.091 0,0"
       style="fill:#ffffff;fill-opacity:1;fill-rule:nonzero;stroke:none"
       transform="matrix(0.35277776,0,0,-0.35277776,62.906213,78.317839)"
       clip-path="url(#clipPath4)" />
    <path
       id="path5"
       d="m 0,0 c -0.563,-0.366 -1.093,-0.786 -1.665,-1.138 -2.692,-1.653 -5.547,-2.195 -8.616,-1.216 -0.289,0.093 -0.829,0.181 -0.466,0.53 0.71,0.68 0.956,1.746 1.939,2.191 0.669,0.303 1.107,0.872 1.404,1.55 0.406,0.928 0.21,1.664 -0.755,2.021 -2.259,0.837 -4.542,0.946 -6.82,0.036 -0.988,-0.394 -1.276,-1.09 -0.957,-2.094 0.158,-0.496 0.379,-0.95 0.678,-1.372 0.77,-1.085 1.585,-2.126 3.053,-2.692 -1.667,-0.664 -1.942,-0.493 -3.814,2.157 0.019,-2.553 1.979,-4.219 4.439,-3.873 0.671,0.093 1.345,0.242 2.005,0.1 1.33,-0.287 2.663,-0.354 4.004,-0.179 2.442,0.319 4.477,1.478 6.241,3.142 0.258,0.243 0.672,0.598 0.284,1.005 C 0.638,0.5 0.288,0.187 0,0"
       style="fill:#000000;fill-opacity:1;fill-rule:nonzero;stroke:none"
       transform="matrix(0.35277776,0,0,-0.35277776,50.664753,80.450029)"
       clip-path="url(#clipPath6)" />
    <path
       id="path7"
       d="M 0,0 C 1.109,1.445 1.447,3.118 1.56,4.874 3.198,3.412 2.414,0.773 0,0 m -2.339,2.241 c -0.614,0.033 -0.9,0.432 -0.899,1.018 0.002,0.723 0.491,0.916 1.102,0.91 C -1.493,4.163 -1.252,3.768 -1.244,3.135 -1.291,2.489 -1.706,2.207 -2.339,2.241 M 3.577,4.814 C 4.546,4.485 5.292,3.696 6.356,3.608 2.833,7.559 -1.126,7.504 -5.421,4.503 -5.219,5.608 -4.551,6.164 -4.136,6.966 -4.351,6.927 -4.479,6.941 -4.553,6.885 -6.814,5.166 -7.594,2.8 -7.396,0.077 c 0.086,-1.202 0.966,-1.615 2.048,-0.894 0.76,0.506 1.294,0.373 2.025,0.056 3.355,-1.458 7.556,1.425 6.82,4.952 -0.039,0.187 -0.195,0.451 0.08,0.623"
       style="fill:#000000;fill-opacity:1;fill-rule:nonzero;stroke:none"
       transform="matrix(0.35277776,0,0,-0.35277776,53.432403,76.928959)"
       clip-path="url(#clipPath8)" />
    <path
       id="path9"
       d="m 0,0 c -0.419,0.049 -0.643,0.36 -0.691,0.695 -0.067,0.474 0.289,0.684 0.72,0.74 C 0.399,1.481 0.513,1.219 0.529,0.93 0.551,0.523 0.465,0.149 0,0 M -2.132,3.78 C -3.111,3.279 -3.705,1.929 -3.029,0.587 -2.494,1.354 -2.631,2.46 -1.704,3.088 -1.83,2.308 -2.008,1.615 -2.042,0.916 -2.113,-0.559 -1.875,-1.945 -0.488,-2.823 0.211,-3.266 0.75,-3.156 1.134,-2.354 1.942,-0.665 1.914,1.024 1.109,2.677 0.51,3.907 -0.96,4.379 -2.132,3.78"
       style="fill:#000000;fill-opacity:1;fill-rule:nonzero;stroke:none"
       transform="matrix(0.35277776,0,0,-0.35277776,45.592193,76.144349)"
       clip-path="url(#clipPath10)" />
    <path
       id="path11"
       d="M 0,0 C 2.52,0.386 5.032,0.828 7.595,0.919 7.385,0.496 6.948,0.54 6.595,0.442 2.412,-0.72 -1.489,-2.464 -4.971,-5.093 -5.184,-5.254 -5.458,-5.335 -5.703,-5.454 -4.428,-2.98 -2.737,-0.943 0,0"
       style="fill:#000000;fill-opacity:1;fill-rule:nonzero;stroke:none"
       transform="matrix(0.35277776,0,0,-0.35277776,55.336483,84.639589)"
       clip-path="url(#clipPath12)" />
    <path
       id="path13"
       d="m 0,0 c -0.844,-0.75 -1.944,-1.072 -2.855,-1.711 -3.152,-0.223 -6.232,-0.729 -9.075,-2.221 -0.189,-0.1 -0.399,-0.451 -0.684,-0.113 l 0.03,-0.017 c 2.075,2.504 4.812,3.729 7.987,3.989 C -3.074,0.052 -1.536,0.192 0,0"
       style="fill:#000000;fill-opacity:1;fill-rule:nonzero;stroke:none"
       transform="matrix(0.35277776,0,0,-0.35277776,58.336293,82.267119)"
       clip-path="url(#clipPath14)" />
    <path
       id="path15"
       d="M 0,0 C 0.022,-0.057 0.045,-0.113 0.068,-0.169 0.012,-0.171 -0.044,-0.173 -0.1,-0.175 -0.056,-0.123 -0.012,-0.07 0.031,-0.017 0.03,-0.017 0,0 0,0"
       style="fill:#000000;fill-opacity:1;fill-rule:nonzero;stroke:none"
       transform="matrix(0.35277776,0,0,-0.35277776,53.886283,83.694249)"
       clip-path="url(#clipPath16)" />
    <path
       id="path17"
       d="M 0,0 C -2.082,1.245 -3.71,2.49 -4.56,4.484 -4.814,5.083 -5.191,5.196 -5.766,5.17 -7.181,5.104 -8.597,5.056 -10.279,4.599 c 4.614,6.223 5.883,13.115 5.715,20.429 1.259,-4.502 3.114,-8.632 6.673,-11.824 1.602,2.77 4.299,3.882 7.205,2.925 C 7.755,15.344 6.41,14.416 5.35,13.094 4.845,12.464 4.81,12.143 5.489,11.582 7.072,10.278 7.913,8.521 8.084,6.427 7.704,6.961 7.324,7.495 6.946,8.031 6.409,8.792 5.71,9.375 4.903,9.819 3.404,10.645 2.77,10.444 1.96,8.977 1.305,7.79 0.528,6.68 -0.535,5.826 -1.03,5.428 -1.19,5.013 -1.147,4.4 -1.047,2.967 -0.603,1.621 0,0"
       style="fill:#000000;fill-opacity:1;fill-rule:nonzero;stroke:none"
       transform="matrix(0.35277776,0,0,-0.35277776,60.999373,103.0519)"
       clip-path="url(#clipPath18)" />
    <path
       id="path19"
       d="m 0,0 c 0.282,1.655 2.169,7.385 2.43,9.043 0.301,1.924 -0.158,2.71 -2.011,3.4 -0.729,0.272 -0.347,0.524 -0.048,0.8 1.41,1.307 3.043,2.288 4.743,3.15 5.362,2.717 11.112,4.138 17.011,5.062 3.018,0.473 6.056,0.74 9.102,0.929 0.42,0.026 0.844,0.004 1.287,-0.073 -2.242,-0.876 -4.527,-1.638 -6.576,-2.911 -2.054,-1.276 -3.871,-2.838 -5.345,-4.753 -0.134,0.101 -0.182,0.119 -0.186,0.142 -0.431,3.141 -0.716,3.33 -3.679,2.172 C 12.32,15.238 8.586,12.48 5.486,8.977 4.126,7.439 1.14,1.785 0,0"
       style="fill:#000000;fill-opacity:1;fill-rule:nonzero;stroke:none"
       transform="matrix(0.35277776,0,0,-0.35277776,52.008513,94.307919)"
       clip-path="url(#clipPath20)" />
    <path
       id="path21"
       d="m 0,0 c -3.613,-1.873 -7.402,-3.234 -11.428,-3.882 -1.257,-0.203 -2.531,-0.297 -3.718,0.351 -4.446,2.429 -8.37,7.846 -7.03,14.482 0.314,1.555 1.058,2.905 2.086,4.411 -1.457,-0.405 -2.613,-0.948 -3.185,-1.965 -1.009,-1.79 -2.625,-2.666 -4.315,-3.547 -0.521,-0.273 -0.994,-0.656 -1.445,-1.041 -1.827,-1.565 -2.15,-4.601 -0.666,-6.366 -0.06,1.422 -0.113,2.818 0.502,4.119 0.61,1.289 2.316,2.221 3.746,2.051 1.453,-0.174 1.257,-1.454 1.504,-2.376 0.656,-2.448 1.348,-4.875 2.612,-7.1 1.193,-2.102 2.403,-4.166 5.327,-6.866 0.828,-0.591 1.148,-0.944 1.148,-0.944 2.675,0.7 1.831,0.581 3.548,1.254 4.917,2.107 8.685,4.252 12.195,7.057 C 1.247,-0.07 1.707,0.133 1.825,0.654 1.792,0.698 1.759,0.741 1.724,0.783 1.148,0.523 0.56,0.29 0,0"
       style="fill:#000000;fill-opacity:1;fill-rule:nonzero;stroke:none"
       transform="matrix(0.35277776,0,0,-0.35277776,64.377293,106.90836)"
       clip-path="url(#clipPath22)" />
    <path
       id="path23"
       d="M 0,0 C 0.01,0.037 0.017,0.063 0.018,0.072 0.017,0.063 0.01,0.037 0,0"
       style="fill:#585858;fill-opacity:1;fill-rule:nonzero;stroke:none"
       transform="matrix(0.35277776,0,0,-0.35277776,47.871813,105.35117)"
       clip-path="url(#clipPath24)" />
    <path
       id="path25"
       d="M 0,0 C -0.082,-0.188 -0.152,-0.382 -0.209,-0.579 -0.153,-0.382 -0.081,-0.188 0,0"
       style="fill:#585858;fill-opacity:1;fill-rule:nonzero;stroke:none"
       transform="matrix(0.35277776,0,0,-0.35277776,53.712643,104.38551)"
       clip-path="url(#clipPath26)" />
    <path
       id="path27"
       d="M 0,0 C -0.133,0.018 -0.263,0.032 -0.394,0.049 -0.262,0.032 -0.134,0.018 0,0"
       style="fill:#585858;fill-opacity:1;fill-rule:nonzero;stroke:none"
       transform="matrix(0.35277776,0,0,-0.35277776,57.122423,109.77846)"
       clip-path="url(#clipPath28)" />
    <path
       id="path29"
       d="M 0,0 C 0.006,0.021 0.011,0.038 0.016,0.057 0.011,0.038 0.005,0.02 0,0"
       style="fill:#585858;fill-opacity:1;fill-rule:nonzero;stroke:none"
       transform="matrix(0.35277776,0,0,-0.35277776,47.837023,105.47242)"
       clip-path="url(#clipPath30)" />
    <path
       id="path31"
       d="M 0,0 C 0.008,0.027 0.014,0.048 0.021,0.07 0.014,0.048 0.008,0.027 0,0"
       style="fill:#585858;fill-opacity:1;fill-rule:nonzero;stroke:none"
       transform="matrix(0.35277776,0,0,-0.35277776,47.857523,105.40147)"
       clip-path="url(#clipPath32)" />
    <path
       id="path33"
       d="M 0,0 C -0.043,0.005 -0.083,0.008 -0.125,0.013 -0.083,0.008 -0.043,0.005 0,0"
       style="fill:#585858;fill-opacity:1;fill-rule:nonzero;stroke:none"
       transform="matrix(0.35277776,0,0,-0.35277776,56.823403,109.74195)"
       clip-path="url(#clipPath34)" />
    <path
       id="path35"
       d="M 0,0 C 0.062,-0.267 0.099,-0.548 0.145,-0.817 0.099,-0.548 0.062,-0.267 0,0"
       style="fill:#585858;fill-opacity:1;fill-rule:nonzero;stroke:none"
       transform="matrix(0.35277776,0,0,-0.35277776,55.850653,104.29248)"
       clip-path="url(#clipPath36)" />
    <path
       id="path37"
       d="M 0,0 C -0.139,0.002 -0.278,-0.003 -0.418,0 -0.179,-0.008 0.008,-0.014 0.015,-0.014 -0.089,0.08 -0.199,0.184 -0.312,0.291 -0.204,0.188 -0.1,0.091 0,0"
       style="fill:#585858;fill-opacity:1;fill-rule:nonzero;stroke:none"
       transform="matrix(0.35277776,0,0,-0.35277776,59.129023,109.9631)"
       clip-path="url(#clipPath38)" />
    <path
       id="path39"
       d="M 0,0 C -1.254,0.271 -2.479,0.543 -3.757,0.874 -2.34,0.507 -0.99,0.212 0.41,-0.088 c 0.023,0 0.05,-0.003 0.072,-0.004 H 0.479 C 0.319,-0.063 0.16,-0.029 0,0"
       style="fill:#585858;fill-opacity:1;fill-rule:nonzero;stroke:none"
       transform="matrix(0.35277776,0,0,-0.35277776,56.179653,109.67061)"
       clip-path="url(#clipPath40)" />
    <path
       id="path41"
       d="m 0,0 c -0.966,0.081 -2.179,0.263 -3.339,0.417 1.371,-0.184 2.818,-0.406 3.839,-0.454 0.013,0 0.642,-0.021 1.113,-0.035 C 1.525,-0.069 1.437,-0.066 1.341,-0.063 0.894,-0.051 0.447,-0.025 0,0"
       style="fill:#585858;fill-opacity:1;fill-rule:nonzero;stroke:none"
       transform="matrix(0.35277776,0,0,-0.35277776,58.385403,109.93693)"
       clip-path="url(#clipPath42)" />
    <path
       id="path43"
       d="M 0,0 C -0.439,0.048 -0.853,0.083 -1.217,0.098 -0.853,0.083 -0.438,0.047 0,0"
       style="fill:#585858;fill-opacity:1;fill-rule:nonzero;stroke:none"
       transform="matrix(0.35277776,0,0,-0.35277776,56.779303,109.73747)"
       clip-path="url(#clipPath44)" />
    <path
       id="path45"
       d="M 0,0 C -0.081,0.011 -0.161,0.021 -0.241,0.032 -0.162,0.021 -0.081,0.011 0,0"
       style="fill:#585858;fill-opacity:1;fill-rule:nonzero;stroke:none"
       transform="matrix(0.35277776,0,0,-0.35277776,57.207513,109.78982)"
       clip-path="url(#clipPath46)" />
    <path
       id="path47"
       d="M 0,0 C 0,0 -0.001,0 -0.002,0.001 -0.001,0 0,0 0,0"
       style="fill:#585858;fill-opacity:1;fill-rule:nonzero;stroke:none"
       transform="matrix(0.35277776,0,0,-0.35277776,54.854343,109.36229)"
       clip-path="url(#clipPath48)" />
    <path
       id="path49"
       d="M 0,0 H 0.001 C -0.026,0.001 -0.048,0.001 -0.076,0.002 -0.052,0.001 -0.023,0 0,0"
       style="fill:#585858;fill-opacity:1;fill-rule:nonzero;stroke:none"
       transform="matrix(0.35277776,0,0,-0.35277776,58.981243,109.9631)"
       clip-path="url(#clipPath50)" />
    <path
       id="path51"
       d="M 0,0 C -0.153,0.019 -0.306,0.038 -0.454,0.055 -0.306,0.038 -0.152,0.019 0,0"
       style="fill:#585858;fill-opacity:1;fill-rule:nonzero;stroke:none"
       transform="matrix(0.35277776,0,0,-0.35277776,56.983603,109.76124)"
       clip-path="url(#clipPath52)" />
    <path
       id="path53"
       d="M 0,0 C -0.104,-0.177 -0.198,-0.357 -0.278,-0.545 -0.197,-0.358 -0.104,-0.176 0,0"
       style="fill:#585858;fill-opacity:1;fill-rule:nonzero;stroke:none"
       transform="matrix(0.35277776,0,0,-0.35277776,53.810823,104.19328)"
       clip-path="url(#clipPath54)" />
    <path
       id="path55"
       d="M 0,0 Z"
       style="fill:#585858;fill-opacity:1;fill-rule:nonzero;stroke:none"
       transform="matrix(0.35277776,0,0,-0.35277776,55.850653,104.29248)"
       clip-path="url(#clipPath56)" />
    <path
       id="path57"
       d="M 0,0 C 0.007,0.025 0.015,0.054 0.02,0.072 0.015,0.054 0.007,0.025 0,0"
       style="fill:#585858;fill-opacity:1;fill-rule:nonzero;stroke:none"
       transform="matrix(0.35277776,0,0,-0.35277776,47.864753,105.37668)"
       clip-path="url(#clipPath58)" />
    <path
       id="path59"
       d="M 0,0 C 0.016,0.052 0.03,0.103 0.042,0.145 0.03,0.102 0.016,0.053 0,0"
       style="fill:#585858;fill-opacity:1;fill-rule:nonzero;stroke:none"
       transform="matrix(0.35277776,0,0,-0.35277776,47.842703,105.45245)"
       clip-path="url(#clipPath60)" />
    <path
       id="path61"
       d="M 0,0 V 0 C 0.024,0.081 0.046,0.156 0.066,0.224 0.046,0.155 0.024,0.082 0,0"
       style="fill:#585858;fill-opacity:1;fill-rule:nonzero;stroke:none"
       transform="matrix(0.35277776,0,0,-0.35277776,47.813603,105.55133)"
       clip-path="url(#clipPath62)" />
    <path
       id="path63"
       d="m 0,0 c 1.583,-1.304 2.424,-3.062 2.595,-5.155 -0.38,0.534 -0.76,1.068 -1.138,1.604 -0.537,0.761 -1.236,1.344 -2.043,1.788 -1.499,0.826 -2.134,0.625 -2.943,-0.842 -0.656,-1.187 -1.432,-2.297 -2.495,-3.151 -0.496,-0.398 -0.656,-0.813 -0.613,-1.426 0.101,-1.433 0.545,-2.779 1.148,-4.4 -2.082,1.245 -3.71,2.49 -4.56,4.484 -0.255,0.599 -0.632,0.712 -1.206,0.686 -1.415,-0.067 -2.831,-0.114 -4.514,-0.571 4.615,6.223 5.884,13.115 5.715,20.429 1.26,-4.502 3.115,-8.633 6.674,-11.824 1.602,2.77 4.299,3.882 7.205,2.925 C 2.266,3.762 0.921,2.834 -0.14,1.512 -0.645,0.882 -0.68,0.561 0,0 m -25.489,22.181 c -1.36,-1.537 -4.346,-7.192 -5.486,-8.977 0.282,1.655 2.169,7.385 2.43,9.043 0.301,1.924 -0.158,2.71 -2.011,3.4 -0.729,0.272 -0.347,0.524 -0.048,0.8 1.41,1.307 3.042,2.288 4.743,3.15 5.361,2.717 11.112,4.138 17.01,5.062 3.019,0.473 6.057,0.74 9.103,0.929 0.42,0.026 0.844,0.004 1.287,-0.073 -2.242,-0.876 -4.527,-1.638 -6.576,-2.911 -2.054,-1.276 -3.871,-2.838 -5.345,-4.752 -0.134,0.1 -0.182,0.118 -0.186,0.141 -0.431,3.141 -0.716,3.33 -3.68,2.172 -4.407,-1.723 -8.141,-4.48 -11.241,-7.984 m 45.29,-17.69 c -1.035,3.833 -2.96,7.245 -5.011,10.597 -2.021,3.304 -4.2,6.509 -6.087,9.895 -1.682,3.02 -2.767,6.205 -2.914,9.699 -0.043,1.034 0.281,1.289 1.25,1.242 1.584,-0.077 3.178,0.028 4.761,-0.064 1.118,-0.065 1.539,0.485 1.563,1.446 0.019,0.747 -0.06,1.505 -0.173,2.247 -0.752,4.977 -2.177,9.67 -5.773,13.426 C 7.224,53.181 7.01,53.365 7.039,53.682 6.376,54.208 5.713,54.735 4.909,55.373 4.802,54.245 5.018,53.16 4.136,52.42 3.672,52.031 3.146,51.801 2.526,51.841 2.184,51.754 1.845,51.623 1.496,51.588 c -3.271,-0.327 -6.45,-1.055 -9.563,-2.106 -1.719,-0.58 -3.223,-1.644 -4.971,-2.147 -0.844,-0.75 -1.944,-1.072 -2.856,-1.71 -1.081,-0.786 -2.204,-1.52 -3.23,-2.372 -0.917,-0.763 -2.021,-1.39 -2.418,-2.643 2.52,0.387 5.033,0.828 7.596,0.92 -0.21,-0.424 -0.648,-0.38 -1,-0.478 -4.183,-1.161 -8.084,-2.906 -11.566,-5.534 -0.213,-0.162 -0.487,-0.243 -0.732,-0.361 -1.61,-1.911 -3.071,-3.928 -4.267,-6.126 -2.334,-4.289 -4.13,-8.786 -5.347,-13.525 -0.958,-3.724 -1.474,-7.535 -2.362,-11.271 -0.463,-2.787 -0.926,-5.574 -1.389,-8.36 -0.15,-1.265 -0.299,-2.529 -0.448,-3.794 2.226,-0.32 4.46,-0.595 6.676,-0.978 1.24,-0.216 0.481,-1.272 0.632,-1.935 0.145,-0.636 -0.283,-0.791 -0.851,-0.789 -2.334,0.008 -4.669,-0.009 -7.003,-0.017 -0.685,-2.073 -0.772,-4.256 -1.08,-6.389 -10e-4,-0.009 -0.008,-0.035 -0.018,-0.073 -0.005,-0.018 -0.013,-0.046 -0.02,-0.072 -0.007,-0.022 -0.012,-0.043 -0.021,-0.07 -0.011,-0.042 -0.026,-0.093 -0.042,-0.145 -0.005,-0.018 -0.01,-0.036 -0.016,-0.056 -0.02,-0.068 -0.042,-0.143 -0.066,-0.224 0.877,-0.783 1.776,-1.55 2.72,-2.28 4.926,-3.787 10.336,-6.49 15.937,-8.169 0.441,-0.125 0.873,-0.242 1.299,-0.353 0,-10e-4 0.001,-10e-4 0.002,-10e-4 1.278,-0.331 2.502,-0.603 3.757,-0.874 0.159,-0.029 0.318,-0.063 0.479,-0.092 h 0.003 c 0.365,-0.014 0.778,-0.049 1.217,-0.097 0.043,-0.005 0.082,-0.008 0.125,-0.013 0.148,-0.016 0.302,-0.036 0.454,-0.055 0.131,-0.016 0.261,-0.031 0.394,-0.048 0.08,-0.011 0.161,-0.022 0.241,-0.033 1.16,-0.154 2.373,-0.336 3.339,-0.417 0.447,-0.025 0.894,-0.05 1.341,-0.063 0.096,-0.003 0.184,-0.006 0.272,-0.009 0.028,-0.001 0.05,-0.001 0.077,-0.002 0.14,-0.003 0.279,0.002 0.418,0 -0.1,0.091 -0.204,0.189 -0.313,0.291 -0.183,0.159 -0.448,0.373 -0.821,0.639 -2.923,2.7 -4.133,4.764 -5.326,6.866 -0.158,0.278 -0.307,0.56 -0.448,0.844 -0.988,1.988 -1.59,4.114 -2.164,6.257 -0.031,0.115 -0.055,0.236 -0.076,0.36 -0.046,0.27 -0.083,0.551 -0.145,0.817 -0.08,0.343 -0.203,0.661 -0.469,0.884 -0.19,0.158 -0.45,0.271 -0.814,0.315 -0.178,0.02 -0.362,0.025 -0.546,0.013 -0.924,-0.058 -1.888,-0.511 -2.559,-1.176 -0.133,-0.133 -0.256,-0.275 -0.363,-0.424 -0.108,-0.149 -0.202,-0.304 -0.278,-0.465 -0.077,-0.163 -0.143,-0.327 -0.2,-0.492 -0.173,-0.496 -0.262,-1.005 -0.304,-1.522 -0.029,-0.345 -0.035,-0.693 -0.031,-1.044 0.003,-0.351 0.018,-0.705 0.033,-1.06 -0.371,0.441 -0.629,0.962 -0.779,1.518 -0.225,0.836 -0.206,1.754 0.04,2.611 0.057,0.197 0.127,0.39 0.209,0.579 0.081,0.187 0.175,0.368 0.279,0.545 0.244,0.415 0.547,0.795 0.917,1.112 0.45,0.386 0.924,0.768 1.445,1.041 1.267,0.662 2.493,1.319 3.453,2.362 0.16,0.174 0.312,0.359 0.456,0.556 0.144,0.197 0.28,0.406 0.406,0.63 0.143,0.255 0.322,0.478 0.534,0.678 0.212,0.201 0.455,0.376 0.727,0.534 0.271,0.156 0.57,0.294 0.892,0.418 0.161,0.062 0.328,0.12 0.5,0.175 0.172,0.056 0.35,0.11 0.532,0.161 -0.514,-0.754 -0.957,-1.468 -1.311,-2.189 -0.353,-0.72 -0.618,-1.446 -0.775,-2.224 -0.642,-3.179 -0.068,-6.074 1.186,-8.499 0.116,-0.224 0.237,-0.444 0.364,-0.66 0.651,-1.104 1.437,-2.104 2.318,-2.968 0.292,-0.287 0.597,-0.554 0.907,-0.811 0.382,-0.318 0.777,-0.61 1.179,-0.881 0.355,-0.238 0.713,-0.464 1.076,-0.662 0.297,-0.162 0.599,-0.278 0.906,-0.357 0.917,-0.238 1.869,-0.147 2.812,0.005 1.006,0.162 1.998,0.369 2.976,0.617 1.467,0.372 2.902,0.837 4.309,1.384 1.408,0.548 2.787,1.179 4.143,1.881 0.56,0.29 1.148,0.524 1.724,0.784 0.083,0.129 0.236,0.258 0.33,0.115 0.112,-0.172 -0.118,-0.189 -0.231,-0.242 l 0.002,-0.002 c -0.118,-0.522 -0.578,-0.725 -0.944,-1.017 -0.218,-0.175 -0.456,-0.356 -0.707,-0.544 -3.007,-2.305 -6.249,-4.172 -10.253,-5.967 -0.345,-0.157 -0.687,-0.308 -1.027,-0.453 -0.071,-0.031 -0.136,-0.062 -0.209,-0.093 -0.077,-0.03 -0.142,-0.056 -0.209,-0.084 -0.127,-0.052 -0.255,-0.107 -0.38,-0.158 -0.954,-0.412 -0.662,-0.411 -2.958,-1.012 10.922,0 17.866,3.131 21.216,4.626 -0.733,1.205 -2.207,3.795 -2.903,4.816 -0.451,0.661 -0.363,0.952 0.273,1.354 2.356,1.488 4.327,3.428 6.361,5.322 2.555,2.379 4.083,5.352 5.26,8.475 1.35,3.585 1.378,7.351 0.37,11.085"
       style="fill:#156ca5;fill-opacity:1;fill-rule:nonzero;stroke:none"
       transform="matrix(0.35277776,0,0,-0.35277776,62.935843,98.966029)"
       clip-path="url(#clipPath64)" />
    <path
       id="path65"
       d="M 0,0 C 0.535,0.245 1.093,0.436 1.67,0.559 1.192,0.937 0.696,1.331 0.128,1.782 0.068,1.157 0.103,0.547 0,0"
       style="fill:#585858;fill-opacity:1;fill-rule:nonzero;stroke:none"
       transform="matrix(0.35277776,0,0,-0.35277776,64.622583,80.060389)"
       clip-path="url(#clipPath66)" />
    <path
       id="path67"
       d="M 0,0 C -0.022,0.054 -0.042,0.107 -0.065,0.161 -0.042,0.107 -0.022,0.054 0,0"
       style="fill:#000000;fill-opacity:1;fill-rule:nonzero;stroke:none"
       transform="matrix(0.35277776,0,0,-0.35277776,46.291573,90.733959)"
       clip-path="url(#clipPath68)" />
    <path
       id="path69"
       d="M 0,0 C -0.037,0.101 -0.072,0.202 -0.111,0.301 -0.073,0.202 -0.037,0.101 0,0"
       style="fill:#000000;fill-opacity:1;fill-rule:nonzero;stroke:none"
       transform="matrix(0.35277776,0,0,-0.35277776,46.468283,91.183539)"
       clip-path="url(#clipPath70)" />
    <path
       id="path71"
       d="M 0,0 C -0.011,0.023 -0.021,0.047 -0.031,0.07 -0.021,0.047 -0.011,0.023 0,0"
       style="fill:#000000;fill-opacity:1;fill-rule:nonzero;stroke:none"
       transform="matrix(0.35277776,0,0,-0.35277776,46.107423,90.310209)"
       clip-path="url(#clipPath72)" />
    <path
       id="path73"
       d="M 0,0 C 0,0.001 -0.001,0.002 -0.001,0.003 -0.001,0.002 0,0.001 0,0"
       style="fill:#000000;fill-opacity:1;fill-rule:nonzero;stroke:none"
       transform="matrix(0.35277776,0,0,-0.35277776,45.912273,89.902999)"
       clip-path="url(#clipPath74)" />
    <path
       id="path75"
       d="M 0,0 C -0.061,0.18 -0.119,0.36 -0.182,0.539 -0.119,0.36 -0.061,0.18 0,0"
       style="fill:#000000;fill-opacity:1;fill-rule:nonzero;stroke:none"
       transform="matrix(0.35277776,0,0,-0.35277776,46.643293,91.675839)"
       clip-path="url(#clipPath76)" />
    <path
       id="path77"
       d="M 0,0 C 0.015,0.061 0.029,0.119 0.043,0.18 0.029,0.12 0.015,0.061 0,0"
       style="fill:#000000;fill-opacity:1;fill-rule:nonzero;stroke:none"
       transform="matrix(0.35277776,0,0,-0.35277776,46.552523,100.86359)"
       clip-path="url(#clipPath78)" />
    <path
       id="path79"
       d="M 0,0 C 0.792,-0.566 1.516,-1.21 2.2,-1.896 1.517,-1.209 0.792,-0.566 0,0"
       style="fill:#000000;fill-opacity:1;fill-rule:nonzero;stroke:none"
       transform="matrix(0.35277776,0,0,-0.35277776,43.502763,85.863479)"
       clip-path="url(#clipPath80)" />
    <path
       id="path81"
       d="M 0,0 C 0.016,0.06 0.032,0.12 0.047,0.181 0.032,0.12 0.016,0.06 0,0"
       style="fill:#000000;fill-opacity:1;fill-rule:nonzero;stroke:none"
       transform="matrix(0.35277776,0,0,-0.35277776,46.413853,101.40584)"
       clip-path="url(#clipPath82)" />
    <path
       id="path83"
       d="M 0,0 C 0.009,0.033 0.019,0.066 0.029,0.1 0.019,0.066 0.009,0.033 0,0"
       style="fill:#000000;fill-opacity:1;fill-rule:nonzero;stroke:none"
       transform="matrix(0.35277776,0,0,-0.35277776,46.125173,102.44763)"
       clip-path="url(#clipPath84)" />
    <path
       id="path85"
       d="M 0,0 C 0.018,0.085 0.035,0.169 0.052,0.253 0.035,0.169 0.018,0.085 0,0"
       style="fill:#000000;fill-opacity:1;fill-rule:nonzero;stroke:none"
       transform="matrix(0.35277776,0,0,-0.35277776,46.777663,99.883779)"
       clip-path="url(#clipPath86)" />
    <path
       id="path87"
       d="M 0,0 C 0.014,0.06 0.028,0.119 0.042,0.178 0.028,0.119 0.014,0.059 0,0"
       style="fill:#000000;fill-opacity:1;fill-rule:nonzero;stroke:none"
       transform="matrix(0.35277776,0,0,-0.35277776,46.669153,100.37542)"
       clip-path="url(#clipPath88)" />
    <path
       id="path89"
       d="M 0,0 C -0.119,0.404 -0.243,0.806 -0.372,1.204 -0.243,0.806 -0.119,0.404 0,0"
       style="fill:#000000;fill-opacity:1;fill-rule:nonzero;stroke:none"
       transform="matrix(0.35277776,0,0,-0.35277776,46.850343,92.326649)"
       clip-path="url(#clipPath90)" />
    <path
       id="path91"
       d="M 0,0 C 0.305,-0.338 0.605,-0.681 0.903,-1.026 0.605,-0.681 0.304,-0.338 0,0"
       style="fill:#000000;fill-opacity:1;fill-rule:nonzero;stroke:none"
       transform="matrix(0.35277776,0,0,-0.35277776,44.668053,86.944529)"
       clip-path="url(#clipPath92)" />
    <path
       id="path93"
       d="M 0,0 C -0.12,0.231 -0.241,0.461 -0.361,0.692 -0.241,0.461 -0.12,0.231 0,0"
       style="fill:#000000;fill-opacity:1;fill-rule:nonzero;stroke:none"
       transform="matrix(0.35277776,0,0,-0.35277776,44.917153,86.262049)"
       clip-path="url(#clipPath94)" />
    <path
       id="path95"
       d="M 0,0 C -0.083,0.172 -0.165,0.344 -0.25,0.516 -0.165,0.344 -0.083,0.172 0,0"
       style="fill:#000000;fill-opacity:1;fill-rule:nonzero;stroke:none"
       transform="matrix(0.35277776,0,0,-0.35277776,45.340873,87.112839)"
       clip-path="url(#clipPath96)" />
    <path
       id="path97"
       d="M 0,0 C -0.445,0.847 -0.889,1.693 -1.323,2.545 -0.889,1.693 -0.445,0.847 0,0"
       style="fill:#000000;fill-opacity:1;fill-rule:nonzero;stroke:none"
       transform="matrix(0.35277776,0,0,-0.35277776,44.559723,85.577339)"
       clip-path="url(#clipPath98)" />
    <path
       id="path99"
       d="M 0,0 C 0.329,-0.331 0.648,-0.671 0.962,-1.018 0.649,-0.671 0.328,-0.331 0,0"
       style="fill:#000000;fill-opacity:1;fill-rule:nonzero;stroke:none"
       transform="matrix(0.35277776,0,0,-0.35277776,44.293933,86.546979)"
       clip-path="url(#clipPath100)" />
    <path
       id="path101"
       d="M 0,0 C 0.095,0.415 0.183,0.82 0.266,1.216 0.183,0.82 0.095,0.415 0,0"
       style="fill:#000000;fill-opacity:1;fill-rule:nonzero;stroke:none"
       transform="matrix(0.35277776,0,0,-0.35277776,46.683793,100.31273)"
       clip-path="url(#clipPath102)" />
    <path
       id="path103"
       d="M 0,0 C 0.273,0.943 0.539,1.902 0.79,2.854 0.539,1.902 0.273,0.942 0,0"
       style="fill:#000000;fill-opacity:1;fill-rule:nonzero;stroke:none"
       transform="matrix(0.35277776,0,0,-0.35277776,46.135333,102.4125)"
       clip-path="url(#clipPath104)" />
    <path
       id="path105"
       d="M 0,0 C 0.083,0.399 0.16,0.79 0.228,1.162 0.16,0.79 0.083,0.399 0,0"
       style="fill:#000000;fill-opacity:1;fill-rule:nonzero;stroke:none"
       transform="matrix(0.35277776,0,0,-0.35277776,46.796083,99.794569)"
       clip-path="url(#clipPath106)" />
    <path
       id="path107"
       d="M 0,0 C 0,0 0,-0.001 0,-0.001 0,-0.001 0,0 0,0"
       style="fill:#000000;fill-opacity:1;fill-rule:nonzero;stroke:none"
       transform="matrix(0.35277776,0,0,-0.35277776,44.092713,84.679029)"
       clip-path="url(#clipPath108)" />
    <path
       id="path109"
       d="M 0,0 V 0 C 3.47,-2.511 5.924,-5.693 7.74,-9.292 5.927,-5.692 3.47,-2.511 0,0"
       style="fill:#000000;fill-opacity:1;fill-rule:nonzero;stroke:none"
       transform="matrix(0.35277776,0,0,-0.35277776,43.181313,86.623959)"
       clip-path="url(#clipPath110)" />
    <path
       id="path111"
       d="M 0,0 C 0.119,0.456 0.235,0.909 0.346,1.356 0.235,0.909 0.119,0.456 0,0"
       style="fill:#000000;fill-opacity:1;fill-rule:nonzero;stroke:none"
       transform="matrix(0.35277776,0,0,-0.35277776,46.430573,101.3421)"
       clip-path="url(#clipPath112)" />
    <path
       id="path113"
       d="M 0,0 C 0.291,0.91 0.583,1.868 0.868,2.848 0.583,1.869 0.291,0.909 0,0"
       style="fill:#000000;fill-opacity:1;fill-rule:nonzero;stroke:none"
       transform="matrix(0.35277776,0,0,-0.35277776,45.819063,103.45224)"
       clip-path="url(#clipPath114)" />
    <path
       id="path115"
       d="M 0,0 C 0.1,0.407 0.196,0.809 0.287,1.204 0.196,0.81 0.1,0.407 0,0"
       style="fill:#000000;fill-opacity:1;fill-rule:nonzero;stroke:none"
       transform="matrix(0.35277776,0,0,-0.35277776,46.567873,100.80019)"
       clip-path="url(#clipPath116)" />
    <path
       id="path117"
       d="M 0,0 C -0.217,0.417 -0.434,0.833 -0.652,1.249 -0.434,0.833 -0.217,0.417 0,0"
       style="fill:#000000;fill-opacity:1;fill-rule:nonzero;stroke:none"
       transform="matrix(0.35277776,0,0,-0.35277776,44.789833,86.017989)"
       clip-path="url(#clipPath118)" />
    <path
       id="path119"
       d="M 0,0 C -0.168,0.366 -0.342,0.727 -0.522,1.084 -0.342,0.727 -0.168,0.365 0,0"
       style="fill:#000000;fill-opacity:1;fill-rule:nonzero;stroke:none"
       transform="matrix(0.35277776,0,0,-0.35277776,46.096383,90.285409)"
       clip-path="url(#clipPath120)" />
    <path
       id="path121"
       d="M 0,0 C -0.147,0.351 -0.3,0.696 -0.457,1.04 -0.3,0.696 -0.147,0.35 0,0"
       style="fill:#000000;fill-opacity:1;fill-rule:nonzero;stroke:none"
       transform="matrix(0.35277776,0,0,-0.35277776,46.268643,90.677129)"
       clip-path="url(#clipPath122)" />
    <path
       id="path123"
       d="M 0,0 C -0.298,0.691 -0.616,1.372 -0.941,2.049 -0.616,1.372 -0.298,0.691 0,0"
       style="fill:#000000;fill-opacity:1;fill-rule:nonzero;stroke:none"
       transform="matrix(0.35277776,0,0,-0.35277776,45.672983,87.835789)"
       clip-path="url(#clipPath124)" />
    <path
       id="path125"
       d="M 0,0 C 0.033,-0.037 0.065,-0.073 0.098,-0.109 0.065,-0.073 0.033,-0.037 0,0"
       style="fill:#000000;fill-opacity:1;fill-rule:nonzero;stroke:none"
       transform="matrix(0.35277776,0,0,-0.35277776,44.633453,86.905939)"
       clip-path="url(#clipPath126)" />
    <path
       id="path127"
       d="M 0,0 Z"
       style="fill:#000000;fill-opacity:1;fill-rule:nonzero;stroke:none"
       transform="matrix(0.35277776,0,0,-0.35277776,43.502583,85.863299)"
       clip-path="url(#clipPath128)" />
    <path
       id="path129"
       d="M 0,0 C -0.311,0.635 -0.627,1.268 -0.952,1.896 -0.627,1.268 -0.311,0.635 0,0"
       style="fill:#000000;fill-opacity:1;fill-rule:nonzero;stroke:none"
       transform="matrix(0.35277776,0,0,-0.35277776,45.252863,86.930909)"
       clip-path="url(#clipPath130)" />
    <path
       id="path131"
       d="M 0,0 C 0.014,-0.014 0.028,-0.028 0.042,-0.042 0.028,-0.028 0.014,-0.014 0,0"
       style="fill:#000000;fill-opacity:1;fill-rule:nonzero;stroke:none"
       transform="matrix(0.35277776,0,0,-0.35277776,44.278943,86.532169)"
       clip-path="url(#clipPath132)" />
    <path
       id="path133"
       d="M 0,0 C -0.069,0.215 -0.144,0.427 -0.215,0.641 -0.144,0.427 -0.069,0.215 0,0"
       style="fill:#000000;fill-opacity:1;fill-rule:nonzero;stroke:none"
       transform="matrix(0.35277776,0,0,-0.35277776,46.719283,91.901869)"
       clip-path="url(#clipPath134)" />
    <path
       id="path135"
       d="M 0,0 C -0.101,0.288 -0.208,0.572 -0.314,0.856 -0.208,0.572 -0.101,0.288 0,0"
       style="fill:#000000;fill-opacity:1;fill-rule:nonzero;stroke:none"
       transform="matrix(0.35277776,0,0,-0.35277776,46.579233,91.485699)"
       clip-path="url(#clipPath136)" />
    <path
       id="path137"
       d="M 0,0 C -0.125,0.328 -0.257,0.651 -0.39,0.974 -0.257,0.651 -0.125,0.328 0,0"
       style="fill:#000000;fill-opacity:1;fill-rule:nonzero;stroke:none"
       transform="matrix(0.35277776,0,0,-0.35277776,46.429193,91.077459)"
       clip-path="url(#clipPath138)" />
    <path
       id="path139"
       d="M 0,0 C -0.077,0.067 -0.149,0.141 -0.225,0.209 -0.43,0.396 -0.63,0.591 -0.824,0.792 -0.825,0.793 -0.825,0.793 -0.826,0.794 -1.019,0.994 -1.205,1.2 -1.386,1.414 -1.393,1.422 -1.399,1.431 -1.407,1.44 -1.58,1.645 -1.748,1.857 -1.909,2.075 -1.928,2.1 -1.945,2.127 -1.964,2.152 -2.112,2.356 -2.258,2.565 -2.396,2.78 -2.428,2.83 -2.457,2.882 -2.489,2.933 -2.61,3.128 -2.73,3.325 -2.844,3.529 -2.892,3.616 -2.935,3.707 -2.98,3.795 -3.072,3.97 -3.164,4.144 -3.249,4.325 -3.315,4.467 -3.375,4.615 -3.438,4.761 -3.495,4.897 -3.557,5.03 -3.61,5.168 -3.724,5.459 -3.828,5.756 -3.924,6.061 V 5.098 c -0.391,0.699 -0.765,1.42 -1.135,2.149 -0.031,0.063 -0.063,0.125 -0.094,0.188 -0.277,0.548 -0.548,1.104 -0.821,1.659 -0.845,1.728 -1.697,3.468 -2.663,5.111 v 0.002 c -1.835,3.123 -4.091,5.889 -7.564,7.501 0,2.943 0.447,6.514 -0.302,9.451 -0.476,1.869 -1.436,3.483 -3.309,4.512 -1.396,0.762 -2.86,0.051 -4.285,-0.686 -1.277,-0.66 -2.522,-1.34 -3.659,-0.999 -5.537,1.445 -11.556,1.926 -16.852,0.241 -3.37,-1.204 -6.259,1.204 -9.629,1.444 -3.611,0.482 -8.185,1.445 -10.352,-1.203 -1.685,-2.167 0.722,-5.537 1.444,-8.667 1.167,-4.899 0.978,-9.573 1.185,-14.459 -0.256,-0.197 -0.52,-0.388 -0.793,-0.571 -0.05,-0.173 -0.128,-0.356 -0.238,-0.557 -0.724,-1.319 -4.125,-7.259 -2.251,-7.856 -0.469,-1.855 -0.536,-3.754 -0.21,-5.676 0.447,-2.635 1.473,-5.093 2.58,-7.508 0.436,-0.95 0.899,-1.888 1.374,-2.82 0,0 10e-4,0 10e-4,0 0.434,-0.853 0.878,-1.699 1.323,-2.546 0.218,-0.416 0.435,-0.832 0.653,-1.249 0.12,-0.23 0.241,-0.461 0.36,-0.692 0.325,-0.628 0.641,-1.261 0.952,-1.896 0.084,-0.171 0.167,-0.343 0.25,-0.515 0.325,-0.678 0.643,-1.359 0.941,-2.05 0.17,-0.394 0.47,-0.769 0.332,-1.435 -0.827,1.073 -1.508,2.043 -2.278,2.936 -0.297,0.345 -0.598,0.687 -0.903,1.026 -0.032,0.036 -0.065,0.072 -0.098,0.109 -0.314,0.346 -0.634,0.687 -0.962,1.018 -0.014,0.014 -0.029,0.027 -0.043,0.042 -0.684,0.685 -1.407,1.329 -2.2,1.895 0,0.001 0,0.001 0,0.001 -0.306,0.218 -0.619,0.429 -0.947,0.623 -0.337,0.198 -0.87,0.601 -1.001,-0.124 -0.151,-0.839 -0.259,-1.742 0.639,-2.363 0.136,-0.095 0.264,-0.196 0.398,-0.293 3.47,-2.51 5.927,-5.692 7.74,-9.292 0,-0.001 10e-4,-0.002 10e-4,-0.003 0.18,-0.357 0.354,-0.717 0.522,-1.084 0.011,-0.022 0.021,-0.046 0.031,-0.07 0.158,-0.344 0.31,-0.689 0.457,-1.04 0.023,-0.054 0.043,-0.107 0.065,-0.161 0.134,-0.322 0.265,-0.646 0.39,-0.974 0.039,-0.098 0.074,-0.2 0.111,-0.3 0.107,-0.285 0.214,-0.569 0.315,-0.857 0.062,-0.179 0.121,-0.359 0.181,-0.539 0.072,-0.214 0.146,-0.426 0.216,-0.641 0.128,-0.398 0.252,-0.799 0.371,-1.204 1.97,-6.654 1.288,-13.353 0.075,-20.007 -0.068,-0.372 -0.146,-0.762 -0.228,-1.162 -0.018,-0.084 -0.035,-0.168 -0.053,-0.253 -0.083,-0.395 -0.171,-0.8 -0.266,-1.215 -0.014,-0.059 -0.028,-0.119 -0.041,-0.178 -0.092,-0.396 -0.187,-0.797 -0.287,-1.204 -0.015,-0.061 -0.029,-0.119 -0.044,-0.18 -0.111,-0.447 -0.226,-0.9 -0.346,-1.356 -0.015,-0.061 -0.031,-0.121 -0.047,-0.181 -0.25,-0.951 -0.516,-1.91 -0.79,-2.854 -0.009,-0.033 -0.019,-0.066 -0.028,-0.099 -0.285,-0.98 -0.577,-1.938 -0.868,-2.848 v -10e-4 c 1.689,-2.106 3.576,-4.094 5.649,-5.944 l 0.188,0.635 c 0.308,2.133 0.395,4.316 1.08,6.389 -0.007,1.268 0.297,2.49 0.545,3.719 l 0.449,3.794 c 0.463,2.786 0.926,5.573 1.39,8.36 -1.422,4.088 -2.19,8.328 -2.816,12.59 -1.063,7.245 -2.143,14.476 -4.932,21.323 -0.506,1.244 -0.775,2.576 -0.721,3.948 0.038,0.962 0.31,1.358 1.318,0.785 0.642,-0.365 1.384,-0.579 2.104,-0.779 0.665,-0.184 1.31,-0.549 2.329,-0.459 -2.646,1.227 -4.787,2.704 -6.84,4.317 -3.108,2.442 -5.43,5.398 -6.223,9.383 -0.162,0.809 -0.428,1.605 -0.844,2.335 -0.167,0.294 -0.239,-0.02 -0.728,-0.105 -0.152,-0.08 -0.299,-0.075 -0.42,-0.477 0.422,3.301 2.387,5.36 3.159,6.57 0.806,1.265 1.042,2.643 0.917,4.075 -0.296,3.429 0.403,6.614 2.154,9.573 -0.729,2.018 -1.023,4.117 -1.333,6.426 1.738,-0.931 2.531,-2.44 3.605,-3.673 0.19,0.198 0.382,0.395 0.573,0.594 -0.718,1.795 -1.776,3.364 -3.195,4.675 -0.567,0.524 -1.17,1.267 -2.043,0.828 -0.948,-0.478 -0.657,-1.489 -0.533,-2.255 0.354,-2.186 0.836,-4.35 1.266,-6.524 0.031,-0.153 0.045,-0.309 0.004,-0.48 -0.972,2.615 -2.107,5.189 -2.173,8.044 -0.044,1.9 0.681,2.647 2.568,2.563 3.8,-0.169 7.607,-0.357 11.191,-1.841 0.408,-0.169 0.741,-0.119 1.13,0.022 6.089,2.208 12.231,2.375 18.422,0.446 0.377,-0.118 0.765,-0.2 1.148,-0.298 1.933,0.885 3.79,1.961 5.927,2.328 1.001,0.308 1.749,-0.06 2.392,-0.83 0.191,-0.23 0.235,-0.699 0.717,-0.601 -0.254,-0.332 0.048,-0.591 0.132,-0.866 1.02,-3.334 0.746,-6.636 -0.142,-10.007 -0.763,0.516 -0.911,1.186 -0.884,1.93 0.052,1.467 0.159,2.934 0.141,4.4 -0.015,1.221 -0.114,2.454 -0.712,3.57 -0.27,0.503 -0.626,0.881 -1.216,0.445 -1.57,-1.16 -2.856,-2.604 -4.104,-4.106 1.135,0.173 1.873,0.976 2.743,1.555 0.384,0.255 0.756,0.756 1.245,0.528 0.529,-0.246 0.444,-0.873 0.469,-1.375 0.085,-1.748 -0.012,-3.493 -0.169,-5.231 -0.064,-0.7 0.325,-1.719 -0.182,-2.017 -0.548,-0.323 -1.392,0.291 -2.105,0.507 -0.046,0.014 -0.111,-0.034 -0.177,-0.056 1.497,-1.12 2.96,-2.268 4.483,-3.329 0.74,-0.516 1.431,-1.516 2.477,-1.016 0.992,0.474 0.582,1.583 0.666,2.46 1.577,-1.086 3.699,-3.479 5.441,-6.096 0.305,-0.46 0.603,-0.924 0.881,-1.391 1.391,-2.349 2.739,-4.724 4.134,-7.07 0.445,-0.746 0.982,-1.435 1.586,-2.31 -1.384,0.422 -2.365,1.262 -3.686,1.267 1.454,-2.091 1.669,-2.652 2.185,-5.344 0.088,-0.456 0.082,-0.959 0.416,-1.345 0.621,-0.04 1.146,0.19 1.61,0.579 0.393,0.33 0.562,0.731 0.645,1.171 0.079,0.422 0.079,0.88 0.1,1.355 0.007,0.141 0.015,0.283 0.028,0.427 0.52,-0.413 0.979,-0.776 1.418,-1.126 0.04,-0.032 0.084,-0.066 0.124,-0.098 0.198,-0.157 0.394,-0.312 0.588,-0.467 C -0.697,-0.305 -0.349,-0.151 0,0"
       style="fill:#000000;fill-opacity:1;fill-rule:nonzero;stroke:none"
       transform="matrix(0.35277776,0,0,-0.35277776,65.787703,79.865199)"
       clip-path="url(#clipPath140)" />
    <path
       id="path141"
       d="M 0,0 C -0.461,-0.752 -0.801,-1.082 -1.542,-0.236 -1.917,0.19 -2.412,0.496 -2.946,0.562 -2.235,-2.904 -1.151,-6.308 0.312,-9.575 1.255,-4.639 2.128,0.639 2.65,5.299 1.941,3.437 1.036,1.688 0,0"
       style="fill:#9a9a9a;fill-opacity:1;fill-rule:nonzero;stroke:none"
       transform="matrix(0.35277776,0,0,-0.35277776,43.420913,96.335019)"
       clip-path="url(#clipPath142)" />
    <path
       id="path143"
       d="M 0,0 C 1.431,1.86 3.031,2.416 5.28,1.318 3.568,4.343 1.434,6.403 -1.159,7.981 -1.271,8.049 -1.383,8.118 -1.497,8.185 -1.543,8.211 -1.595,8.229 -1.649,8.241 -2.074,6.759 -2.424,5.263 -2.699,3.755 -2.397,4.711 -2.07,5.662 -1.708,6.607 -0.701,4.613 -0.202,2.438 0,0"
       style="fill:#000000;fill-opacity:1;fill-rule:nonzero;stroke:none"
       transform="matrix(0.35277776,0,0,-0.35277776,43.258323,91.020599)"
       clip-path="url(#clipPath144)" />
    <path
       id="path145"
       d="m 0,0 c -0.059,0.197 -0.119,0.395 -0.179,0.592 -0.02,0.063 -0.04,0.126 -0.06,0.189 C -0.28,0.914 -0.321,1.046 -0.364,1.178 -0.389,1.257 -0.416,1.336 -0.441,1.415 -0.479,1.529 -0.516,1.645 -0.555,1.759 -0.584,1.846 -0.614,1.933 -0.643,2.02 -0.679,2.124 -0.715,2.229 -0.752,2.334 -0.784,2.427 -0.817,2.519 -0.85,2.61 -0.885,2.708 -0.919,2.806 -0.955,2.903 -0.991,3 -1.026,3.097 -1.062,3.193 -1.096,3.284 -1.13,3.375 -1.165,3.466 c -0.039,0.1 -0.077,0.201 -0.117,0.302 -0.033,0.085 -0.066,0.17 -0.1,0.253 -0.041,0.106 -0.084,0.21 -0.126,0.315 -0.032,0.077 -0.064,0.154 -0.096,0.231 -0.046,0.111 -0.092,0.22 -0.138,0.33 -0.03,0.069 -0.06,0.138 -0.09,0.207 C -1.882,5.22 -1.933,5.336 -1.984,5.451 -2.01,5.509 -2.037,5.566 -2.063,5.623 -2.119,5.749 -2.177,5.875 -2.235,6 -2.252,6.037 -2.27,6.073 -2.287,6.109 -2.76,7.112 -3.279,8.085 -3.852,9.022 c -0.006,0.01 -0.011,0.019 -0.017,0.029 -0.091,0.148 -0.184,0.296 -0.278,0.442 -0.01,0.017 -0.02,0.032 -0.03,0.049 -0.093,0.144 -0.186,0.287 -0.281,0.428 -0.013,0.018 -0.024,0.036 -0.037,0.054 -0.095,0.142 -0.192,0.283 -0.289,0.422 -0.012,0.017 -0.024,0.034 -0.036,0.051 -0.099,0.142 -0.201,0.282 -0.303,0.421 l -0.029,0.04 c -0.106,0.144 -0.213,0.286 -0.323,0.428 -0.004,0.006 -0.009,0.012 -0.014,0.018 -1.162,1.504 -2.504,2.889 -4.067,4.129 -0.191,0.151 -0.385,0.3 -0.582,0.448 -0.013,0.01 -0.026,0.019 -0.039,0.029 -0.073,0.054 -0.148,0.106 -0.222,0.159 -0.133,0.097 -0.265,0.194 -0.4,0.289 -0.255,0.176 -0.427,0.375 -0.541,0.589 -0.29,0.54 -0.206,1.173 -0.098,1.773 0.049,0.272 0.155,0.386 0.286,0.41 0.021,0.005 0.044,0.006 0.067,0.006 0.046,-0.001 0.094,-0.01 0.144,-0.026 0.024,-0.007 0.049,-0.016 0.074,-0.026 0.05,-0.021 0.1,-0.046 0.15,-0.074 0.099,-0.054 0.196,-0.116 0.28,-0.166 0.16,-0.094 0.317,-0.193 0.471,-0.293 0.038,-0.025 0.076,-0.05 0.113,-0.075 0.123,-0.082 0.245,-0.166 0.364,-0.252 0.01,-0.007 0.022,-0.014 0.032,-0.022 0.018,-0.012 0.036,-0.025 0.054,-0.038 0.321,-0.233 0.631,-0.479 0.93,-0.735 0.865,-0.737 1.653,-1.559 2.411,-2.41 0.021,-0.022 0.041,-0.045 0.061,-0.068 0.098,-0.11 0.195,-0.22 0.293,-0.331 0.028,-0.033 0.057,-0.065 0.085,-0.098 0.106,-0.122 0.212,-0.244 0.317,-0.366 0.008,-0.008 0.015,-0.017 0.022,-0.026 0.193,-0.223 0.38,-0.451 0.565,-0.684 0.463,-0.583 0.913,-1.199 1.41,-1.854 0.099,-0.13 0.201,-0.263 0.304,-0.398 0.137,0.666 -0.163,1.042 -0.333,1.436 -10e-4,0.004 -0.003,0.007 -0.005,0.011 -0.122,0.283 -0.247,0.565 -0.375,0.845 -0.042,0.093 -0.085,0.185 -0.127,0.278 -0.09,0.195 -0.18,0.388 -0.271,0.581 -0.049,0.103 -0.098,0.205 -0.147,0.308 -0.091,0.189 -0.182,0.378 -0.275,0.567 -0.046,0.094 -0.092,0.188 -0.138,0.282 -0.116,0.234 -0.233,0.467 -0.35,0.699 -0.023,0.045 -0.045,0.089 -0.067,0.133 -0.139,0.274 -0.28,0.547 -0.421,0.82 -0.055,0.108 -0.111,0.216 -0.167,0.323 -0.09,0.173 -0.18,0.346 -0.27,0.519 -0.07,0.135 -0.141,0.27 -0.212,0.405 -0.075,0.144 -0.15,0.287 -0.226,0.43 -0.365,0.695 -0.73,1.39 -1.09,2.088 -0.038,0.073 -0.076,0.146 -0.113,0.218 -0.075,0.147 -0.15,0.295 -0.225,0.442 -0.09,0.176 -0.181,0.353 -0.27,0.53 -0.008,0.016 -0.017,0.032 -0.024,0.048 -0.165,0.327 -0.326,0.656 -0.486,0.985 -0.039,0.081 -0.078,0.161 -0.117,0.242 -0.162,0.337 -0.322,0.675 -0.478,1.014 -0.113,0.248 -0.225,0.496 -0.337,0.745 -0.013,0.029 -0.026,0.058 -0.039,0.087 -0.109,0.244 -0.216,0.489 -0.321,0.734 -0.013,0.03 -0.027,0.06 -0.039,0.09 -0.107,0.251 -0.213,0.502 -0.315,0.754 -0.007,0.019 -0.015,0.038 -0.023,0.056 -0.326,0.807 -0.625,1.622 -0.88,2.453 -0.002,0.005 -0.004,0.011 -0.006,0.016 -0.084,0.275 -0.163,0.55 -0.237,0.828 -0.003,0.01 -0.005,0.02 -0.007,0.031 -0.15,0.563 -0.277,1.134 -0.375,1.713 -0.327,1.923 -0.26,3.822 0.209,5.677 -0.574,0.182 -0.651,0.869 -0.464,1.769 -7.908,-1.172 -16.015,-12.983 -16.015,-12.983 0,0 -4.503,-6.945 1.609,-7.773 0,0 4.345,-0.98 12.233,-5.448 l 2.367,-1.304 c 0.055,-0.011 0.106,-0.029 0.152,-0.056 0.115,-0.067 0.226,-0.136 0.338,-0.204 2.593,-1.578 4.728,-3.638 6.439,-6.662 -2.249,1.097 -3.848,0.541 -5.28,-1.319 -0.201,2.439 -0.7,4.613 -1.708,6.607 -0.44,-1.197 -0.689,-1.896 -0.991,-2.852 -1.105,-6.048 -1.017,-12.249 0.214,-18.257 0.534,-0.066 1.03,-0.372 1.404,-0.799 0.742,-0.845 1.081,-0.515 1.542,0.237 1.036,1.688 1.942,3.436 2.651,5.299 -0.522,-4.661 -1.396,-9.938 -2.339,-14.874 1.678,-3.746 3.848,-7.311 6.487,-10.602 0.902,2.826 1.822,6.13 2.476,9.011 0.008,0.037 0.016,0.072 0.024,0.109 0.063,0.279 0.124,0.556 0.181,0.826 0.118,0.552 0.224,1.083 0.316,1.586 C 1.287,-13.354 1.969,-6.654 0,0"
       style="fill:#156ca5;fill-opacity:1;fill-rule:nonzero;stroke:none"
       transform="matrix(0.35277776,0,0,-0.35277776,46.850523,92.326649)"
       clip-path="url(#clipPath146)" />
    <path
       id="path147"
       d="M 0,0 C -0.007,1.268 0.297,2.489 0.545,3.719 2.772,3.398 5.006,3.124 7.222,2.74 8.462,2.524 7.703,1.469 7.854,0.806 8,0.17 7.571,0.015 7.003,0.017 4.669,0.024 2.334,0.008 0,0"
       style="fill:#000000;fill-opacity:1;fill-rule:nonzero;stroke:none"
       transform="matrix(0.35277776,0,0,-0.35277776,48.259233,103.07155)"
       clip-path="url(#clipPath148)" />
    <path
       id="path149"
       d="M 0,0 C 0.083,0.13 0.236,0.259 0.33,0.115 0.442,-0.057 0.212,-0.073 0.101,-0.128 0.068,-0.085 0.035,-0.042 0,0"
       style="fill:#000000;fill-opacity:1;fill-rule:nonzero;stroke:none"
       transform="matrix(0.35277776,0,0,-0.35277776,64.985343,106.63203)"
       clip-path="url(#clipPath150)" />
    <path
       id="path151"
       d="m 0,0 c -0.709,-1.862 -1.615,-3.61 -2.65,-5.299 -0.461,-0.752 -0.801,-1.082 -1.543,-0.236 -0.374,0.427 -0.869,0.732 -1.404,0.799 0.348,-1.696 0.788,-3.373 1.316,-5.03 0.023,-0.07 0.051,-0.14 0.068,-0.213 0.537,-1.658 1.157,-3.293 1.875,-4.895 C -1.396,-9.938 -0.522,-4.66 0,0"
       style="fill:#000000;fill-opacity:1;fill-rule:nonzero;stroke:none"
       transform="matrix(0.35277776,0,0,-0.35277776,44.355923,94.465679)"
       clip-path="url(#clipPath152)" />
    <path
       id="path153"
       d="M 0,0 C -0.112,-1.756 -0.45,-3.429 -1.56,-4.874 0.854,-4.101 1.639,-1.462 0,0"
       style="fill:#ffffff;fill-opacity:1;fill-rule:nonzero;stroke:none"
       transform="matrix(0.35277776,0,0,-0.35277776,53.982553,75.209519)"
       clip-path="url(#clipPath154)" />
    <path
       id="path155"
       d="M 0,0 C -0.611,0.006 -1.101,-0.187 -1.102,-0.911 -1.104,-1.497 -0.817,-1.895 -0.204,-1.928 0.43,-1.962 0.845,-1.68 0.892,-1.035 0.884,-0.401 0.643,-0.007 0,0"
       style="fill:#ffffff;fill-opacity:1;fill-rule:nonzero;stroke:none"
       transform="matrix(0.35277776,0,0,-0.35277776,52.678933,75.458079)"
       clip-path="url(#clipPath156)" />
    <path
       id="path157"
       d="m 0,0 c -0.431,-0.055 -0.787,-0.266 -0.72,-0.739 0.048,-0.336 0.272,-0.647 0.691,-0.696 0.466,0.15 0.551,0.524 0.529,0.931 C 0.484,-0.215 0.37,0.047 0,0"
       style="fill:#ffffff;fill-opacity:1;fill-rule:nonzero;stroke:none"
       transform="matrix(0.35277776,0,0,-0.35277776,45.602353,75.638249)"
       clip-path="url(#clipPath158)" />
    <path
       id="path159"
       d="M 0,0 C -0.006,0.015 -0.012,0.029 -0.018,0.045 -0.11,0.037 -0.202,0.028 -0.321,0.019 -0.252,-0.052 -0.205,-0.101 -0.148,-0.157 -0.093,-0.099 -0.046,-0.05 0,0 m 3.294,-6.387 c 0.059,0.078 0.099,0.131 0.166,0.22 -0.146,-0.013 -0.234,-0.02 -0.353,-0.03 0.071,-0.073 0.12,-0.121 0.187,-0.19 m -7.968,0.762 c 0.062,0.056 0.114,0.103 0.167,0.149 -0.007,0.013 -0.014,0.026 -0.022,0.039 -0.09,-0.003 -0.179,-0.007 -0.32,-0.012 0.086,-0.087 0.137,-0.138 0.175,-0.176 m 7.24,-15.62 c -0.067,-0.091 -0.12,-0.161 -0.191,-0.256 0.111,-0.013 0.186,-0.021 0.289,-0.034 -0.036,0.104 -0.061,0.181 -0.098,0.29 m -6.406,-4.001 c -0.093,0.014 -0.144,0.02 -0.198,0.028 -0.046,-0.101 -0.087,-0.192 -0.128,-0.282 0.016,-0.013 0.031,-0.025 0.045,-0.037 0.086,0.089 0.172,0.178 0.281,0.291 M 2.861,-6.489 C 2.693,-6.622 2.784,-6.729 2.84,-6.85 c 0.189,0.116 0.06,0.23 0.021,0.361 m -3.452,5.859 c 0.175,0.134 0.059,0.237 0.008,0.357 C -0.74,-0.395 -0.658,-0.504 -0.591,-0.63 M -5.15,-6.096 c 0.238,0.111 0.105,0.214 0.066,0.323 -0.025,-0.001 -0.049,-0.002 -0.074,-0.002 0.002,-0.107 0.005,-0.214 0.008,-0.321 m 6.718,-15.076 c -0.265,0.017 -0.533,0.083 -0.73,-0.167 0.275,-0.083 0.521,-0.069 0.73,0.167 m -5.555,16.281 c 0.013,0.015 0.027,0.031 0.041,0.045 -0.096,0.141 -0.187,0.285 -0.292,0.418 -0.027,0.035 -0.109,0.063 -0.144,0.046 -0.055,-0.025 -0.093,-0.091 -0.138,-0.139 0.045,-0.029 0.088,-0.058 0.134,-0.084 0.042,-0.026 0.125,-0.053 0.123,-0.07 -0.04,-0.263 0.173,-0.162 0.276,-0.216 M 0.509,0.598 C 0.525,0.613 0.541,0.629 0.557,0.644 0.458,0.79 0.366,0.941 0.257,1.08 0.233,1.11 0.146,1.116 0.101,1.099 0.055,1.081 0.027,1.021 -0.009,0.979 0.03,0.947 0.068,0.913 0.11,0.885 0.155,0.854 0.247,0.825 0.244,0.807 0.204,0.545 0.418,0.661 0.509,0.598 M 3.67,-5.073 C 3.625,-5.091 3.604,-5.094 3.59,-5.104 3.535,-5.15 3.483,-5.198 3.43,-5.246 3.483,-5.279 3.536,-5.312 3.589,-5.347 3.62,-5.367 3.678,-5.393 3.676,-5.409 3.647,-5.665 3.848,-5.576 3.992,-5.593 3.886,-5.422 3.78,-5.251 3.67,-5.073 M 1.557,-18.794 c 0.025,0.018 0.049,0.035 0.074,0.053 -0.204,0.499 -0.404,0.999 -0.617,1.494 -0.017,0.039 -0.121,0.068 -0.174,0.056 -0.044,-0.01 -0.106,-0.093 -0.099,-0.135 0.014,-0.099 0.044,-0.21 0.105,-0.285 0.158,-0.194 0.335,-0.342 0.341,-0.648 0.004,-0.18 0.239,-0.356 0.37,-0.535 m -9.93,12.954 c 0.143,-0.186 0.264,-0.344 0.384,-0.503 0.006,-0.008 -0.004,-0.027 10e-4,-0.037 0.073,-0.129 0.14,-0.263 0.225,-0.384 0.07,-0.1 0.162,-0.185 0.245,-0.278 -0.012,-0.01 -0.024,-0.02 -0.035,-0.03 0.114,-0.051 0.228,-0.102 0.407,-0.182 -0.084,-0.04 -0.136,-0.064 -0.211,-0.1 0.089,-0.028 0.119,-0.038 0.094,-0.029 -0.008,-0.184 -0.013,-0.337 -0.02,-0.524 0.163,0.056 0.283,0.097 0.418,0.143 -0.073,0.104 -0.114,0.161 -0.146,0.208 0.174,0.124 0.343,0.237 0.503,0.362 0.231,0.181 0.462,0.37 0.665,0.578 0.141,0.144 0.197,0.37 0.303,0.553 0.084,0.145 0.181,0.286 0.284,0.419 0.029,0.038 0.105,0.035 0.152,0.061 0.083,0.045 0.138,0.073 0.145,0.215 0.008,0.175 0.009,0.437 0.295,0.489 0.053,0.01 0.096,0.077 0.143,0.118 -0.019,0 -0.037,0 -0.056,-10e-4 -0.029,0.105 -0.071,0.208 -0.082,0.315 -0.007,0.062 0.071,0.167 0.048,0.19 -0.054,0.055 -0.146,0.072 -0.249,0.116 -0.011,0.05 -0.03,0.142 -0.053,0.248 0.069,-0.035 0.169,-0.052 0.184,-0.097 0.064,-0.197 0.198,-0.157 0.339,-0.139 -0.04,0.257 -0.174,0.439 -0.382,0.556 -0.033,0.018 -0.037,0.089 -0.054,0.135 0.042,-0.014 0.084,-0.028 0.146,-0.048 -0.551,1.053 -1.095,2.093 -1.625,3.107 -0.256,-0.302 -0.509,-0.6 -0.75,-0.887 0.043,-0.047 0.141,-0.108 0.145,-0.173 0.003,-0.062 -0.092,-0.129 -0.16,-0.213 0.004,-0.01 0.018,-0.055 0.031,-0.096 -0.277,-0.16 -0.802,-0.777 -0.811,-0.951 -0.041,-0.004 -0.083,-0.007 -0.125,-0.011 0.014,-0.012 0.027,-0.023 0.039,-0.035 -0.033,-0.058 -0.057,-0.127 -0.104,-0.171 -0.104,-0.098 -0.279,-0.163 -0.316,-0.277 -0.073,-0.219 -0.207,-0.197 -0.348,-0.174 -0.007,-0.064 0.004,-0.13 -0.023,-0.174 -0.083,-0.136 -0.161,-0.284 -0.278,-0.386 -0.099,-0.087 -0.165,-0.138 -0.032,-0.26 -0.202,0 -0.243,-0.084 -0.172,-0.235 0.051,-0.11 0.111,-0.22 0.149,-0.335 0.035,-0.106 0.135,-0.23 -0.036,-0.321 -0.016,-0.009 -0.004,-0.068 -0.005,-0.106 0.05,0.015 0.087,0.023 0.122,0.037 0.276,0.105 0.303,0.091 0.393,-0.184 0.021,-0.065 0.066,-0.124 0.093,-0.189 0.047,-0.114 0.087,-0.231 0.12,-0.32 M -1.799,5.11 C -2.06,4.812 -2.319,4.518 -2.578,4.223 -2.339,4.105 -2.311,3.988 -2.583,3.871 -2.565,3.826 -2.546,3.781 -2.532,3.745 -2.929,3.519 -3.109,3.125 -3.414,2.79 -3.393,2.789 -3.429,2.79 -3.469,2.791 -3.427,2.643 -3.738,2.318 -3.855,2.344 -3.875,2.277 -3.878,2.179 -3.919,2.157 -4.003,2.115 -4.108,2.115 -4.202,2.098 -4.155,1.859 -4.332,1.702 -4.493,1.563 -4.597,1.474 -4.658,1.422 -4.516,1.284 -4.75,1.319 -4.751,1.207 -4.707,1.078 -4.674,0.98 -4.628,0.888 -4.583,0.794 -4.513,0.651 -4.436,0.511 -4.604,0.378 -4.614,0.369 -4.601,0.33 -4.599,0.304 c 0.042,0.01 0.073,0.017 0.102,0.027 0.309,0.099 0.399,0.098 0.422,-0.202 0.004,-0.048 0.043,-0.093 0.064,-0.14 0.054,-0.123 0.108,-0.247 0.162,-0.371 0.055,-0.02 0.098,-0.083 0.143,-0.144 0.035,-0.048 0.08,-0.09 0.109,-0.141 0.041,-0.075 0.069,-0.158 0.109,-0.234 0.064,-0.121 0.109,-0.269 0.207,-0.354 0.113,-0.098 0.24,-0.166 0.227,-0.326 0.126,-0.057 0.24,-0.108 0.359,-0.162 -0.044,-0.056 -0.075,-0.096 -0.115,-0.147 0.053,-0.001 0.08,-0.002 0.164,-0.005 -0.229,-0.156 -0.122,-0.327 -0.103,-0.515 0.137,0.048 0.254,0.088 0.382,0.133 -0.068,0.109 -0.111,0.177 -0.144,0.231 0.432,0.227 0.756,0.55 1.086,0.863 0.031,0.035 0.067,0.064 0.106,0.088 0.164,0.104 0.113,0.312 0.254,0.459 0.2,0.21 0.315,0.503 0.612,0.627 0.005,0.003 0.008,0.011 0.016,0.023 -0.077,0.354 0.113,0.564 0.369,0.667 -0.032,0.148 -0.066,0.258 -0.076,0.371 -0.005,0.059 0.063,0.159 0.043,0.177 -0.06,0.052 -0.148,0.073 -0.25,0.118 C -0.36,1.393 -0.377,1.481 -0.4,1.593 -0.333,1.559 -0.238,1.541 -0.223,1.496 -0.159,1.312 -0.032,1.338 0.106,1.355 0.091,1.601 -0.06,1.808 -0.274,1.911 -0.306,1.927 -0.315,1.991 -0.332,2.033 -0.334,2.038 -0.315,2.05 -0.296,2.067 -0.262,2.045 -0.227,2.021 -0.158,1.975 -0.72,3.049 -1.263,4.085 -1.799,5.11 M 3.276,-4.244 C 2.715,-3.172 2.171,-2.131 1.63,-1.097 1.367,-1.409 1.117,-1.706 0.877,-1.99 0.928,-2.048 1.024,-2.11 1.032,-2.183 1.038,-2.24 0.937,-2.31 0.872,-2.389 0.874,-2.393 0.893,-2.432 0.912,-2.471 0.896,-2.461 0.881,-2.45 0.865,-2.439 0.57,-2.779 0.275,-3.12 0.038,-3.394 c -0.094,-0.338 -0.41,-0.403 -0.508,-0.64 -0.027,-0.064 -0.187,-0.071 -0.292,-0.107 0.029,-0.13 -0.087,-0.38 -0.296,-0.522 -0.11,-0.075 -0.156,-0.139 -0.007,-0.277 -0.313,0.042 -0.231,-0.124 -0.193,-0.249 0.03,-0.099 0.09,-0.187 0.132,-0.283 0.053,-0.124 0.128,-0.252 -0.038,-0.357 -0.012,-0.008 0,-0.055 10e-4,-0.093 0.043,0.012 0.068,0.016 0.091,0.026 0.281,0.12 0.347,0.089 0.43,-0.191 0.015,-0.049 0.045,-0.093 0.066,-0.14 0.055,-0.125 0.109,-0.25 0.16,-0.368 0.121,-0.155 0.248,-0.309 0.362,-0.472 0.027,-0.038 -0.007,-0.121 0.021,-0.156 0.11,-0.132 0.235,-0.252 0.352,-0.38 0.024,-0.026 0.047,-0.064 0.049,-0.098 0.005,-0.084 0.003,-0.141 0.126,-0.141 0.08,0 0.159,-0.084 0.247,-0.136 C 0.699,-8.023 0.667,-8.058 0.63,-8.097 0.675,-8.108 0.707,-8.117 0.688,-8.112 0.677,-8.295 0.667,-8.451 0.656,-8.614 c 0.136,0.018 0.233,0.031 0.373,0.05 -0.027,0.1 -0.054,0.204 -0.079,0.298 0.391,0.232 0.746,0.525 1.065,0.865 0.036,0.032 0.079,0.058 0.102,0.096 0.099,0.172 0.187,0.35 0.29,0.519 0.087,0.144 0.18,0.288 0.29,0.415 0.047,0.054 0.148,0.059 0.218,0.096 0.035,0.018 0.08,0.062 0.08,0.093 -0.008,0.259 0.02,0.494 0.314,0.593 0.042,0.015 0.072,0.064 0.124,0.11 -0.177,0.105 -0.239,0.222 -0.088,0.383 0.018,0.02 -0.011,0.121 -0.043,0.14 -0.063,0.036 -0.144,0.039 -0.215,0.056 -0.013,0.08 -0.027,0.162 -0.045,0.27 0.073,-0.038 0.162,-0.055 0.175,-0.096 0.056,-0.182 0.185,-0.163 0.334,-0.151 -0.027,0.321 -0.218,0.52 -0.488,0.668 0.02,0.017 0.039,0.034 0.058,0.052 0.044,-0.025 0.087,-0.049 0.155,-0.087 M -9.532,-18.022 c -0.415,-0.609 -0.846,-1.241 -1.26,-1.846 0.148,0.014 0.285,0.052 0.414,0.031 0.631,-0.098 1.26,-0.209 1.889,-0.319 0.095,-0.017 0.199,-0.091 0.278,-0.068 0.373,0.11 0.669,0.012 0.964,-0.231 0.278,-0.23 0.338,-0.556 0.42,-0.852 0.043,-0.157 0.086,-0.306 0.16,-0.452 0.067,-0.131 0.119,-0.268 0.174,-0.405 0.03,-0.076 0.043,-0.161 0.082,-0.232 0.12,-0.219 0.271,-0.424 0.37,-0.653 0.087,-0.198 0.044,-0.437 0.261,-0.6 0.137,-0.103 0.213,-0.29 0.305,-0.446 0.051,-0.084 0.162,-0.179 0.004,-0.276 -0.008,-0.005 0.013,-0.097 0.04,-0.113 0.038,-0.024 0.097,-0.014 0.149,-0.019 -0.036,-0.16 -0.074,-0.309 -0.101,-0.461 -0.012,-0.061 -0.024,-0.164 0.007,-0.185 0.152,-0.109 0.103,-0.272 0.141,-0.411 0.017,-0.064 0.069,-0.18 0.076,-0.178 0.132,0.04 0.11,-0.071 0.137,-0.131 0.052,-0.119 0.104,-0.238 0.169,-0.386 0.05,0.083 0.08,0.139 0.115,0.192 0.143,0.218 0.161,0.54 0.493,0.607 0.011,0.002 0.016,0.032 0.024,0.049 0.051,0.099 0.101,0.199 0.156,0.306 -0.141,0.215 -0.133,0.247 0.096,0.391 0.022,0.014 0.032,0.046 0.048,0.07 0.062,0.098 0.114,0.204 0.187,0.293 0.08,0.096 0.189,0.169 0.269,0.266 0.135,0.163 0.257,0.338 0.386,0.508 0.259,0.341 0.499,0.7 0.786,1.016 0.194,0.213 0.367,0.427 0.458,0.697 0.047,0.141 0.126,0.193 0.262,0.185 0.014,-0.074 0.027,-0.138 0.046,-0.232 0.049,0.068 0.078,0.109 0.117,0.165 -0.192,0.07 -0.134,0.221 -0.097,0.341 0.022,0.071 0.112,0.125 0.177,0.18 0.168,0.147 0.308,0.353 0.556,0.357 0.204,0.003 0.408,-0.04 0.613,-0.053 0.069,-0.004 0.14,0.025 0.254,0.048 0.079,-0.013 0.217,-0.038 0.356,-0.054 0.231,-0.026 0.462,-0.056 0.693,-0.063 0.207,-0.007 0.42,0.076 0.615,-0.065 0.021,-0.015 0.067,0.003 0.099,0.006 -0.071,0.203 -0.154,0.388 -0.2,0.581 -0.068,0.283 -0.087,0.58 -0.17,0.858 -0.111,0.376 -0.253,0.745 -0.405,1.106 -0.138,0.327 -0.317,0.636 -0.458,0.962 -0.08,0.183 -0.162,0.375 -0.059,0.589 0.055,0.115 -0.158,0.598 -0.268,0.658 -0.011,0.006 -0.028,0.018 -0.034,0.014 -0.115,-0.07 -0.125,0.052 -0.137,0.095 -0.061,0.233 -0.106,0.469 -0.153,0.687 0.061,-0.068 0.141,-0.156 0.234,-0.26 0.014,0.065 0.023,0.107 0.033,0.149 0.052,-0.07 0.065,-0.141 0.062,-0.212 -0.002,-0.053 -0.05,-0.115 -0.035,-0.157 0.084,-0.232 0.196,-0.446 0.474,-0.53 -0.114,0.375 -0.286,0.732 -0.376,1.108 -0.094,0.399 -0.491,0.596 -0.562,1.002 0.035,0.012 0.092,0.032 0.156,0.054 -0.963,2.554 -1.923,5.101 -2.898,7.688 -0.345,-0.556 -0.661,-1.067 -0.972,-1.571 0.089,-0.024 0.157,-0.044 0.226,-0.063 -0.021,-0.068 -0.028,-0.145 -0.064,-0.205 -0.107,-0.186 -0.227,-0.364 -0.354,-0.567 0.055,-0.084 0.018,-0.177 -0.071,-0.286 -0.204,-0.252 -0.404,-0.509 -0.581,-0.78 -0.373,-0.57 -0.731,-1.15 -1.092,-1.729 -0.039,-0.063 -0.089,-0.149 -0.074,-0.21 0.042,-0.169 -0.071,-0.21 -0.176,-0.275 -0.044,-0.026 -0.11,-0.105 -0.104,-0.112 0.104,-0.134 -0.021,-0.212 -0.075,-0.294 -0.2,-0.304 -0.408,-0.603 -0.618,-0.899 -0.053,-0.075 -0.126,-0.134 -0.216,-0.228 0,0.009 0.01,-0.042 -0.003,-0.085 -0.084,-0.268 -0.247,-0.509 -0.469,-0.646 -0.149,-0.092 -0.16,-0.181 -0.221,-0.313 -0.258,-0.564 -0.546,-1.116 -0.964,-1.589 -0.06,-0.067 -0.123,-0.193 -0.004,-0.293 -0.087,-0.249 -0.469,-0.306 -0.407,-0.639 -0.221,0.019 -0.15,-0.158 -0.205,-0.241 -0.081,-0.052 -0.151,-0.118 -0.199,-0.195 -0.016,-0.023 0.027,-0.083 0.051,-0.149"
       style="fill:#ffffff;fill-opacity:1;fill-rule:nonzero;stroke:none"
       transform="matrix(0.35277776,0,0,-0.35277776,55.669463,92.844099)"
       clip-path="url(#clipPath160)" />
    <path
       id="path161"
       d="m 0,0 c -0.024,0.066 -0.067,0.126 -0.052,0.149 0.049,0.078 0.118,0.143 0.2,0.196 C 0.203,0.428 0.131,0.604 0.353,0.585 0.291,0.918 0.673,0.976 0.76,1.225 0.641,1.324 0.704,1.45 0.764,1.518 1.182,1.99 1.47,2.542 1.728,3.106 1.789,3.238 1.8,3.327 1.949,3.42 2.171,3.557 2.334,3.798 2.418,4.065 2.431,4.108 2.42,4.159 2.42,4.15 2.51,4.244 2.584,4.304 2.637,4.379 2.847,4.675 3.055,4.974 3.254,5.277 3.309,5.359 3.434,5.437 3.33,5.571 3.324,5.578 3.39,5.657 3.434,5.684 3.539,5.748 3.652,5.789 3.61,5.958 3.595,6.02 3.645,6.105 3.684,6.169 4.044,6.747 4.402,7.327 4.775,7.897 4.953,8.168 5.152,8.426 5.357,8.678 5.445,8.786 5.483,8.88 5.427,8.964 5.555,9.166 5.674,9.345 5.782,9.53 5.817,9.591 5.825,9.667 5.846,9.735 5.777,9.755 5.708,9.774 5.62,9.799 5.931,10.303 6.247,10.813 6.591,11.369 7.566,8.782 8.527,6.235 9.49,3.682 9.426,3.659 9.369,3.64 9.334,3.628 9.404,3.222 9.801,3.024 9.896,2.625 9.986,2.249 10.158,1.893 10.271,1.518 9.994,1.602 9.881,1.815 9.798,2.048 9.783,2.09 9.831,2.151 9.833,2.204 9.836,2.275 9.823,2.347 9.771,2.416 9.761,2.374 9.751,2.332 9.737,2.268 9.645,2.371 9.564,2.46 9.503,2.527 9.551,2.31 9.596,2.073 9.657,1.841 9.668,1.798 9.679,1.676 9.794,1.745 9.8,1.749 9.816,1.737 9.828,1.731 9.938,1.672 10.151,1.188 10.096,1.073 9.993,0.859 10.075,0.667 10.154,0.484 c 0.141,-0.326 0.321,-0.634 0.459,-0.962 0.152,-0.361 0.293,-0.73 0.405,-1.106 0.083,-0.277 0.102,-0.574 0.17,-0.857 0.046,-0.194 0.128,-0.378 0.2,-0.581 -0.033,-0.003 -0.078,-0.022 -0.099,-0.006 -0.195,0.14 -0.408,0.057 -0.615,0.064 C 10.442,-2.957 10.211,-2.927 9.98,-2.9 9.842,-2.885 9.704,-2.859 9.625,-2.847 9.51,-2.869 9.439,-2.898 9.371,-2.895 9.166,-2.882 8.962,-2.839 8.758,-2.842 8.51,-2.846 8.37,-3.052 8.202,-3.198 8.137,-3.254 8.046,-3.308 8.024,-3.379 7.988,-3.499 7.93,-3.649 8.122,-3.72 8.083,-3.775 8.054,-3.816 8.005,-3.885 7.986,-3.791 7.973,-3.727 7.958,-3.652 7.822,-3.645 7.744,-3.696 7.696,-3.838 7.606,-4.107 7.433,-4.321 7.239,-4.534 6.952,-4.851 6.712,-5.21 6.453,-5.551 6.324,-5.721 6.202,-5.896 6.066,-6.059 5.987,-6.155 5.878,-6.229 5.798,-6.324 5.725,-6.413 5.672,-6.52 5.61,-6.617 5.595,-6.642 5.585,-6.674 5.563,-6.687 5.333,-6.832 5.326,-6.863 5.466,-7.078 5.412,-7.186 5.361,-7.285 5.311,-7.385 5.302,-7.401 5.297,-7.432 5.287,-7.434 4.955,-7.501 4.937,-7.822 4.794,-8.041 4.759,-8.094 4.729,-8.149 4.679,-8.232 4.614,-8.085 4.562,-7.966 4.51,-7.847 4.483,-7.786 4.505,-7.676 4.373,-7.716 4.366,-7.718 4.314,-7.602 4.296,-7.537 c -0.038,0.139 0.012,0.302 -0.14,0.41 -0.031,0.022 -0.019,0.124 -0.008,0.186 0.028,0.151 0.066,0.3 0.102,0.461 -0.052,0.004 -0.111,-0.005 -0.149,0.018 -0.028,0.017 -0.049,0.108 -0.04,0.113 0.158,0.097 0.046,0.193 -0.004,0.277 -0.093,0.155 -0.168,0.343 -0.305,0.445 -0.217,0.163 -0.174,0.402 -0.261,0.601 -0.099,0.228 -0.25,0.433 -0.37,0.653 -0.039,0.07 -0.052,0.155 -0.082,0.231 -0.055,0.137 -0.107,0.275 -0.174,0.406 -0.074,0.145 -0.117,0.295 -0.16,0.452 -0.082,0.296 -0.142,0.622 -0.42,0.851 -0.296,0.244 -0.592,0.341 -0.964,0.232 -0.079,-0.024 -0.183,0.051 -0.278,0.067 -0.629,0.111 -1.258,0.222 -1.89,0.32 -0.128,0.02 -0.265,-0.018 -0.413,-0.032 C -0.847,-1.24 -0.416,-0.608 0,0"
       style="fill:#ffffff;fill-opacity:1;fill-rule:nonzero;stroke:none"
       transform="matrix(0.35277776,0,0,-0.35277776,52.306863,99.201999)"
       clip-path="url(#clipPath162)" />
    <path
       id="path163"
       d="M 0,0 C -0.069,0.038 -0.112,0.062 -0.155,0.087 -0.174,0.069 -0.194,0.052 -0.213,0.035 c 0.27,-0.148 0.461,-0.347 0.488,-0.668 -0.15,-0.012 -0.278,-0.031 -0.335,0.152 -0.012,0.041 -0.101,0.057 -0.174,0.095 0.018,-0.108 0.031,-0.19 0.045,-0.27 0.07,-0.017 0.152,-0.02 0.214,-0.056 0.033,-0.018 0.061,-0.12 0.043,-0.14 -0.15,-0.161 -0.089,-0.278 0.088,-0.382 -0.051,-0.047 -0.081,-0.096 -0.123,-0.111 -0.294,-0.099 -0.322,-0.334 -0.315,-0.592 10e-4,-0.032 -0.045,-0.076 -0.079,-0.094 -0.071,-0.037 -0.171,-0.042 -0.218,-0.096 -0.11,-0.127 -0.203,-0.27 -0.291,-0.415 -0.103,-0.169 -0.191,-0.347 -0.29,-0.519 -0.022,-0.038 -0.065,-0.064 -0.102,-0.096 -0.318,-0.34 -0.673,-0.633 -1.065,-0.864 0.025,-0.095 0.053,-0.199 0.08,-0.299 -0.14,-0.019 -0.237,-0.032 -0.373,-0.05 0.01,0.163 0.02,0.319 0.032,0.502 0.018,-0.005 -0.014,0.004 -0.058,0.015 0.037,0.04 0.069,0.074 0.111,0.12 -0.088,0.051 -0.168,0.135 -0.247,0.135 -0.124,0 -0.121,0.057 -0.126,0.141 -0.002,0.034 -0.026,0.072 -0.05,0.099 -0.116,0.128 -0.241,0.247 -0.352,0.379 -0.027,0.035 0.006,0.118 -0.021,0.156 -0.114,0.163 -0.241,0.317 -0.361,0.472 -0.051,0.119 -0.105,0.244 -0.16,0.369 -0.021,0.046 -0.051,0.09 -0.066,0.139 -0.083,0.281 -0.149,0.311 -0.43,0.191 -0.023,-0.01 -0.048,-0.014 -0.091,-0.026 -0.001,0.038 -0.014,0.085 -0.001,0.093 0.166,0.106 0.091,0.233 0.037,0.357 -0.041,0.096 -0.101,0.184 -0.131,0.283 -0.039,0.125 -0.12,0.291 0.192,0.249 -0.148,0.138 -0.102,0.202 0.008,0.277 0.209,0.143 0.325,0.392 0.296,0.523 0.104,0.035 0.265,0.042 0.291,0.106 0.099,0.237 0.415,0.302 0.509,0.641 0.237,0.273 0.532,0.614 0.827,0.954 0.015,-0.011 0.031,-0.022 0.046,-0.032 -0.018,0.039 -0.037,0.079 -0.039,0.082 0.065,0.08 0.166,0.149 0.159,0.207 -0.007,0.072 -0.104,0.134 -0.154,0.192 0.24,0.284 0.489,0.581 0.753,0.893 C -1.105,2.113 -0.561,1.072 0,0"
       style="fill:#ffffff;fill-opacity:1;fill-rule:nonzero;stroke:none"
       transform="matrix(0.35277776,0,0,-0.35277776,56.825273,94.341329)"
       clip-path="url(#clipPath164)" />
    <path
       id="path165"
       d="M 0,0 C 0.536,-1.025 1.079,-2.062 1.641,-3.136 1.572,-3.09 1.537,-3.065 1.503,-3.043 1.483,-3.061 1.465,-3.072 1.467,-3.077 1.483,-3.119 1.493,-3.184 1.524,-3.199 1.739,-3.303 1.89,-3.51 1.905,-3.755 1.767,-3.772 1.64,-3.798 1.576,-3.614 1.561,-3.569 1.465,-3.552 1.399,-3.518 1.421,-3.629 1.439,-3.718 1.448,-3.764 1.55,-3.809 1.638,-3.829 1.698,-3.882 1.718,-3.899 1.649,-3.999 1.655,-4.059 1.665,-4.171 1.699,-4.281 1.731,-4.43 1.475,-4.532 1.285,-4.742 1.361,-5.097 1.354,-5.108 1.351,-5.116 1.346,-5.119 1.049,-5.243 0.934,-5.536 0.733,-5.746 0.593,-5.894 0.644,-6.102 0.48,-6.205 0.441,-6.229 0.405,-6.259 0.374,-6.293 0.044,-6.606 -0.28,-6.93 -0.712,-7.156 c 0.033,-0.054 0.076,-0.122 0.144,-0.232 -0.128,-0.045 -0.245,-0.085 -0.382,-0.133 -0.019,0.189 -0.126,0.36 0.103,0.516 -0.084,0.003 -0.111,0.004 -0.164,0.005 0.04,0.051 0.071,0.091 0.115,0.146 -0.12,0.054 -0.233,0.106 -0.359,0.163 0.013,0.16 -0.114,0.228 -0.227,0.326 -0.098,0.085 -0.143,0.232 -0.207,0.353 -0.04,0.076 -0.068,0.159 -0.109,0.235 -0.029,0.05 -0.074,0.092 -0.109,0.14 -0.045,0.062 -0.088,0.124 -0.143,0.145 -0.054,0.124 -0.108,0.248 -0.162,0.371 -0.021,0.047 -0.06,0.092 -0.064,0.14 -0.023,0.299 -0.113,0.3 -0.422,0.202 -0.03,-0.01 -0.06,-0.017 -0.102,-0.028 -0.002,0.027 -0.015,0.066 -0.005,0.075 0.168,0.132 0.091,0.273 0.021,0.416 -0.045,0.093 -0.091,0.186 -0.124,0.284 -0.044,0.129 -0.044,0.241 0.191,0.206 -0.142,0.138 -0.081,0.189 0.023,0.279 0.161,0.139 0.338,0.296 0.291,0.534 0.094,0.018 0.199,0.018 0.282,0.06 0.042,0.021 0.044,0.12 0.065,0.186 0.117,-0.025 0.428,0.299 0.386,0.448 0.04,-10e-4 0.076,-0.002 0.055,-10e-4 0.304,0.335 0.485,0.728 0.882,0.955 -0.015,0.036 -0.033,0.081 -0.051,0.126 0.272,0.117 0.244,0.234 0.005,0.351 C -0.52,-0.593 -0.261,-0.298 0,0"
       style="fill:#ffffff;fill-opacity:1;fill-rule:nonzero;stroke:none"
       transform="matrix(0.35277776,0,0,-0.35277776,55.034853,91.041269)"
       clip-path="url(#clipPath166)" />
    <path
       id="path167"
       d="M 0,0 C -0.033,0.089 -0.074,0.206 -0.12,0.32 -0.147,0.385 -0.192,0.443 -0.214,0.509 -0.304,0.784 -0.33,0.798 -0.606,0.692 -0.642,0.679 -0.679,0.671 -0.728,0.656 c 0.001,0.037 -0.011,0.097 0.004,0.106 0.172,0.091 0.072,0.215 0.037,0.321 -0.038,0.115 -0.098,0.225 -0.15,0.335 -0.071,0.151 -0.03,0.234 0.173,0.235 -0.133,0.121 -0.068,0.173 0.032,0.26 0.116,0.102 0.195,0.25 0.278,0.386 0.027,0.044 0.016,0.11 0.023,0.174 0.14,-0.023 0.275,-0.045 0.347,0.173 0.037,0.115 0.213,0.18 0.317,0.278 C 0.38,2.968 0.403,3.037 0.437,3.095 0.424,3.106 0.411,3.118 0.398,3.13 0.44,3.134 0.481,3.137 0.522,3.141 0.532,3.314 1.057,3.932 1.333,4.092 1.32,4.133 1.306,4.178 1.303,4.187 1.37,4.271 1.466,4.339 1.462,4.4 1.458,4.466 1.361,4.526 1.317,4.574 1.559,4.86 1.812,5.159 2.067,5.461 2.598,4.447 3.142,3.407 3.693,2.354 3.631,2.374 3.589,2.388 3.546,2.401 3.564,2.355 3.568,2.285 3.601,2.267 3.808,2.149 3.942,1.968 3.983,1.711 3.842,1.692 3.708,1.652 3.643,1.85 3.628,1.895 3.529,1.912 3.46,1.947 3.482,1.841 3.502,1.749 3.512,1.699 3.615,1.655 3.708,1.638 3.762,1.583 3.785,1.56 3.707,1.455 3.713,1.393 3.725,1.286 3.767,1.183 3.796,1.078 3.814,1.079 3.833,1.079 3.852,1.079 3.804,1.038 3.762,0.971 3.708,0.961 3.423,0.909 3.421,0.646 3.413,0.472 3.406,0.33 3.352,0.302 3.269,0.257 3.221,0.23 3.146,0.233 3.117,0.196 3.014,0.062 2.917,-0.078 2.833,-0.224 2.727,-0.406 2.671,-0.632 2.53,-0.776 2.327,-0.984 2.096,-1.173 1.864,-1.354 1.705,-1.479 1.535,-1.592 1.361,-1.716 1.394,-1.763 1.434,-1.82 1.507,-1.924 1.373,-1.97 1.252,-2.011 1.089,-2.067 c 0.008,0.187 0.013,0.339 0.02,0.524 0.026,-0.009 -0.004,10e-4 -0.094,0.029 0.076,0.035 0.127,0.06 0.212,0.1 -0.179,0.08 -0.293,0.131 -0.408,0.182 0.012,0.01 0.024,0.02 0.035,0.03 C 0.772,-1.109 0.68,-1.024 0.609,-0.924 0.525,-0.803 0.458,-0.669 0.385,-0.54 0.379,-0.53 0.39,-0.511 0.383,-0.503 0.264,-0.344 0.143,-0.187 0,0"
       style="fill:#ffffff;fill-opacity:1;fill-rule:nonzero;stroke:none"
       transform="matrix(0.35277776,0,0,-0.35277776,52.715803,94.904259)"
       clip-path="url(#clipPath168)" />
    <path
       id="path169"
       d="M 0,0 C -0.131,0.179 -0.366,0.354 -0.37,0.535 -0.376,0.841 -0.553,0.989 -0.711,1.183 -0.772,1.258 -0.802,1.369 -0.816,1.468 -0.823,1.51 -0.761,1.593 -0.717,1.603 -0.664,1.615 -0.56,1.586 -0.543,1.547 -0.331,1.052 -0.13,0.552 0.074,0.053 0.049,0.035 0.024,0.018 0,0"
       style="fill:#ffffff;fill-opacity:1;fill-rule:nonzero;stroke:none"
       transform="matrix(0.35277776,0,0,-0.35277776,56.218783,99.474169)"
       clip-path="url(#clipPath170)" />
    <path
       id="path171"
       d="m 0,0 c 0.11,-0.178 0.216,-0.349 0.322,-0.52 -0.145,0.017 -0.345,-0.072 -0.316,0.184 0.002,0.017 -0.056,0.042 -0.088,0.063 -0.052,0.034 -0.105,0.067 -0.159,0.1 0.054,0.048 0.106,0.096 0.16,0.142 C -0.067,-0.021 -0.045,-0.018 0,0"
       style="fill:#ffffff;fill-opacity:1;fill-rule:nonzero;stroke:none"
       transform="matrix(0.35277776,0,0,-0.35277776,56.964303,94.633809)"
       clip-path="url(#clipPath172)" />
    <path
       id="path173"
       d="m 0,0 c -0.091,0.063 -0.306,-0.053 -0.266,0.209 0.003,0.019 -0.088,0.048 -0.133,0.078 -0.042,0.028 -0.08,0.063 -0.12,0.095 0.037,0.041 0.065,0.101 0.11,0.119 0.045,0.018 0.133,0.012 0.157,-0.019 C -0.144,0.344 -0.051,0.192 0.047,0.046 0.031,0.031 0.016,0.016 0,0"
       style="fill:#ffffff;fill-opacity:1;fill-rule:nonzero;stroke:none"
       transform="matrix(0.35277776,0,0,-0.35277776,55.849103,92.633249)"
       clip-path="url(#clipPath174)" />
    <path
       id="path175"
       d="m 0,0 c -0.103,0.054 -0.315,-0.048 -0.276,0.216 0.003,0.016 -0.081,0.044 -0.123,0.069 -0.045,0.027 -0.089,0.056 -0.133,0.084 0.045,0.049 0.082,0.114 0.137,0.14 C -0.359,0.525 -0.277,0.498 -0.25,0.463 -0.146,0.33 -0.055,0.186 0.041,0.045 0.027,0.03 0.014,0.015 0,0"
       style="fill:#ffffff;fill-opacity:1;fill-rule:nonzero;stroke:none"
       transform="matrix(0.35277776,0,0,-0.35277776,54.262833,94.569399)"
       clip-path="url(#clipPath176)" />
    <path
       id="path177"
       d="M 0,0 C -0.209,-0.236 -0.456,-0.25 -0.73,-0.167 -0.534,0.083 -0.266,0.017 0,0"
       style="fill:#ffffff;fill-opacity:1;fill-rule:nonzero;stroke:none"
       transform="matrix(0.35277776,0,0,-0.35277776,56.222733,100.31304)"
       clip-path="url(#clipPath178)" />
    <path
       id="path179"
       d="m 0,0 c -0.003,0.106 -0.005,0.214 -0.008,0.32 0.025,0 0.05,0.001 0.074,0.002 C 0.105,0.214 0.238,0.11 0,0"
       style="fill:#ffffff;fill-opacity:1;fill-rule:nonzero;stroke:none"
       transform="matrix(0.35277776,0,0,-0.35277776,53.852523,94.994529)"
       clip-path="url(#clipPath180)" />
    <path
       id="path181"
       d="M 0,0 C -0.067,0.126 -0.149,0.235 0.008,0.356 0.059,0.237 0.175,0.134 0,0"
       style="fill:#ffffff;fill-opacity:1;fill-rule:nonzero;stroke:none"
       transform="matrix(0.35277776,0,0,-0.35277776,55.461013,93.066279)"
       clip-path="url(#clipPath182)" />
    <path
       id="path183"
       d="M 0,0 C 0.04,-0.131 0.168,-0.245 -0.021,-0.36 -0.077,-0.24 -0.167,-0.133 0,0"
       style="fill:#ffffff;fill-opacity:1;fill-rule:nonzero;stroke:none"
       transform="matrix(0.35277776,0,0,-0.35277776,56.678693,95.133349)"
       clip-path="url(#clipPath184)" />
    <path
       id="path185"
       d="m 0,0 c -0.109,-0.113 -0.195,-0.202 -0.281,-0.291 -0.014,0.012 -0.03,0.024 -0.045,0.037 0.041,0.09 0.082,0.181 0.128,0.282 C -0.144,0.021 -0.093,0.014 0,0"
       style="fill:#ffffff;fill-opacity:1;fill-rule:nonzero;stroke:none"
       transform="matrix(0.35277776,0,0,-0.35277776,54.314833,101.75037)"
       clip-path="url(#clipPath186)" />
    <path
       id="path187"
       d="M 0,0 C 0.037,-0.109 0.062,-0.186 0.098,-0.29 -0.005,-0.277 -0.08,-0.269 -0.19,-0.256 -0.12,-0.161 -0.067,-0.091 0,0"
       style="fill:#ffffff;fill-opacity:1;fill-rule:nonzero;stroke:none"
       transform="matrix(0.35277776,0,0,-0.35277776,56.574663,100.3389)"
       clip-path="url(#clipPath188)" />
    <path
       id="path189"
       d="m 0,0 c -0.038,0.038 -0.088,0.089 -0.174,0.176 0.14,0.005 0.23,0.009 0.32,0.012 C 0.153,0.175 0.16,0.162 0.167,0.149 0.115,0.103 0.062,0.056 0,0"
       style="fill:#ffffff;fill-opacity:1;fill-rule:nonzero;stroke:none"
       transform="matrix(0.35277776,0,0,-0.35277776,54.020443,94.828479)"
       clip-path="url(#clipPath190)" />
    <path
       id="path191"
       d="M 0,0 C -0.067,0.068 -0.116,0.117 -0.187,0.189 -0.068,0.199 0.02,0.207 0.167,0.22 0.099,0.131 0.059,0.078 0,0"
       style="fill:#ffffff;fill-opacity:1;fill-rule:nonzero;stroke:none"
       transform="matrix(0.35277776,0,0,-0.35277776,56.831483,95.097189)"
       clip-path="url(#clipPath192)" />
    <path
       id="path193"
       d="m 0,0 c -0.046,-0.05 -0.093,-0.099 -0.148,-0.157 -0.057,0.056 -0.104,0.105 -0.173,0.176 0.119,0.009 0.211,0.018 0.303,0.026 C -0.012,0.029 -0.006,0.015 0,0"
       style="fill:#ffffff;fill-opacity:1;fill-rule:nonzero;stroke:none"
       transform="matrix(0.35277776,0,0,-0.35277776,55.669463,92.844099)"
       clip-path="url(#clipPath194)" />
    <text
       xml:space="preserve"
       style="font-style:normal;font-weight:normal;font-size:10.5833px;line-height:1.25;font-family:sans-serif;letter-spacing:-0.529167px;fill:#000000;fill-opacity:1;stroke:none;stroke-width:0.264583"
       x="77.73745"
       y="82.023201"
       id="text1"><tspan
         sodipodi:role="line"
         id="tspan1"
         style="font-style:normal;font-variant:normal;font-weight:bold;font-stretch:normal;font-family:'Josefin Sans';-inkscape-font-specification:'Josefin Sans Bold';letter-spacing:-0.529167px;stroke-width:0.264583"
         x="77.73745"
         y="82.023201">DRUPALCAMP</tspan></text>
    <text
       xml:space="preserve"
       style="font-style:normal;font-weight:normal;font-size:10.5833px;line-height:1.25;font-family:sans-serif;letter-spacing:2.3495px;fill:#000000;fill-opacity:1;stroke:none;stroke-width:0.264583"
       x="77.414787"
       y="92.028481"
       id="text2"><tspan
         sodipodi:role="line"
         id="tspan2"
         style="font-style:normal;font-variant:normal;font-weight:300;font-stretch:normal;font-family:'Josefin Sans';-inkscape-font-specification:'Josefin Sans Light';letter-spacing:2.3495px;stroke-width:0.264583"
         x="77.414787"
         y="92.028481">ROAZHON</tspan></text>
    <text
       xml:space="preserve"
       style="font-style:normal;font-weight:normal;font-size:4.23333px;line-height:1.25;font-family:sans-serif;fill:#000000;fill-opacity:1;stroke:none;stroke-width:0.264583"
       x="78.270149"
       y="100.13442"
       id="text3"><tspan
         sodipodi:role="line"
         id="tspan3"
         style="font-style:normal;font-variant:normal;font-weight:600;font-stretch:normal;font-size:4.23333px;font-family:'Josefin Sans';-inkscape-font-specification:'Josefin Sans Semi-Bold';stroke-width:0.264583"
         x="78.270149"
         y="100.13442">Rennes - 28-30 mars 2024</tspan></text>
  </g>
</svg>
