<?xml version="1.0" encoding="UTF-8" standalone="no"?>
<!-- Created with Inkscape (http://www.inkscape.org/) -->

<svg
   version="1.1"
   id="svg1"
   width="5333.3335"
   height="5333.3335"
   viewBox="0 0 5333.3335 5333.3335"
   sodipodi:docname="logo_hermine.svg"
   inkscape:version="1.3 (1:1.3+202307231459+0e150ed6c4)"
   xmlns:inkscape="http://www.inkscape.org/namespaces/inkscape"
   xmlns:sodipodi="http://sodipodi.sourceforge.net/DTD/sodipodi-0.dtd"
   xmlns="http://www.w3.org/2000/svg"
   xmlns:svg="http://www.w3.org/2000/svg">
  <defs
     id="defs1" />
  <sodipodi:namedview
     id="namedview1"
     pagecolor="#ffffff"
     bordercolor="#666666"
     borderopacity="1.0"
     inkscape:showpageshadow="2"
     inkscape:pageopacity="0.0"
     inkscape:pagecheckerboard="0"
     inkscape:deskcolor="#d1d1d1"
     inkscape:zoom="0.1471875"
     inkscape:cx="2666.6667"
     inkscape:cy="2666.6667"
     inkscape:window-width="1920"
     inkscape:window-height="998"
     inkscape:window-x="0"
     inkscape:window-y="0"
     inkscape:window-maximized="1"
     inkscape:current-layer="group-R5">
    <inkscape:page
       x="0"
       y="0"
       inkscape:label="1"
       id="page1"
       width="5333.3335"
       height="5333.3335"
       margin="0"
       bleed="0" />
  </sodipodi:namedview>
  <g
     id="g1"
     inkscape:groupmode="layer"
     inkscape:label="1">
    <g
       id="group-R5">
      <path
         id="path2"
         d="M 0,0 H 40000 V 40000 H 0 Z"
         style="fill:none;fill-opacity:1;fill-rule:nonzero;stroke:none"
         transform="matrix(0.13333333,0,0,-0.13333333,0,5333.3333)" />
      <path
         id="path3"
         d="m 2584.8759,1171.52 c 181.5766,0 328.7622,147.1856 328.7622,328.7622 0,181.5766 -147.1856,328.7622 -328.7622,328.7622 -181.5767,0 -328.7824,-147.1856 -328.7824,-328.7622 0,-181.5766 147.2057,-328.7622 328.7824,-328.7622"
         style="fill:#d17b4d;fill-opacity:1;fill-rule:nonzero;stroke:none;stroke-width:0.201707" />
      <path
         id="path4"
         d="m 633.2396,948.12945 c 181.57665,0 328.78242,147.20575 328.78242,328.78245 0,181.5564 -147.20577,328.7622 -328.78242,328.7622 -181.56656,0 -328.76022,-147.2058 -328.76022,-328.7622 0,-181.5767 147.19366,-328.78245 328.76022,-328.78245"
         style="fill:#d17b4d;fill-opacity:1;fill-rule:nonzero;stroke:none;stroke-width:0.201707" />
      <path
         id="path5"
         d="m 633.2396,948.12945 c 181.57665,0 328.78242,147.20575 328.78242,328.78245 0,181.5564 -147.20577,328.7622 -328.78242,328.7622 -181.56656,0 -328.76022,-147.2058 -328.76022,-328.7622 0,-181.5767 147.19366,-328.78245 328.76022,-328.78245"
         style="fill:#d17b4d;fill-opacity:1;fill-rule:nonzero;stroke:none;stroke-width:0.201707" />
      <path
         id="path6"
         d="m 633.2396,985.70746 c -160.56079,0 -291.19835,130.62544 -291.19835,291.20444 0,160.5587 130.63756,291.1842 291.19835,291.1842 160.57895,0 291.2044,-130.6255 291.2044,-291.1842 0,-160.579 -130.62545,-291.20444 -291.2044,-291.20444 m 0,657.54464 c -201.99544,0 -366.32614,-164.3508 -366.32614,-366.3402 0,-202.0096 164.3307,-366.3403 366.32614,-366.3403 202.00957,0 366.34026,164.3307 366.34026,366.3403 0,201.9894 -164.33069,366.3402 -366.34026,366.3402"
         style="fill:#471a1a;fill-opacity:1;fill-rule:nonzero;stroke:none;stroke-width:0.201707" />
      <path
         id="path7"
         d="m 579.77515,1106.3686 c 130.31482,0 235.96895,105.6339 235.96895,235.9568 0,130.3229 -105.65413,235.9771 -235.96895,235.9771 -130.32088,0 -235.96694,-105.6542 -235.96694,-235.9771 0,-130.3229 105.64606,-235.9568 235.96694,-235.9568"
         style="fill:#ff9696;fill-opacity:1;fill-rule:nonzero;stroke:none;stroke-width:0.201707" />
      <path
         id="path8"
         d="m 579.77515,1143.9264 c -109.39983,0 -198.40506,89.0133 -198.40506,198.399 0,109.4059 89.00523,198.3991 198.40506,198.3991 109.39781,0 198.41111,-88.9932 198.41111,-198.3991 0,-109.3857 -89.0133,-198.399 -198.41111,-198.399 m 0,471.9339 c -150.82642,0 -273.53487,-122.6984 -273.53487,-273.5349 0,-150.8163 122.70845,-273.5348 273.53487,-273.5348 150.82842,0 273.54696,122.7185 273.54696,273.5348 0,150.8365 -122.71854,273.5349 -273.54696,273.5349"
         style="fill:#471a1a;fill-opacity:1;fill-rule:nonzero;stroke:none;stroke-width:0.201707" />
      <path
         id="path9"
         d="m 2584.8759,1171.52 c 181.5766,0 328.7622,147.1856 328.7622,328.7622 0,181.5766 -147.1856,328.7622 -328.7622,328.7622 -181.5767,0 -328.7824,-147.1856 -328.7824,-328.7622 0,-181.5766 147.2057,-328.7622 328.7824,-328.7622"
         style="fill:#d17b4d;fill-opacity:1;fill-rule:nonzero;stroke:none;stroke-width:0.201707" />
      <path
         id="path10"
         d="m 2584.8759,1209.0778 c -160.579,0 -291.2044,130.6456 -291.2044,291.2044 0,160.5588 130.6254,291.2044 291.2044,291.2044 160.5588,0 291.2044,-130.6456 291.2044,-291.2044 0,-160.5588 -130.6456,-291.2044 -291.2044,-291.2044 m 0,657.5447 c -202.0096,0 -366.3403,-164.3509 -366.3403,-366.3403 0,-201.9894 164.3307,-366.3403 366.3403,-366.3403 201.9894,0 366.3201,164.3509 366.3201,366.3403 0,201.9894 -164.3307,366.3403 -366.3201,366.3403"
         style="fill:#471a1a;fill-opacity:1;fill-rule:nonzero;stroke:none;stroke-width:0.201707" />
      <path
         id="path11"
         d="m 2638.3484,1329.7389 c 130.3229,0 235.9569,105.6542 235.9569,235.9569 0,130.3229 -105.634,235.977 -235.9569,235.977 -130.3229,0 -235.977,-105.6541 -235.977,-235.977 0,-130.3027 105.6541,-235.9569 235.977,-235.9569"
         style="fill:#ff9696;fill-opacity:1;fill-rule:nonzero;stroke:none;stroke-width:0.201707" />
      <path
         id="path12"
         d="m 2909.7855,1531.8493 c -2.3398,-18.8596 -6.5958,-37.114 -12.5865,-54.5819 5.4663,-4.2762 10.7913,-8.6935 15.9752,-13.2925 0.2824,5.7285 0.4639,11.5578 0.4639,17.3872 0,17.1652 -1.3111,34.028 -3.8526,50.4872"
         style="fill:#471a1a;fill-opacity:1;fill-rule:nonzero;stroke:none;stroke-width:0.201707" />
      <path
         id="path13"
         d="m 2684.6805,1758.6487 c -15.7331,-71.1421 -36.5291,-145.4913 -63.9411,-220.2237 23.8418,5.4864 48.6719,8.391 74.1677,8.391 48.4298,0 94.4593,-10.5089 135.9101,-29.3484 3.8728,15.4508 5.9302,31.6075 5.9302,48.2484 0,93.4306 -64.9295,171.9955 -152.0669,192.9327"
         style="fill:#da7d7d;fill-opacity:1;fill-rule:nonzero;stroke:none;stroke-width:0.201707" />
      <path
         id="path14"
         d="m 2638.3484,1367.2968 c -109.4059,0 -198.399,89.0133 -198.399,198.4192 0,109.3857 88.9931,198.399 198.399,198.399 109.3857,0 198.399,-89.0133 198.399,-198.399 0,-109.4059 -89.0133,-198.4192 -198.399,-198.4192 m 0,471.954 c -150.8365,0 -273.5349,-122.7185 -273.5349,-273.5348 0,-150.8365 122.6984,-273.5551 273.5349,-273.5551 150.8163,0 273.5349,122.7186 273.5349,273.5551 0,150.8163 -122.7186,273.5348 -273.5349,273.5348"
         style="fill:#471a1a;fill-opacity:1;fill-rule:nonzero;stroke:none;stroke-width:0.201707" />
      <path
         id="path15"
         d="m 5258.0786,2652.715 c 0,1047.2022 -637.5353,1945.5649 -1545.6404,2328.0215 -301.0275,126.6922 -631.9077,196.7451 -979.1261,196.7451 -1394.3602,0 -2524.68994,-1130.3258 -2524.68994,-2524.7666 0,-98.2515 5.63569,-195.2726 16.52989,-290.5993 24.60623,-214.5961 76.07379,-421.0432 151.02408,-615.8316 92.6057,-213.3052 215.07816,-410.6352 379.62065,-575.3693 349.75992,-350.22384 928.98182,-471.46992 1354.80542,-219.11428 332.1106,196.76518 500.4149,552.63688 559.7773,934.14548 59.1606,381.4078 -8.7339,972.2681 160.5184,1100.0898 143.4944,-61.7022 171.9552,-231.8824 239.0228,-401.8003 100.5913,-254.4332 293.9678,-475.8067 543.8021,-587.1893 249.8343,-111.3019 555.259,-103.6774 787.3431,41.0474 -1.1295,-14.5633 -2.5415,-29.0257 -4.135,-43.3872 -56.4578,-511.5088 -392.2192,-962.7879 -848.6822,-1146.5026 -201.7272,-81.22741 -421.5071,-113.1778 -618.9379,-204.45022 -76.8101,-35.60129 -151.8652,-82.09475 -199.9522,-151.96606 -47.9054,-69.79062 -63.0133,-167.27561 -18.7789,-239.50689 0.2824,-0.38325 0.4639,-0.74632 0.7463,-1.12956 13.1513,-21.21958 29.772,-38.32433 48.8333,-52.30263 11.7393,-8.47169 24.4267,-15.6928 37.8604,-21.88521 60.4919,-28.09778 136.0917,-34.39104 207.1934,-34.47172 1077.8214,115.41674 1952.7053,909.05309 2189.5699,1945.66579 40.6641,178.0669 62.4686,363.3751 63.2149,553.5647 0.081,3.671 0.081,7.3219 0.081,10.993"
         style="fill:#ffcc8a;fill-opacity:1;fill-rule:nonzero;stroke:none;stroke-width:0.201707" />
      <path
         id="path16"
         d="M 5159.8877,2103.0029 C 4737.3518,595.36407 3269.2677,276.60649 3048.217,239.79496 c -54.2995,-9.05664 -103.9194,-12.6672 -148.5168,-12.6672 -38.0016,0 -72.3523,2.6222 -102.8908,6.75719 -0.5244,-4.41738 -0.8875,-8.85494 -1.1094,-13.31266 5.7084,-3.38868 11.7596,-6.53531 18.1537,-9.5004 58.7572,-27.31113 135.8093,-30.841 189.423,-31.00237 1076.8935,116.20341 1928.0568,904.59538 2156.611,1922.93338"
         style="fill:#ffebd0;fill-opacity:1;fill-rule:nonzero;stroke:none;stroke-width:0.201707" />
      <path
         id="path17"
         d="m 3807.2203,4126.1443 c -126.9947,0 -234.9483,-97.4043 -240.9793,-273.1718 -0.8875,-52.464 8.4515,-103.7379 23.3576,-153.9629 33.4834,118.7045 124.2112,183.1903 227.5659,183.1903 73.1188,-0.02 152.5712,-32.2933 222.4828,-100.4703 123.1421,-87.1778 269.8638,-346.2502 333.1595,-597.8797 7.2009,-3.3887 14.2808,-7.0598 21.2195,-10.9527 11.699,303.0042 -197.9956,734.98 -364.3232,852.8172 -69.9519,68.177 -149.364,100.4501 -222.4828,100.4299 m -217.5006,-634.2878 c -181.0119,-73.1592 -293.7459,-228.8568 -332.3325,-401.3566 17.609,-38.9698 35.3391,-78.0001 53.7146,-116.6674 66.3011,139.4603 188.0312,253.3642 361.2169,297.9011 -32.1319,71.3236 -64.8085,144.5231 -82.599,220.1229"
         style="fill:#daa874;fill-opacity:1;fill-rule:nonzero;stroke:none;stroke-width:0.201707" />
      <path
         id="path18"
         d="m 2383.5521,4572.3 c -87.4601,0 -177.018,-36.4484 -248.382,-118.523 -50.0233,-57.5672 -88.2468,-120.2174 -116.0218,-186.3369 -82.357,-196.624 -72.312,-424.0285 -6.3538,-639.8752 -18.1738,152.9343 -6.9791,305.2836 44.7588,442.6057 v 0 0 c 11.941,31.6277 26.0403,62.4687 42.4391,92.3415 17.8511,32.5555 38.4252,63.9814 61.9039,93.9954 v 0 0 0 0 c 64.163,82.0746 144.7046,118.5231 223.3502,118.5231 138.7946,0 271.659,-113.5409 298.1027,-290.2161 6.9993,-46.7758 8.7541,-95.5889 8.7541,-145.229 0.02,-50.2654 -1.7952,-101.3578 -1.7952,-152.0266 0,-2.2389 0,-4.4577 0.02,-6.6966 21.4213,-7.7052 42.4795,-16.6409 63.0536,-26.706 -57.9907,164.1289 -10.2467,359.2603 -38.3445,527.9277 -29.4089,176.6752 -177.1592,290.216 -331.4853,290.216"
         style="fill:#daa874;fill-opacity:1;fill-rule:nonzero;stroke:none;stroke-width:0.201707" />
      <path
         id="path19"
         d="m 1867.5453,4616.4134 c -39.817,70.0528 -117.0304,123.2228 -197.7939,141.2554 -121.7302,27.3313 -248.14,-4.599 -368.8213,-36.267 C 1137.5878,4536.6786 998.69235,4352.863 881.48041,4156.1987 819.95978,4053.0659 762.85652,3929.2783 805.21499,3816.867 c 23.09546,23.5593 47.60286,45.263 73.34067,65.353 l 0.10085,0.1009 c 111.38261,86.5928 245.03369,142.4858 377.47449,189.3423 163.0398,57.8496 331.9896,107.0661 475.9882,202.877 79.7348,52.9682 155.0522,128.9512 162.9389,224.4595 3.3887,41.8946 -7.2211,81.8124 -27.5128,117.4137"
         style="fill:#d17b4d;fill-opacity:1;fill-rule:nonzero;stroke:none;stroke-width:0.201707" />
      <path
         id="path20"
         d="m 1867.5453,4616.4134 c -51.0924,-294.0687 -438.5111,-410.9982 -634.6308,-490.2691 -237.79236,-96.0932 -350.78863,-239.3052 -354.25799,-243.8234 111.38261,86.5928 245.03369,142.4858 377.47449,189.3423 163.0398,57.8496 331.9896,107.0661 475.9882,202.877 79.7348,52.9682 155.0522,128.9512 162.9389,224.4595 0.4236,5.2444 0.6253,10.4484 0.6253,15.6121 -0.04,36.1863 -10.3879,70.658 -28.1381,101.8016 v 0"
         style="fill:#edcab8;fill-opacity:1;fill-rule:nonzero;stroke:none;stroke-width:0.201707" />
      <path
         id="path21"
         d="m 4616.1461,2801.2924 c -29.308,119.5719 -71.5657,242.0282 -160.9824,326.6645 -89.4167,84.7169 -237.8125,117.9582 -337.0927,45.0815 -103.5967,-76.1848 -112.5122,-224.0965 -121.9117,-352.3015 -9.4803,-128.3058 -47.7037,-280.0701 -169.5146,-321.1175 -110.838,-37.3763 -227.1019,41.4104 -303.6497,129.8993 -130.5448,150.7356 -209.6341,338.0206 -292.0919,519.5569 -82.5587,181.5565 -174.0328,365.3519 -321.6824,499.3862 -147.7302,134.0141 -365.0695,209.0693 -551.4064,137.786 -219.316,-83.9706 -327.2293,-340.0981 -330.7995,-574.9859 -3.6509,-234.908 71.3035,-463.1193 104.1615,-695.7682 32.9791,-232.548 15.0272,-492.7097 -142.9497,-666.5609 -172.6209,-190.008 -477.1178,-219.4976 -711.0576,-114.025 -233.9599,105.4726 -402.74833,321.6016 -508.7857,555.2792 -247.8495,545.7586 -182.48433,1211.0085 128.30582,1723.5258 310.76998,512.4367 848.66208,870.8297 1432.38198,1007.0222 454.2038,106.0374 932.5318,83.1235 1383.3671,-39.9985 -301.0275,126.6922 -631.9077,196.7451 -979.1261,196.7451 -1337.9024,0 -2432.74181,-1040.6266 -2519.15107,-2356.8455 -3.66098,-55.5098 -5.53887,-111.4835 -5.53887,-167.9211 0,-319.4232 59.26353,-625.1505 167.55397,-906.4309 92.6057,-213.3052 215.07816,-410.6352 379.62065,-575.4499 349.75992,-350.14324 928.98182,-471.38932 1354.80542,-219.03368 332.1106,196.76518 500.4149,552.63688 559.7773,934.14548 59.1606,381.4078 -8.7339,972.2681 160.5184,1100.0898 143.4944,-61.7022 171.9552,-231.8824 239.0228,-401.8003 100.5913,-254.4332 293.9678,-475.8067 543.8021,-587.1893 249.8343,-111.3019 555.259,-103.6774 787.3431,41.0474 -0.2017,-2.2591 -0.3832,-4.5989 -0.5648,-6.8581 -44.0528,-526.4149 -384.978,-995.0004 -852.2524,-1183.0317 -201.7272,-81.22741 -421.5071,-113.1778 -618.9379,-204.45022 -76.8101,-35.60129 -151.8652,-82.09475 -199.9522,-151.96606 -47.9054,-69.79062 -63.0133,-167.27561 -18.7789,-239.50689 21.3204,-34.75412 51.758,-58.79759 87.44,-75.3174 -4.3166,28.44069 -3.2878,56.82087 3.8526,83.48653 28.1784,105.75498 124.9978,180.89084 227.6667,218.93278 102.6487,37.94109 213.3858,46.31193 321.0167,66.40195 474.3947,88.93262 888.7815,420.39773 1113.705,847.35091 224.863,426.9734 266.7374,939.3899 151.8854,1408.157"
         style="fill:#d17b4d;fill-opacity:1;fill-rule:nonzero;stroke:none;stroke-width:0.201707" />
      <path
         id="path22"
         d="m 4781.3441,2488.7272 c 0,0 -31.91,-78.3632 -103.3546,-184.925 2.0372,-316.0143 -66.7651,-631.6253 -213.7288,-910.6668 C 4239.3372,966.18222 3824.9504,634.71711 3350.5557,545.78449 3242.9248,525.69447 3132.1877,517.32363 3029.539,479.38254 2926.8701,441.3406 2830.0507,366.20474 2801.8723,260.44976 c -1.4725,-5.48643 -2.6827,-11.07371 -3.6509,-16.70134 51.2537,49.51907 136.6565,99.96599 277.2463,140.95286 434.6584,126.79302 1736.314,313.61404 1705.8764,2104.02592"
         style="fill:#daa874;fill-opacity:1;fill-rule:nonzero;stroke:none;stroke-width:0.201707" />
      <path
         id="path23"
         d="m 4677.9895,2303.8022 c -55.2072,-82.357 -133.994,-181.5161 -239.9305,-274.4829 -21.8651,-263.7521 -116.0219,-518.0441 -272.5465,-735.7263 -157.1298,-218.5898 -365.715,-384.63505 -603.2048,-480.224 -93.229,-37.53767 -190.835,-64.90931 -285.2137,-91.39344 -111.4431,-31.28476 -226.6784,-63.61839 -331.9694,-112.33063 -89.2554,-41.34994 -147.9723,-85.54394 -184.7435,-139.09715 -36.6703,-53.41202 -56.3771,-135.56728 -17.73,-198.6814 10.4081,-16.98373 23.8821,-31.34527 40.8053,-43.36701 4.5788,5.06285 9.5004,10.16604 14.765,15.24905 0.9682,5.62763 2.1784,11.21491 3.6509,16.70134 28.1784,105.75498 124.9978,180.89084 227.6667,218.93278 102.6487,37.94109 213.3858,46.31193 321.0167,66.40195 474.3947,88.93262 888.7815,420.39773 1113.705,847.35091 146.9637,279.0415 215.766,594.6525 213.7288,910.6668"
         style="fill:#b56843;fill-opacity:1;fill-rule:nonzero;stroke:none;stroke-width:0.201707" />
      <path
         id="path24"
         d="m 2696.0971,5078.5644 c -123.4043,-10.5089 -246.0825,-29.5904 -367.026,-57.8294 -231.479,-53.9969 -455.7368,-142.9497 -661.4982,-262.5821 0.7262,-0.1614 1.4523,-0.3228 2.1785,-0.4841 56.4779,-12.6067 111.2212,-42.3988 152.6518,-83.1437 234.0407,91.8776 482.6042,155.3346 732.5394,183.5332 0,0.4841 0,1.0086 0,1.4927 0,14.3615 1.2304,28.7231 3.671,42.8425 v 0 c 5.5268,31.9303 17.3267,62.6704 35.2584,89.5378 0.04,0.081 0.1009,0.1613 0.1412,0.2219 0.02,0.04 0.04,0.061 0.061,0.081 4.5788,6.8581 9.5609,13.4539 14.9465,19.7472 24.0838,28.1583 54.0978,49.7409 87.0769,66.5834 m 945.5016,-109.6277 c 6.9589,-3.8526 13.8774,-7.7456 20.7758,-11.699 71.5657,-40.9465 146.3183,-95.125 163.1407,-175.9087 9.1978,-44.2747 -4.0745,-90.7883 -31.0629,-126.8535 37.1746,-19.5253 73.7844,-40.4423 109.6681,-62.7713 834.6434,-519.1534 1220.0449,-988.1021 1284.5105,-2339.2566 20.9977,130.4238 31.8899,264.1757 31.8899,400.3077 0,1003.5932 -597.678,1903.7712 -1522.666,2293.3078 -18.6983,7.8666 -37.4368,15.4911 -56.2561,22.8736"
         style="fill:#daa874;fill-opacity:1;fill-rule:nonzero;stroke:none;stroke-width:0.201707" />
      <path
         id="path25"
         d="m 1667.5729,4758.1529 c -248.7249,-144.624 -470.4009,-334.1277 -645.059,-560.9472 225.0446,196.0189 500.7175,359.9058 799.8893,477.3194 -41.4306,40.7449 -96.1739,70.537 -152.6518,83.1437 -0.7262,0.1613 -1.4523,0.3227 -2.1785,0.4841"
         style="fill:#b56843;fill-opacity:1;fill-rule:nonzero;stroke:none;stroke-width:0.201707" />
      <path
         id="path26"
         d="m 2733.3322,5139.9439 c -1371.4462,0 -2487.19052,-1115.7423 -2487.19052,-2487.1886 0,-30.6998 0.55066,-61.2786 1.65198,-91.817 61.03048,447.6887 206.06387,999.4179 542.75724,1401.1174 69.12499,82.478 146.92338,161.1033 231.963,235.15 174.6581,226.8195 396.3341,416.3232 645.059,560.9472 205.7614,119.6324 430.0192,208.5852 661.4982,262.5821 120.9435,28.239 243.6217,47.3205 367.026,57.8294 30.1754,15.3903 62.8519,26.8069 95.7907,35.6215 5.7688,1.5531 11.5376,3.0256 17.3064,4.4174 28.4811,6.858 57.1638,12.2436 85.9474,16.1971 -53.6541,3.429 -107.5905,5.1435 -161.8094,5.1435"
         style="fill:#b56843;fill-opacity:1;fill-rule:nonzero;stroke:none;stroke-width:0.201707" />
      <path
         id="path27"
         d="m 2969.7127,3181.6311 c -501.0806,0 -309.8018,-772.1546 -422.2131,-1398.1119 -76.5075,-426.0254 -429.3132,-875.02518 -941.77,-875.02518 -185.2477,0 -391.3116,58.63623 -612.80607,198.23768 -446.53695,281.4417 -665.82675,998.3488 -745.01692,1451.1407 10.24067,-274.5233 64.96983,-542.3297 163.06801,-797.368 97.57375,-224.5201 222.5272,-413.9633 371.40714,-563.0853 222.22064,-222.52313 526.93934,-341.42941 820.16084,-341.42941 173.5084,0 343.0028,41.6525 488.958,128.12429 364.7467,216.18952 495.937,612.86652 541.7446,907.54032 20.1909,130.0607 25.4353,287.5938 30.4981,439.923 10.0854,303.4883 19.6261,590.1543 144.5029,684.412 6.6362,5.0023 14.6036,7.5842 22.6315,7.5842 5.0226,0 10.0652,-1.0085 14.8255,-3.066 129.7581,-55.7518 174.8195,-185.0056 222.5433,-321.8235 11.4973,-32.9791 23.3779,-67.0474 36.6502,-100.6518 101.5191,-256.8738 292.5357,-463.4218 524.0953,-566.6756 110.6363,-49.2972 229.1795,-73.6836 345.746,-73.6836 144.987,0 286.8879,37.7596 406.4598,112.3105 6.0915,3.7921 12.9899,5.6881 19.8681,5.6881 6.7774,0 13.5346,-1.8154 19.5253,-5.4663 5.0225,-3.0457 9.1373,-7.1606 12.1831,-11.941 l 90.6874,77.3748 c -196.8055,-95.5284 -373.4807,-135.1235 -529.8439,-135.1235 -489.7245,0 -780.9894,387.9027 -874.4201,659.481 -117.5951,341.8934 -262.6225,401.6995 -262.6225,401.6995 39.232,73.6029 98.9373,114.5696 113.1375,119.935"
         style="fill:#edcab8;fill-opacity:1;fill-rule:nonzero;stroke:none;stroke-width:0.201707" />
      <path
         id="path28"
         d="m 4401.8122,3014.9606 c -24.1443,293.403 -210.9452,659.7029 -362.1649,766.769 -191.3998,186.6193 -454.0021,104.2624 -463.5025,-172.7217 -1.9566,-117.8574 47.7239,-229.7241 96.1739,-337.2743 -408.255,-104.9885 -530.5499,-595.4592 -315.0058,-897.4146 52.5043,-73.6231 125.0986,-135.9909 218.4688,-178.9141 209.0693,-47.5222 531.3971,-30.9822 683.2623,456.0797 119.7535,61.4198 156.2019,201.2834 142.7682,363.476"
         style="fill:#d17b4d;fill-opacity:1;fill-rule:nonzero;stroke:none;stroke-width:0.201707" />
      <path
         id="path29"
         d="m 3817.1645,3882.1999 c -127.0351,0 -234.9887,-97.3842 -241.0197,-273.192 -0.04,-2.2995 -0.04,-4.5989 -0.04,-6.8984 0.02,-115.336 48.7123,-224.9235 96.2143,-330.3759 v 0 0 c -173.1857,-44.5369 -294.9158,-158.4408 -361.2169,-297.9011 -38.869,-81.7316 -58.6968,-172.2376 -58.6766,-262.7233 0.02,-119.0475 34.3709,-237.9941 104.8877,-336.7902 -6.5757,142.2034 9.6819,287.8762 82.841,408.4768 70.4563,116.1631 238.3168,229.5426 380.1169,229.5426 9.3793,0 18.6175,-0.4841 27.7347,-1.5128 0.7261,-0.081 1.4523,-0.121 2.1582,-0.121 15.0272,0 23.9628,18.0124 14.18,30.256 -48.5307,60.6937 -97.6463,128.5479 -97.7875,201.586 -0.2017,63.8604 16.1366,97.2833 66.0994,136.9187 29.9131,23.7611 68.0963,34.2902 106.5214,34.3104 16.7014,0 33.4431,-1.9969 49.5796,-5.7487 53.3314,-12.4049 101.0552,-41.9954 144.8257,-74.8534 111.7456,-84.1522 203.7039,-194.0422 268.2299,-318.213 -24.1443,293.403 -210.9452,659.7029 -362.1649,766.769 -69.9116,68.177 -149.364,100.4703 -222.4828,100.4703"
         style="fill:#b56843;fill-opacity:1;fill-rule:nonzero;stroke:none;stroke-width:0.201707" />
      <path
         id="path30"
         d="m 4347.7346,2730.0293 c -22.1474,-32.6564 -51.3748,-59.4027 -88.6906,-78.5447 -0.4437,-1.4321 -0.8875,-2.8239 -1.3313,-4.256 41.4105,9.9038 70.1336,42.0155 90.0219,82.8007"
         style="fill:#edcab8;fill-opacity:1;fill-rule:nonzero;stroke:none;stroke-width:0.201707" />
      <path
         id="path31"
         d="M 4392.0496,2986.6409 C 4346.726,2729.4443 4210.2713,2693.359 4137.213,2693.359 c -28.5012,0 -47.3608,5.5066 -47.3608,5.5066 56.6595,-38.8488 102.7092,-54.8038 140.1662,-54.8038 9.8029,0 19.0209,1.0892 27.6943,3.1668 0.4438,1.4321 0.8876,2.8239 1.3313,4.256 37.3158,19.142 66.5432,45.8883 88.6906,78.5447 49.4585,101.499 44.315,256.6116 44.315,256.6116"
         style="fill:#edcab8;fill-opacity:1;fill-rule:nonzero;stroke:none;stroke-width:0.201707" />
      <path
         id="path32"
         d="m 410.97462,1760.5044 c -109.3736,284.3464 -164.83294,584.5469 -164.83294,892.2509 0,1371.4463 1115.74432,2487.1886 2487.19052,2487.1886 334.4303,0 658.9566,-65.2321 964.5226,-193.8808 924.988,-389.5366 1522.666,-1289.7146 1522.666,-2293.3078 0,-1273.6385 -953.0858,-2336.2915 -2217.2441,-2472.68578 -53.6137,0.16137 -130.6658,3.69124 -189.423,31.00237 -31.9302,14.76495 -55.2072,34.65326 -71.2026,60.79449 -38.6471,63.11412 -18.9403,145.26938 17.73,198.6814 36.7712,53.55321 95.4881,97.74721 184.7435,139.09715 105.291,48.71224 220.5263,81.04587 331.9694,112.33063 94.3787,26.48413 191.9847,53.85577 285.2137,91.39344 237.4898,95.58895 446.075,261.6342 603.2048,480.224 157.6743,219.2959 252.0732,475.726 273.0306,741.5557 1.1094,14.1396 -5.8294,27.6943 -17.9519,35.0566 -12.1226,7.3623 -27.3515,7.2817 -39.3934,-0.2218 -215.6853,-134.4579 -503.9045,-149.2632 -752.2058,-38.6269 -231.5596,103.2538 -422.5762,309.8018 -524.0953,566.6756 -13.2723,33.6044 -25.1529,67.6727 -36.6502,100.6518 -47.7238,136.8179 -92.7852,266.0717 -222.5433,321.8235 -12.3646,5.3251 -26.6858,3.6106 -37.457,-4.5182 -124.8768,-94.2577 -134.4175,-380.9237 -144.5029,-684.412 -5.0628,-152.3292 -10.3072,-309.8623 -30.4981,-439.923 C 2587.4376,1596.9805 2456.2473,1200.3035 2091.5006,984.11398 1698.898,751.50546 1136.1153,843.22164 782.38176,1197.4191 633.50182,1346.5411 508.54837,1535.9843 410.97462,1760.5044 M 2733.3322,5215.0797 c -684.412,0 -1327.8573,-266.5356 -1811.83312,-750.4912 C 437.53742,3980.6127 171.01389,3337.1674 171.01389,2652.7553 c 0,-317.2246 57.23234,-626.744 170.1217,-919.9654 0.18759,-0.4841 0.39333,-0.9884 0.60109,-1.4523 101.38399,-233.5364 231.74521,-431.0277 387.47512,-587.0077 178.32916,-178.57126 415.8997,-301.41082 668.9613,-345.94773 262.1989,-46.13039 521.9975,-3.12646 731.6316,121.08471 389.9602,231.13602 529.38,650.00082 577.6889,960.64982 20.8968,134.5587 26.2017,294.3913 31.3452,448.9594 8.5121,256.2889 17.3267,520.7873 98.3927,611.7975 83.8496,-48.3895 119.3904,-150.312 160.0545,-266.939 11.7595,-33.6649 23.9023,-68.4796 37.7192,-103.4959 108.6999,-275.0275 314.0377,-496.522 563.3879,-607.7029 246.7481,-109.9504 530.3078,-105.876 757.7123,7.2615 -64.0218,-480.9098 -387.2169,-911.9779 -821.8552,-1086.91836 -89.4368,-36.0047 -185.0056,-62.83173 -277.4479,-88.77125 -114.3074,-32.07142 -232.4875,-65.23205 -343.2449,-116.4858 -102.0234,-47.25995 -170.3819,-99.60292 -215.1205,-164.75428 -60.5524,-88.24681 -68.54,-200.92034 -19.8681,-280.41307 23.64,-38.64707 58.5354,-68.8426 103.6774,-89.73945 72.9171,-33.88678 162.1724,-37.90075 222.9669,-37.98143 1.5128,0.0807 2.7029,0.0807 4.0341,0.22188 624.7472,66.88604 1201.9519,361.53963 1625.2341,829.68142 426.3682,471.55064 661.1753,1081.65384 661.1753,1717.91834 0,1033.8896 -615.7308,1961.2577 -1568.6552,2362.5538 -314.8444,132.5619 -649.1738,199.7706 -993.6692,199.7706"
         style="fill:#471a1a;fill-opacity:1;fill-rule:nonzero;stroke:none;stroke-width:0.201707" />
      <path
         id="path33"
         d="m 4411.4538,2000.1928 c 49.9427,31.7487 94.3182,69.8108 134.6193,110.7775 40.301,41.0272 76.5881,85.08 110.1522,130.686 67.0474,91.3733 123.2833,188.8986 174.2143,288.4007 5.8092,11.3359 1.3313,25.2133 -10.0047,31.0225 -11.0132,5.6276 -24.4468,1.5531 -30.5384,-9.097 l -0.04,-0.1008 c -54.3601,-95.6697 -113.6014,-188.5356 -181.6977,-273.2929 -34.0683,-42.3181 -70.3554,-82.5385 -109.4664,-119.0273 -39.0908,-36.4282 -81.1064,-69.1653 -126.0669,-95.0443 l -0.081,-0.06 c -17.9922,-10.3476 -24.1645,-33.322 -13.8169,-51.3143 10.3476,-17.9721 33.3422,-24.1645 51.3143,-13.8169 0.4437,0.2622 0.9883,0.5849 1.4119,0.8673"
         style="fill:#471a1a;fill-opacity:1;fill-rule:nonzero;stroke:none;stroke-width:0.201707" />
      <path
         id="path34"
         d="m 1310.4507,4685.0946 c 41.8542,10.2265 83.1436,20.675 124.191,28.5012 41.0474,7.9271 81.8124,13.3328 122.0529,14.7649 39.938,0.9481 80.1785,-2.3801 116.7682,-12.5663 9.1575,-2.0171 17.8914,-5.9302 26.8875,-8.7944 8.5928,-4.014 17.6494,-6.9791 25.9396,-11.7192 17.2257,-8.149 32.9387,-19.0815 48.1071,-30.3771 14.6842,-11.9007 28.4407,-24.8705 40.1397,-39.2723 11.2552,-14.5633 21.9457,-29.7518 28.7029,-46.2918 7.1404,-16.3181 12.3848,-33.3422 13.6354,-50.6285 1.8355,-17.1854 0.9278,-34.7541 -3.187,-52.0807 -7.8666,-34.6331 -27.2103,-67.7937 -52.7464,-97.3035 -25.6571,-29.5299 -57.1032,-55.4694 -91.0505,-78.4236 -68.8023,-46.5742 -145.2896,-82.9016 -224.3184,-114.6301 -79.0288,-31.9706 -160.7,-59.8263 -242.2299,-90.2236 -81.53,-30.4981 -162.9793,-63.8806 -240.0314,-106.9652 -76.95118,-42.8022 -149.9086,-95.1049 -210.74343,-159.873 -6.65634,-7.0799 -6.31343,-18.2343 0.78665,-24.9108 6.89838,-6.4748 17.68971,-6.2932 24.40655,0.2824 60.18937,59.08 131.43228,105.997 207.01193,144.1398 75.7813,38.0621 155.5766,68.5401 236.8645,95.9521 81.3484,27.5733 164.3509,52.7463 246.5465,83.3856 81.9939,30.7805 163.6449,66.9869 239.3657,115.679 38.1428,24.5679 74.8333,53.0489 106.7837,88.1056 31.668,34.9558 59.0799,77.5564 71.7068,127.257 1.3514,6.2327 3.0458,12.3848 4.014,18.7385 0.8471,6.3538 1.8557,12.6672 2.481,19.0815 0.2622,12.9093 1.4119,25.9194 -0.3833,38.7479 -1.775,25.879 -8.9961,50.9512 -18.8798,74.208 -9.581,23.6199 -23.5997,44.4563 -38.5462,64.0824 -15.37,19.3638 -32.9589,36.4282 -51.7176,51.8992 -19.1622,14.8254 -39.111,28.7836 -60.8147,39.5345 -10.5291,6.0109 -21.9457,10.2669 -32.9791,15.2693 -11.5578,3.8324 -22.7727,8.5523 -34.7339,11.3157 -46.8566,12.8488 -93.7535,16.2778 -140.1259,15.1482 -46.2111,-1.5531 -91.3531,-8.0279 -135.0025,-17.3266 -43.7502,-9.0567 -86.2096,-20.3926 -127.9629,-32.0109 -20.0094,-5.5671 -31.6882,-26.2824 -26.1412,-46.2716 5.446,-19.5857 25.4352,-31.2041 45.0411,-26.4438 l 0.1614,0.02"
         style="fill:#471a1a;fill-opacity:1;fill-rule:nonzero;stroke:none;stroke-width:0.201707" />
      <path
         id="path35"
         d="m 3667.6794,3310.2798 c -102.5075,-27.654 -195.4944,-83.305 -269.7831,-156.6255 -74.329,-73.3003 -130.6255,-164.9963 -159.2275,-265.4867 -28.5819,-100.4703 -28.7836,-207.254 -4.5182,-307.2401 24.2451,-99.9862 73.1793,-194.0623 143.4338,-269.0368 7.2615,-7.7254 19.3841,-8.1087 27.1094,-0.8674 7.5842,7.1001 8.0885,18.9403 1.2708,26.6859 -63.1948,71.7471 -105.9164,160.6596 -125.4416,253.7474 -19.5858,93.0878 -16.0357,190.9157 12.5058,280.3929 28.4609,89.4772 81.8124,170.5634 150.4735,234.1818 68.6408,63.6991 152.9544,110.2329 242.6938,131.4323 20.1909,4.7805 32.6967,25.0117 27.9364,45.2025 -4.7804,20.2111 -25.0116,32.7169 -45.2025,27.9365 -0.3429,-0.081 -0.6656,-0.1614 -1.0085,-0.2421 l -0.2421,-0.081"
         style="fill:#471a1a;fill-opacity:1;fill-rule:nonzero;stroke:none;stroke-width:0.201707" />
      <path
         id="path36"
         d="m 3849.135,3074.5448 c -32.7572,48.7123 -65.2118,96.7186 -95.5082,145.8947 -30.2561,49.156 -59.0397,99.018 -82.6999,150.8769 -23.2972,51.8588 -42.2778,105.5532 -51.7984,159.7721 -9.8231,54.0575 -10.045,108.7604 4.3771,158.0778 7.2009,24.6486 18.0729,47.8247 32.3941,68.9232 l 11.5578,15.3298 c 3.9535,5.0225 8.5726,9.5811 12.8084,14.4422 8.5726,9.6214 17.8914,17.2863 27.533,24.7494 19.6866,13.938 41.5113,23.5393 65.0304,27.9365 23.5594,4.1551 48.6517,3.671 73.8046,-1.6339 25.173,-4.9821 50.3259,-14.0993 74.4702,-26.1008 24.1847,-11.9613 47.6029,-26.4438 69.5889,-43.125 43.9923,-33.1808 83.426,-73.9256 113.7426,-119.2088 l 0.2622,-0.3833 c 0.6455,-0.9682 1.3716,-1.9565 2.1179,-2.8441 27.0489,-32.8177 50.9311,-72.1707 72.9373,-111.8263 21.9255,-39.9783 42.0357,-81.3081 60.5928,-123.364 37.0132,-84.1522 67.9349,-171.33 90.8891,-260.081 11.3158,-44.4159 20.5742,-89.2554 26.6859,-134.236 6.1319,-44.9202 9.1777,-90.1429 6.5958,-134.3974 -2.7029,-44.0327 -10.9123,-87.6821 -29.7114,-124.7961 -18.4562,-37.2755 -48.3492,-66.3011 -86.4718,-82.4982 l 3.1063,1.0287 c -29.772,-8.149 -62.6301,-6.5757 -92.281,4.6998 -29.8728,11.1342 -56.1552,31.9302 -77.6774,57.4663 l -0.2017,0.242 c -7.6447,9.0567 -21.159,10.2266 -30.2358,2.5819 -8.855,-7.4632 -10.1257,-20.5741 -3.0458,-29.6308 24.2048,-30.9015 55.7316,-58.1521 93.8946,-73.9256 37.9411,-15.8945 81.2072,-19.8278 122.1134,-10.0853 0.8068,0.1815 1.5733,0.4236 2.3196,0.7059 l 0.8069,0.3228 c 24.4267,9.5004 47.6835,23.4787 67.6122,41.3096 19.9891,17.8309 35.8433,39.6757 48.2684,62.6098 24.7293,46.2716 34.8752,96.7185 39.1917,145.7938 7.7052,98.7356 -7.2211,194.9902 -29.066,288.0982 -22.45,93.1684 -52.9481,183.7954 -89.921,271.8607 -18.557,44.0124 -38.7075,87.4399 -61.3996,129.9194 -22.9946,42.4594 -47.1187,84.1522 -79.17,124.2314 l 2.3802,-3.2475 c -35.1374,53.8356 -78.928,100.0063 -129.0925,138.9761 -25.0722,19.5051 -52.1009,36.7914 -80.9249,51.516 -28.8037,14.7246 -59.7052,26.585 -92.7045,33.6245 -32.7976,7.3018 -68.0761,8.976 -103.0521,3.1668 -34.9558,-5.8091 -68.8829,-20.4934 -97.4447,-41.007 -13.9581,-10.5089 -27.4724,-22.0062 -38.7277,-34.4515 -5.5873,-6.2731 -11.4771,-12.2437 -16.7215,-18.8395 l -15.2692,-20.2312 c -19.1219,-27.9364 -33.8061,-59.08 -43.2662,-91.3531 -9.5206,-32.2933 -13.9984,-65.5548 -14.6237,-98.2918 -0.4841,-32.7976 3.2878,-64.9093 9.1373,-96.1941 11.7797,-62.6703 33.564,-121.5083 59.4229,-177.5223 13.1714,-27.8961 27.4523,-55.1467 42.661,-81.7519 15.6928,-26.3227 31.8899,-52.2824 49.9427,-76.9108 35.8433,-49.3376 75.983,-95.6092 122.4361,-135.3253 9.1978,-7.8665 23.0551,-6.7975 30.9419,2.4205 6.5353,7.6649 6.8983,18.5167 1.5329,26.4841 l -0.1412,0.2017"
         style="fill:#471a1a;fill-opacity:1;fill-rule:nonzero;stroke:none;stroke-width:0.201707" />
      <path
         id="path37"
         d="m 3597.4047,3664.8404 c 59.5842,6.4344 126.087,-8.0078 183.5534,-44.6781 -40.3616,54.945 -102.0638,99.0785 -175.7877,119.4105 l -1.6943,0.464 c -20.4329,5.6276 -41.592,-6.374 -47.2196,-26.8069 -5.6478,-20.4531 6.3739,-41.592 26.8068,-47.2398 4.7603,-1.3111 9.7021,-1.654 14.3414,-1.1497"
         style="fill:#471a1a;fill-opacity:1;fill-rule:nonzero;stroke:none;stroke-width:0.201707" />
      <path
         id="path38"
         d="m 2767.5014,3454.1373 c -123.8884,180.1445 -53.3515,425.0773 -84.1522,630.6772 -41.4306,276.7824 -344.0314,398.5933 -521.4529,171.693 -45.0008,-57.5873 -79.3717,-120.2173 -104.343,-186.3369 -133.288,-353.8142 2.5213,-807.2516 216.1088,-1113.7252 l 0.1816,-0.3631 0.1008,-0.1008 c 6.9388,-9.9644 13.9985,-19.8278 21.0381,-29.3887 l 496.179,496.6429 c -8.633,10.0451 -16.5198,20.3725 -23.6602,30.9016"
         style="fill:#d17b4d;fill-opacity:1;fill-rule:nonzero;stroke:none;stroke-width:0.201707" />
      <path
         id="path39"
         d="m 2385.2465,4375.0306 c -78.6456,0 -159.1872,-36.4485 -223.3502,-118.5231 v 0 c -16.2374,-36.5694 -29.8325,-73.9659 -41.0877,-111.907 76.3663,70.5369 168.3648,99.1592 248.8863,99.1592 29.4492,0 57.3654,-3.8325 82.4174,-10.8317 168.5867,-47.2398 173.4681,-620.9954 207.0926,-729.6751 15.9954,-51.8589 41.3701,-65.4337 63.5176,-65.4337 24.3258,0 44.7789,16.3181 44.7789,16.3181 -67.1483,97.6261 -77.1731,214.3136 -77.1933,333.4216 0,50.6688 1.8154,101.7612 1.7952,152.0266 0,49.6401 -1.7548,98.4532 -8.7541,145.229 -26.4437,176.6752 -159.3081,290.2161 -298.1027,290.2161 m -285.2541,-212.5185 c -16.3988,-29.8728 -30.4981,-60.7138 -42.4391,-92.3415 0.04,0.061 0.081,0.1412 0.1412,0.2219 11.9208,31.5671 25.9597,62.3073 42.2979,92.1196"
         style="fill:#b56843;fill-opacity:1;fill-rule:nonzero;stroke:none;stroke-width:0.201707" />
      <path
         id="path40"
         d="m 2161.8963,4256.5075 c -23.4787,-30.014 -44.0528,-61.4399 -61.9039,-93.9954 17.8511,32.5555 38.4454,63.9613 61.9039,93.9954 v 0"
         style="fill:#f0dcc7;fill-opacity:1;fill-rule:nonzero;stroke:none;stroke-width:0.201707" />
      <path
         id="path41"
         d="m 2271.3829,2959.7332 c 0.04,-0.061 0.1008,-0.1613 0.1613,-0.2219 -0.081,0.081 -0.1008,0.1412 -0.1613,0.2219 m 0.6051,-0.8875 c 0.1008,-0.1412 0.1815,-0.2622 0.2824,-0.3832 -0.1009,0.121 -0.1816,0.242 -0.2824,0.3832 m 0.5042,-0.7261 c 0.1614,-0.2219 0.3228,-0.464 0.4841,-0.6858 -0.1613,0.2218 -0.3227,0.4639 -0.4841,0.6858 m 0.6253,-0.8875 c 0.1816,-0.2824 0.3631,-0.5245 0.5446,-0.7867 -0.1815,0.2622 -0.363,0.5244 -0.5446,0.7867"
         style="fill:#edcab8;fill-opacity:1;fill-rule:nonzero;stroke:none;stroke-width:0.201707" />
      <path
         id="path42"
         d="m 2120.8086,4144.6005 c -22.6517,-20.9372 -43.9318,-45.5656 -63.1141,-74.208 -133.0056,-352.5233 1.3917,-804.1857 213.6884,-1110.6593 0.061,-0.081 0.081,-0.1412 0.1613,-0.2219 0.1412,-0.2218 0.3026,-0.4437 0.4438,-0.6656 0.1008,-0.1412 0.1815,-0.2622 0.2824,-0.3832 0.061,-0.1211 0.1412,-0.2421 0.2218,-0.3429 0.1614,-0.2219 0.3228,-0.464 0.4841,-0.6858 0.04,-0.061 0.1009,-0.1412 0.1412,-0.2017 0.1816,-0.2623 0.3631,-0.5245 0.5446,-0.7867 v 0 c -8.9356,18.9403 -309.9429,658.2103 -152.8535,1188.1551"
         style="fill:#edcab8;fill-opacity:1;fill-rule:nonzero;stroke:none;stroke-width:0.201707" />
      <path
         id="path43"
         d="m 2161.8963,4256.5075 c -23.4585,-30.0341 -44.0528,-61.4399 -61.9039,-93.9954 -16.3382,-29.8123 -30.3771,-60.5525 -42.2979,-92.1196 19.1823,28.6424 40.4624,53.2708 63.1141,74.208 11.2552,37.9411 24.8503,75.3376 41.0877,111.907"
         style="fill:#e1c3b4;fill-opacity:1;fill-rule:nonzero;stroke:none;stroke-width:0.201707" />
      <path
         id="path44"
         d="m 3688.314,3806.5799 c 53.755,1.6943 111.2818,-10.993 164.3711,-38.7681 -37.0939,47.0381 -88.146,86.9156 -149.1623,112.3306 l -1.5734,0.6657 c -19.7067,8.2095 -42.2979,-1.1094 -50.5074,-20.796 -8.2095,-19.6866 1.1094,-42.298 20.796,-50.4873 5.1839,-2.1784 10.7913,-3.1063 16.076,-2.9449"
         style="fill:#471a1a;fill-opacity:1;fill-rule:nonzero;stroke:none;stroke-width:0.201707" />
      <path
         id="path45"
         d="m 2497.5973,4357.5628 c -34.1087,-16.4795 -63.1142,-40.7852 -83.8295,-69.3671 -20.8161,-28.5617 -33.322,-61.1374 -37.6183,-93.3096 15.5112,28.5818 37.3965,51.9799 62.3073,68.0761 24.931,16.1567 52.6455,24.9915 79.6742,27.0489 19.8883,1.5128 34.7945,18.8596 33.2817,38.7479 -1.5128,19.9085 -18.8596,34.7945 -38.7479,33.3018 -4.5989,-0.3631 -8.9356,-1.5531 -12.8689,-3.429 l -2.1986,-1.069"
         style="fill:#471a1a;fill-opacity:1;fill-rule:nonzero;stroke:none;stroke-width:0.201707" />
      <path
         id="path46"
         d="m 2591.2095,4250.7186 c -18.9806,-22.1475 -35.4803,-46.1103 -48.4904,-71.1421 -13.0504,-25.0117 -22.5912,-50.9915 -29.1668,-77.0319 17.0846,20.7556 36.0249,39.1715 56.3973,54.5617 20.3522,15.4306 42.0559,27.8356 64.526,37.8201 18.3352,8.149 26.585,29.6106 18.4361,47.9659 -8.1288,18.3352 -29.6106,26.6052 -47.966,18.4562 -5.0426,-2.2591 -9.339,-5.5066 -12.7277,-9.4399 l -1.0085,-1.19"
         style="fill:#471a1a;fill-opacity:1;fill-rule:nonzero;stroke:none;stroke-width:0.201707" />
      <path
         id="path47"
         d="m 3825.5152,4781.329 c -16.8224,80.7837 -91.575,134.9622 -163.1407,175.9087 -257.3378,147.3671 -564.9409,230.8738 -853.1803,161.3656 -74.7526,-18.1335 -150.1708,-48.1878 -200.1538,-106.6022 -26.5648,-31.083 -43.4679,-69.4074 -50.4268,-109.6076 -11.2754,-65.1715 3.3887,-135.1437 44.4159,-187.2849 79.4726,-100.7728 225.0445,-119.1685 352.8662,-108.3772 111.6852,9.4802 225.3269,34.7541 335.2976,20.1102 15.8743,-2.0776 31.6478,-4.9822 47.3406,-8.9356 l 356.2348,-26.2018 c 84.7169,13.5346 148.2143,105.5735 130.7465,189.6248"
         style="fill:#d17b4d;fill-opacity:1;fill-rule:nonzero;stroke:none;stroke-width:0.201707" />
      <path
         id="path48"
         d="m 2558.654,4902.3935 h -0.04 v 0 c -2.4406,-14.1194 -3.671,-28.481 -3.671,-42.8425 0,-51.8387 15.955,-103.6169 48.0869,-144.4424 66.644,-84.5152 179.8218,-111.1002 290.0143,-111.1002 21.1793,0 42.2375,0.9883 62.8519,2.723 87.5409,7.443 176.292,24.5679 263.5302,24.5679 24.0637,0 48.0063,-1.2909 71.7674,-4.4577 l 10.6098,6.6563 c 0,0 -52.4842,37.8403 -159.4494,37.8403 -16.0559,0 -33.3422,-0.8472 -51.8589,-2.8038 -29.0659,-3.1062 -67.7332,-5.7083 -110.959,-5.7083 -134.6596,0 -313.9166,25.2134 -387.7615,138.9963 -6.1521,-14.8053 -10.7712,-30.2762 -13.8371,-46.0698 -21.502,45.021 -27.8558,97.2429 -19.2832,146.6409"
         style="fill:#edcab8;fill-opacity:1;fill-rule:nonzero;stroke:none;stroke-width:0.201707" />
      <path
         id="path49"
         d="m 3180.2141,4808.9629 c 163.2011,-13.6758 300.7653,38.0419 307.2401,115.4772 6.495,77.4353 -120.5603,151.2803 -283.7816,164.9358 -163.2011,13.6556 -300.7653,-38.0419 -307.2602,-115.4772 -6.4748,-77.4353 120.5804,-151.2803 283.8017,-164.9358"
         style="fill:#ffcc8a;fill-opacity:1;fill-rule:nonzero;stroke:none;stroke-width:0.201707" />
      <path
         id="path50"
         d="m 2696.1375,5078.5644 h -0.04 c -32.9791,-16.8425 -62.9931,-38.4251 -87.0769,-66.5834 -5.3856,-6.2933 -10.3677,-12.8891 -14.9465,-19.7472 4.5989,6.8581 9.5811,13.4741 14.9667,19.7673 24.104,28.1583 54.0978,49.741 87.0971,66.5633"
         style="fill:#bd8c62;fill-opacity:1;fill-rule:nonzero;stroke:none;stroke-width:0.201707" />
      <path
         id="path51"
         d="m 2791.8878,5114.1859 c -32.9388,-8.8146 -65.6153,-20.2312 -95.7907,-35.6215 h 0.04 c 30.1552,15.3701 62.8317,26.7666 95.7503,35.6215"
         style="fill:#9f583b;fill-opacity:1;fill-rule:nonzero;stroke:none;stroke-width:0.201707" />
      <path
         id="path52"
         d="m 2594.0132,4992.1532 c -0.04,-0.061 -0.1008,-0.1412 -0.1412,-0.2219 0.061,0.081 0.1009,0.1613 0.1412,0.2219"
         style="fill:#bd8c62;fill-opacity:1;fill-rule:nonzero;stroke:none;stroke-width:0.201707" />
      <path
         id="path53"
         d="m 3023.1045,5143.4132 c -71.7875,0 -143.4338,-7.8464 -213.9304,-24.8301 -5.7688,-1.3918 -11.5377,-2.8642 -17.2863,-4.3972 -32.9186,-8.8549 -65.5951,-20.2514 -95.7503,-35.6215 -32.9993,-16.8223 -62.9931,-38.405 -87.0971,-66.5633 -5.3856,-6.2932 -10.3678,-12.9092 -14.9667,-19.7673 -0.02,-0.02 -0.04,-0.04 -0.061,-0.081 -0.04,-0.061 -0.081,-0.1412 -0.1412,-0.2219 -17.9317,-26.8674 -29.6913,-57.6075 -35.218,-89.5378 h 0.061 c 3.2071,-39.4538 14.9666,-72.675 33.0598,-100.5711 8.754,21.0582 20.6346,40.765 35.5609,58.1925 49.9628,58.4143 125.3811,88.5695 200.1539,106.6022 23.1559,5.5872 46.4329,10.1862 69.8108,13.8572 11.9814,65.5548 119.4307,111.1002 254.5139,111.1002 16.903,0 34.2498,-0.7261 51.8588,-2.1986 163.2213,-13.6555 290.2766,-87.5005 283.7816,-164.9358 -0.6454,-7.8867 -2.6625,-15.4911 -5.9302,-22.813 68.7619,-27.291 135.4866,-59.8263 199.1454,-96.2748 50.8906,-29.2072 103.4958,-64.99 135.5269,-112.4315 11.5578,27.8961 15.4911,58.6161 9.2987,88.388 -16.8224,80.8644 -91.575,134.9622 -163.1406,175.9087 -194.4053,111.3221 -417.4932,186.1957 -639.2499,186.1957"
         style="fill:#b56843;fill-opacity:1;fill-rule:nonzero;stroke:none;stroke-width:0.201707" />
      <path
         id="path54"
         d="m 2558.7145,4902.3935 h -0.061 c -8.5726,-49.398 -2.2188,-101.6199 19.2832,-146.6409 3.0659,15.7936 7.685,31.2645 13.8371,46.0698 -18.0932,27.8961 -29.8527,61.1173 -33.0598,100.5711"
         style="fill:#cca798;fill-opacity:1;fill-rule:nonzero;stroke:none;stroke-width:0.201707" />
      <path
         id="path55"
         d="m 3151.8138,5091.5745 c -135.0832,0 -242.5325,-45.5454 -254.5139,-111.1002 47.8247,7.4834 96.0327,11.0334 144.3012,11.0334 149.0816,0 298.7684,-33.8464 439.9229,-89.8806 3.2677,7.3219 5.2848,14.9263 5.9302,22.813 6.495,77.4353 -120.5603,151.2803 -283.7816,164.9358 -17.609,1.4725 -34.9558,2.1986 -51.8588,2.1986"
         style="fill:#daa874;fill-opacity:1;fill-rule:nonzero;stroke:none;stroke-width:0.201707" />
      <path
         id="path56"
         d="m 1824.4405,4614.3761 c -16.5198,-61.6618 -48.0265,-122.2949 -93.4307,-174.6177 61.0365,32.7572 116.8892,80.824 160.7807,141.2957 l 0.6454,0.8875 c 12.4252,17.125 8.6331,41.0877 -8.4919,53.5129 -17.1047,12.4251 -41.0675,8.6331 -53.4926,-8.4919 -2.8038,-3.8727 -4.8208,-8.2296 -6.0109,-12.5865"
         style="fill:#471a1a;fill-opacity:1;fill-rule:nonzero;stroke:none;stroke-width:0.201707" />
      <path
         id="path57"
         d="m 1754.6095,4719.2839 c -33.8262,-55.4291 -80.5618,-105.997 -137.7457,-146.1165 67.6525,17.3669 134.0545,49.4585 193.1143,95.3267 l 0.7866,0.6051 c 16.7014,12.9698 19.727,37.0133 6.7572,53.7146 -12.9697,16.7013 -37.0334,19.7269 -53.7145,6.7572 -3.7316,-2.9046 -6.8581,-6.495 -9.1979,-10.2871"
         style="fill:#471a1a;fill-opacity:1;fill-rule:nonzero;stroke:none;stroke-width:0.201707" />
      <path
         id="path58"
         d="m 2605.1676,4783.9512 c 14.3817,19.6664 36.7914,36.4081 63.4167,46.2716 26.585,9.9038 57.426,13.1916 88.3275,6.6563 -25.8992,18.0931 -58.6967,28.9651 -93.35,30.5788 -34.6129,1.6136 -71.5858,-5.8092 -105.4524,-24.931 l -3.3282,-1.8759 c -18.6579,-10.5291 -25.2537,-34.2095 -14.7246,-52.8674 10.5291,-18.6579 34.2095,-25.2537 52.8674,-14.7246 4.9015,2.7836 9.097,6.6362 12.2436,10.8922"
         style="fill:#471a1a;fill-opacity:1;fill-rule:nonzero;stroke:none;stroke-width:0.201707" />
      <path
         id="path59"
         d="m 2609.2017,4934.7675 c 52.3027,29.0458 123.001,37.0738 189.4231,14.5229 -54.239,44.4361 -131.3718,68.3182 -211.1671,57.4058 l -2.0977,-0.2824 c -21.0179,-2.8844 -35.7223,-22.2482 -32.8379,-43.2661 2.8642,-21.0179 22.2281,-35.7223 43.246,-32.8379 4.8208,0.6455 9.4197,2.2591 13.4336,4.4577"
         style="fill:#471a1a;fill-opacity:1;fill-rule:nonzero;stroke:none;stroke-width:0.201707" />
      <path
         id="path60"
         d="m 2309.6467,2937.3841 c -65.9179,95.7301 -121.4478,198.52 -164.7745,306.0097 -43.0241,107.5098 -76.1847,219.0336 -93.2289,332.7964 -17.2258,113.561 -18.6176,229.2803 1.0085,340.6629 19.6866,111.2414 63.1948,217.42 130.5448,306.393 16.4996,22.3289 33.7859,41.7331 54.0373,58.3941 20.0496,16.54 42.076,30.0746 65.5144,39.5548 46.796,19.2227 99.3205,21.3406 147.9319,6.3538 48.6921,-14.6641 92.7449,-45.6463 126.0064,-85.9272 33.6447,-40.2002 56.3973,-89.7193 67.7332,-142.143 l 3.7719,-19.8076 2.9046,-20.675 c 1.7145,-13.8976 3.1466,-27.896 4.1955,-42.0357 2.0776,-28.2995 2.8844,-57.0427 3.1668,-86.0684 0.4236,-58.0512 -0.7665,-117.2523 1.4926,-177.3609 2.118,-60.0079 8.6734,-121.347 25.8992,-181.1329 8.6331,-29.8123 20.09,-59.1002 34.9155,-86.7139 14.7851,-27.6338 33.322,-53.2506 54.3197,-76.225 7.9069,-8.6331 21.3204,-9.2382 29.9535,-1.3313 8.2498,7.5438 9.1776,20.1303 2.3398,28.7634 l -0.1009,0.1412 c -34.6129,43.5889 -57.6075,94.6813 -70.194,148.8799 -12.7882,54.2996 -15.4911,111.2818 -15.7533,168.8288 -0.061,57.6882 3.4492,116.2034 4.3165,175.9087 0.5043,29.8526 0.4639,60.028 -0.9884,90.5059 -1.5934,30.6998 -3.9332,60.8348 -10.3677,92.6844 -12.5663,62.751 -39.1513,123.8279 -80.4408,174.7186 -41.1482,50.7293 -97.2227,90.8085 -161.3857,110.5153 -31.9706,9.8433 -65.8372,14.5027 -99.6231,13.1714 -33.8061,-1.2707 -67.2895,-9.1171 -98.3322,-21.8852 -62.3678,-25.4554 -113.7224,-71.848 -150.2314,-122.9404 -37.0334,-49.7006 -67.834,-104.101 -90.9698,-161.3656 -23.2568,-57.2445 -39.4539,-116.9901 -49.3981,-177.4013 -20.1505,-121.004 -14.3817,-243.9848 6.495,-362.5482 10.5291,-59.3624 25.052,-117.8372 42.9031,-175.1422 17.8107,-57.3251 38.9899,-113.5005 63.7192,-168.0219 49.3981,-108.9621 109.8295,-212.9623 183.271,-307.1594 6.1924,-7.9271 17.6494,-9.3592 25.5966,-3.1668 7.6246,5.9503 9.2382,16.782 3.8325,24.6687 l -0.081,0.1009"
         style="fill:#471a1a;fill-opacity:1;fill-rule:nonzero;stroke:none;stroke-width:0.201707" />
      <path
         id="path61"
         d="m 3341.7814,4630.9968 c -28.0776,8.1288 -56.9822,13.3126 -85.9877,16.197 -29.0054,2.7231 -58.0916,3.187 -86.9155,2.4004 -57.6882,-1.7751 -114.2872,-8.734 -170.0189,-13.3329 -27.9162,-2.5213 -55.4089,-4.498 -82.5183,-4.6998 -27.2103,-0.242 -54.2794,1.0288 -80.8845,4.1956 -53.0086,6.5151 -104.6859,20.7153 -147.3268,47.1591 -21.4011,13.0706 -39.817,29.6509 -55.0458,48.5508 -15.2289,18.4764 -26.3833,39.817 -33.6044,62.8923 -14.4826,46.0699 -11.8604,98.0901 6.2932,142.1832 8.9155,22.2887 21.7037,41.9349 37.9613,59.2414 16.6206,17.2863 36.5291,31.9504 58.5959,44.1133 44.2948,24.3259 95.952,39.0908 149.2026,49.156 106.0374,21.6835 216.2703,21.0582 324.3247,5.6478 54.0373,-8.1893 107.8326,-19.3034 160.5992,-34.8348 52.6455,-15.7735 104.9279,-33.3825 155.859,-54.8441 50.8705,-21.502 100.7526,-45.5656 149.5455,-71.9086 48.208,-25.8992 94.0963,-55.187 125.845,-93.8543 16.0156,-19.1218 27.2103,-40.7851 32.8178,-63.9209 4.7602,-22.4298 3.6508,-46.917 -4.5586,-69.9318 -3.5501,-11.6789 -9.6013,-22.5105 -15.8744,-33.1405 -7.0597,-10.1055 -14.5027,-20.1908 -23.7611,-28.4608 -17.6695,-17.5284 -40.3414,-29.2476 -64.284,-34.6936 l -0.8673,-0.2017 c -9.5004,-2.1583 -15.4508,-11.5982 -13.2723,-21.0986 2.0372,-9.0163 10.7106,-14.8053 19.6866,-13.5345 31.5268,4.5182 61.9644,17.8309 86.1087,38.3646 12.5462,9.8232 22.8534,21.9861 32.6362,34.4919 8.9961,13.0505 17.5081,26.6859 23.2568,41.7332 12.6672,29.5501 16.6207,63.4772 11.1342,96.5572 -5.9302,32.1722 -20.211,62.5695 -39.232,87.7223 -38.3243,50.81 -89.4974,84.4346 -139.0366,113.904 -49.4182,29.5299 -101.0149,55.4492 -153.4991,79.4725 -52.6455,23.7409 -106.9248,44.1537 -162.3136,61.2786 -55.4089,17.2056 -112.2903,29.893 -169.7768,39.4539 -57.5066,9.8635 -116.163,13.1311 -174.7387,13.0706 -58.6363,0.121 -117.3733,-6.6361 -175.1826,-17.6897 -14.422,-3.1063 -28.8642,-5.6276 -43.2661,-9.2583 -14.3817,-3.6308 -28.7634,-7.8061 -43.0645,-12.5059 -28.6222,-9.3592 -57.0831,-21.1187 -84.3538,-36.4686 -27.2305,-15.3499 -53.2507,-34.6129 -75.5797,-58.3135 -22.2886,-23.9224 -40.4624,-52.6253 -52.1614,-82.9419 -23.2568,-60.9155 -24.8503,-128.4874 -4.3367,-189.9072 10.2467,-30.6191 26.4035,-59.9069 47.6432,-84.5555 20.8162,-24.5276 46.0699,-45.1421 73.4214,-60.6735 54.9248,-31.2646 115.4772,-45.1017 174.5169,-49.9628 59.1001,-4.4376 118.4423,0.3429 174.7186,8.391 56.4981,8.1086 111.7658,17.8107 166.8923,23.1963 54.9854,5.2444 110.1522,5.8293 163.8265,-4.8611 l 0.1613,-0.04 c 7.322,-1.4523 14.4423,3.2878 15.9147,10.6098 1.3716,6.9387 -2.8441,13.6959 -9.5004,15.6525"
         style="fill:#471a1a;fill-opacity:1;fill-rule:nonzero;stroke:none;stroke-width:0.201707" />
      <path
         id="path62"
         d="m 2086.4579,2037.8515 c -33.7859,42.7014 -77.8589,78.0203 -128.3865,103.153 -25.2336,12.6672 -52.4842,21.865 -80.6425,28.3197 -14.0993,3.1466 -28.5617,5.1233 -43.0644,6.4546 -14.5431,1.1295 -29.3282,0.7866 -44.0528,1.069 -60.1087,-2.9449 -118.2407,-24.3258 -166.4487,-60.3507 -23.9022,-18.2545 -45.6463,-40.0994 -62.751,-65.7767 -17.2863,-25.4554 -29.9535,-54.7432 -35.924,-85.4632 l -0.02,-0.081 72.3523,15.2894 c -31.1032,43.1855 -73.9861,75.5998 -121.1049,96.4765 -47.2398,20.7959 -99.4012,30.256 -151.3206,26.2622 -12.8891,-1.069 -25.6773,-2.9247 -38.284,-5.5671 -12.647,-2.6222 -24.7494,-5.9302 -37.8604,-10.7712 -25.3545,-9.6012 -47.8852,-23.398 -67.7735,-39.6152 -39.1514,-32.7976 -69.6091,-75.1964 -82.8814,-124.2919 -3.0256,-11.2351 3.6105,-22.7727 14.8456,-25.8185 9.2987,-2.5011 18.8394,1.6339 23.5392,9.5206 l 0.5648,0.948 c 20.796,34.8752 50.4671,64.4454 83.6882,85.5036 16.6812,10.2669 34.149,18.5974 51.637,23.5392 8.391,2.118 18.2343,4.3972 27.8558,5.6882 9.6214,1.3917 19.3437,2.1582 29.0256,2.3398 76.8504,1.3312 155.7985,-34.8953 202.8164,-93.1887 14.3615,-17.7905 40.4422,-20.5741 58.2328,-6.2125 6.1722,4.9821 10.5493,11.3762 13.0303,18.3351 l 1.0892,3.1668 0.02,0.04 c 11.235,39.2521 37.0535,74.3693 71.6261,100.208 34.3104,26.0202 76.689,42.9838 119.7131,47.0582 11.0939,0.2018 22.1475,1.291 33.3825,1.0893 11.2351,-0.3833 22.5105,-1.2103 33.7456,-3.0862 22.5912,-2.9852 45.0412,-8.9759 67.35,-16.4391 44.5571,-15.3902 87.3996,-38.6874 129.0118,-66.5028 l 0.3025,-0.2017 c 9.1575,-6.1117 21.5222,-3.6509 27.6339,5.4865 4.9015,7.3623 4.256,16.8223 -0.948,23.4181"
         style="fill:#471a1a;fill-opacity:1;fill-rule:nonzero;stroke:none;stroke-width:0.201707" />
      <path
         id="path63"
         d="m 1827.1434,2135.8206 c -27.291,34.4112 -62.0451,62.4283 -100.8334,82.9419 -75.277,39.7968 -165.9847,51.3748 -247.7365,26.6455 -57.668,-17.4274 -108.942,-52.1816 -148.4564,-97.4446 -24.0031,-27.5532 -43.7099,-58.9388 -57.8495,-92.7046 19.7067,5.2041 39.9581,8.2095 60.391,8.9357 90.2438,3.1063 180.9514,-39.8775 232.2455,-108.2158 23.3577,100.8333 124.4532,172.3586 227.7474,179.4789 11.4973,0.827 23.0954,0.9076 34.4919,0.363"
         style="fill:#471a1a;fill-opacity:1;fill-rule:nonzero;stroke:none;stroke-width:0.201707" />
      <path
         id="path64"
         d="m 1726.31,2218.7625 c -75.277,39.7968 -165.9847,51.3748 -247.7365,26.6455 -57.668,-17.4274 -108.942,-52.1816 -148.4564,-97.4446 62.8721,-27.5532 133.5906,-37.2351 201.3843,-26.6455 72.5338,11.3158 140.973,45.7068 194.8086,97.4446"
         style="fill:#ff9696;fill-opacity:1;fill-rule:nonzero;stroke:none;stroke-width:0.201707" />
      <path
         id="path65"
         d="m 1341.4127,2101.9137 c 5.3251,7.3421 11.0132,14.4825 17.0241,21.3809 36.1257,41.3701 81.4493,71.1824 131.0087,86.1491 70.3554,21.3002 150.2919,12.5865 219.316,-23.8821 11.3359,-6.0109 22.208,-12.7076 32.5354,-20.0295 -81.8931,-19.4244 -152.43,-72.1103 -189.9475,-140.8924 -56.9621,48.4299 -133.4696,77.274 -209.6745,77.274 z m 226.5775,194.0623 c -34.1288,0 -67.9551,-4.8208 -100.2887,-14.6036 -63.0738,-19.0613 -120.4393,-56.6595 -165.8839,-108.6999 -27.0085,-31.0024 -48.5912,-65.6153 -64.2033,-102.8907 -5.5268,-13.2119 -3.0861,-28.4004 6.2933,-39.1917 9.3995,-10.7913 24.1039,-15.3298 37.941,-11.6587 17.0241,4.4981 34.5726,7.1001 52.1816,7.7254 77.2135,2.6222 156.323,-33.9271 200.8195,-93.229 8.7541,-11.6788 23.4586,-17.2258 37.7999,-14.2002 14.3011,3.0055 25.5361,14.0389 28.8441,28.2794 18.3957,79.4322 101.7007,144.1398 193.7396,150.4734 9.8635,0.706 19.9488,0.8068 30.0947,0.3227 14.6641,-0.6253 28.5012,7.2413 35.2382,20.3724 6.737,13.111 5.1637,28.945 -3.9938,40.4826 -29.6308,37.3965 -68.6005,69.4881 -112.6735,92.8256 -55.066,29.0861 -115.9412,43.9923 -175.9087,43.9923"
         style="fill:#471a1a;fill-opacity:1;fill-rule:nonzero;stroke:none;stroke-width:0.201707" />
      <path
         id="path66"
         d="m 1560.6077,1943.1098 c -66.6036,-9.1172 -132.2189,-95.3469 -154.0234,-166.7109 -51.9194,-169.9986 350.0221,-134.7806 388.4473,-22.0869 22.8937,67.1684 -133.5099,202.5743 -234.4239,188.7978"
         style="fill:#471a1a;fill-opacity:1;fill-rule:nonzero;stroke:none;stroke-width:0.201707" />
      <path
         id="path67"
         d="m 2103.3408,1549.9021 c 66.7851,0 120.9031,80.6828 120.9031,180.2051 0,99.5424 -54.118,180.2252 -120.9031,180.2252 -66.7651,0 -120.9032,-80.6828 -120.9032,-180.2252 0,-99.5223 54.1381,-180.2051 120.9032,-180.2051"
         style="fill:#471a1a;fill-opacity:1;fill-rule:nonzero;stroke:none;stroke-width:0.201707" />
      <path
         id="path68"
         d="m 999.96311,1578.6454 c 22.32899,-96.9808 93.20879,-163.4634 158.27949,-148.4766 65.0707,15.007 99.7038,105.7752 77.3546,202.7761 -22.3491,96.9807 -93.2088,163.4634 -158.2795,148.4765 -65.0706,-14.9868 -99.70373,-105.7751 -77.35459,-202.776"
         style="fill:#471a1a;fill-opacity:1;fill-rule:nonzero;stroke:none;stroke-width:0.201707" />
      <path
         id="path69"
         d="m 2069.0707,1639.1171 c 17.5485,0 31.7689,21.1994 31.7689,47.3608 0,26.1413 -14.2204,47.3407 -31.7689,47.3407 -17.5485,0 -31.7688,-21.1994 -31.7688,-47.3407 0,-26.1614 14.2203,-47.3608 31.7688,-47.3608"
         style="fill:#ffffff;fill-opacity:1;fill-rule:nonzero;stroke:none;stroke-width:0.201707" />
      <path
         id="path70"
         d="m 1133.9571,1571.9285 c 5.789,-25.1327 24.1645,-42.3584 41.0272,-38.4857 16.8627,3.893 25.8386,27.412 20.0496,52.5649 -5.7889,25.1327 -24.1443,42.3584 -41.0272,38.4857 -16.8627,-3.893 -25.8386,-27.412 -20.0496,-52.5649"
         style="fill:#ffffff;fill-opacity:1;fill-rule:nonzero;stroke:none;stroke-width:0.201707" />
      <path
         id="path71"
         d="m 3981.354,3320.1635 c 83.2041,-151.8451 199.2462,-248.3215 259.1733,-215.4836 59.9272,32.858 41.0474,182.565 -42.1769,334.41 -83.2243,151.845 -199.2664,248.3013 -259.1935,215.4634 -59.907,-32.8379 -41.0272,-182.565 42.1971,-334.3898"
         style="fill:#ffcc8a;fill-opacity:1;fill-rule:nonzero;stroke:none;stroke-width:0.201707" />
    </g>
  </g>
</svg>
