<?xml version="1.0" encoding="UTF-8" standalone="no"?>
<!-- Created with Inkscape (http://www.inkscape.org/) -->

<svg
   width="111.12239mm"
   height="8.0718327mm"
   viewBox="0 0 111.12239 8.0718327"
   version="1.1"
   id="svg1"
   inkscape:version="1.3 (1:1.3+202307231459+0e150ed6c4)"
   sodipodi:docname="name-vecto.svg"
   xmlns:inkscape="http://www.inkscape.org/namespaces/inkscape"
   xmlns:sodipodi="http://sodipodi.sourceforge.net/DTD/sodipodi-0.dtd"
   xmlns="http://www.w3.org/2000/svg"
   xmlns:svg="http://www.w3.org/2000/svg">
  <sodipodi:namedview
     id="namedview1"
     pagecolor="#ffffff"
     bordercolor="#666666"
     borderopacity="1.0"
     inkscape:showpageshadow="2"
     inkscape:pageopacity="0.0"
     inkscape:pagecheckerboard="0"
     inkscape:deskcolor="#d1d1d1"
     inkscape:document-units="mm"
     inkscape:zoom="1.9779745"
     inkscape:cx="238.88074"
     inkscape:cy="129.67811"
     inkscape:window-width="1920"
     inkscape:window-height="998"
     inkscape:window-x="0"
     inkscape:window-y="0"
     inkscape:window-maximized="1"
     inkscape:current-layer="layer1" />
  <defs
     id="defs1" />
  <g
     inkscape:label="Calque 1"
     inkscape:groupmode="layer"
     id="layer1"
     transform="translate(-56.345157,-56.840729)">
    <g
       id="text1"
       style="font-size:10.5833px;line-height:0.55;letter-spacing:-0.243417px;stroke-width:0.264583"
       aria-label="Drupalcamp Rennes 2024">
      <path
         style="font-family:Hansief;-inkscape-font-specification:Hansief"
         d="m 58.944474,57.000925 q 1.069698,0 1.834507,0.764809 0.764809,0.759641 0.764809,1.834507 v 2.640657 q 0,1.033526 -0.738971,1.772496 -0.73897,0.738971 -1.777663,0.738971 h -2.681999 v -7.75144 z m -1.095537,1.498612 v 4.754216 h 1.178219 q 0.418577,0 0.713132,-0.299722 0.299722,-0.299722 0.299722,-0.713133 v -2.640657 q 0,-0.454751 -0.320392,-0.775144 -0.325561,-0.32556 -0.775144,-0.32556 z m 5.761365,3.126414 v 3.126414 H 62.11169 v -7.75144 h 2.857698 q 0.950843,0 1.63297,0.682127 0.676959,0.676959 0.676959,1.63297 0,0.728635 -0.423745,1.32808 -0.418578,0.594277 -1.105872,0.842323 l 1.343583,3.26594 h -1.622635 l -1.286739,-3.126414 z m 0,-3.126414 v 1.627802 h 1.359086 q 0.330728,0 0.568439,-0.237711 0.242878,-0.242878 0.242878,-0.573606 0,-0.335896 -0.242878,-0.573607 -0.237711,-0.242878 -0.568439,-0.242878 z m 9.549236,3.741361 q 0,1.100705 -0.78548,1.886184 -0.780311,0.78548 -1.886183,0.78548 -1.100705,0 -1.886184,-0.78548 -0.785479,-0.785479 -0.785479,-1.886184 v -5.239973 h 1.498611 v 5.239973 q 0,0.48059 0.346231,0.826821 0.346231,0.346231 0.826821,0.346231 0.485757,0 0.82682,-0.346231 0.346231,-0.346231 0.346231,-0.826821 v -5.239973 h 1.498612 z m 2.428246,-3.741361 v 1.627802 h 1.359086 q 0.330728,0 0.573607,-0.242878 0.237711,-0.237711 0.237711,-0.568439 0,-0.335896 -0.237711,-0.573607 -0.242879,-0.242878 -0.573607,-0.242878 z m 0,3.126414 v 3.126414 h -1.498611 v -7.75144 h 2.857697 q 0.950844,0 1.63297,0.676959 0.676959,0.682127 0.676959,1.638138 0,0.950843 -0.676959,1.63297 -0.676959,0.676959 -1.63297,0.676959 z m 6.738046,-4.625026 2.00504,7.75144 h -1.545121 l -0.30489,-1.178219 H 80.38797 l -0.30489,1.178219 h -1.54512 l 2.005039,-7.75144 z m -1.54512,5.069442 h 1.30741 l -0.656289,-2.52697 z m 5.394463,-5.069442 v 6.252828 h 2.485629 v 1.498612 h -3.98424 v -7.75144 z m 5.105076,1.343583 q -0.480589,0 -0.82682,0.341063 -0.341064,0.346231 -0.341064,0.826821 v 2.728506 q 0,0.48059 0.341064,0.826821 0.346231,0.346231 0.82682,0.346231 0.676959,0 1.080034,-0.69763 l 1.297074,0.749306 q -0.837155,1.446936 -2.377108,1.446936 -1.100705,0 -1.886184,-0.78548 -0.785479,-0.785479 -0.785479,-1.886184 v -2.728506 q 0,-1.100705 0.785479,-1.886184 0.785479,-0.785479 1.886184,-0.785479 1.539953,0 2.377108,1.446935 l -1.297074,0.749306 q -0.403075,-0.692462 -1.080034,-0.692462 z m 5.859552,-1.343583 2.005039,7.75144 h -1.54512 l -0.30489,-1.178219 h -2.092889 l -0.30489,1.178219 h -1.54512 l 2.005039,-7.75144 z m -1.54512,5.069442 h 1.307409 l -0.656288,-2.52697 z m 10.556929,-5.069442 v 7.75144 h -1.50378 v -3.901558 l -1.5968,3.669015 h -0.45992 l -1.60196,-3.669015 v 3.901558 h -1.498616 v -7.75144 h 1.457266 l 1.87069,4.294298 1.87584,-4.294298 z m 2.47475,1.498612 v 1.627802 h 1.35908 q 0.33073,0 0.57361,-0.242878 0.23771,-0.237711 0.23771,-0.568439 0,-0.335896 -0.23771,-0.573607 -0.24288,-0.242878 -0.57361,-0.242878 z m 0,3.126414 v 3.126414 h -1.49861 v -7.75144 h 2.85769 q 0.95085,0 1.63297,0.676959 0.67696,0.682127 0.67696,1.638138 0,0.950843 -0.67696,1.63297 -0.67696,0.676959 -1.63297,0.676959 z m 7.45581,0 v 3.126414 h -1.49861 v -7.75144 h 2.85769 q 0.95085,0 1.63297,0.682127 0.67696,0.676959 0.67696,1.63297 0,0.728635 -0.42374,1.32808 -0.41858,0.594277 -1.10587,0.842323 l 1.34358,3.26594 h -1.62264 l -1.28673,-3.126414 z m 0,-3.126414 v 1.627802 h 1.35908 q 0.33073,0 0.56844,-0.237711 0.24288,-0.242878 0.24288,-0.573606 0,-0.335896 -0.24288,-0.573607 -0.23771,-0.242878 -0.56844,-0.242878 z m 8.25732,-1.498612 v 1.498612 h -2.48562 v 1.627802 h 1.90685 v 1.498612 h -1.90685 v 1.627802 h 2.48562 v 1.498612 h -3.98424 v -7.75144 z m 5.80271,0 v 7.75144 h -1.4521 l -2.16524,-4.314968 v 4.314968 h -1.49861 v -7.75144 h 1.4521 l 2.16007,4.314968 v -4.314968 z m 6.0921,0 v 7.75144 h -1.45211 l -2.16523,-4.314968 v 4.314968 h -1.49861 v -7.75144 h 1.4521 l 2.16007,4.314968 v -4.314968 z m 4.96038,0 v 1.498612 h -2.48563 v 1.627802 h 1.90686 v 1.498612 h -1.90686 v 1.627802 h 2.48563 v 1.498612 h -3.98424 v -7.75144 z m -0.0212,1.932692 q 0,-0.888831 0.68213,-1.503779 0.66145,-0.589109 1.56579,-0.589109 1.36942,0 2.11872,1.297074 l -1.29707,0.749306 q -0.31006,-0.547769 -0.82165,-0.547769 -0.29973,0 -0.5116,0.155029 -0.23771,0.175699 -0.23771,0.459919 0,0.351398 0.34623,0.692462 0.21704,0.206705 0.81649,0.60978 0.21187,0.144693 0.32039,0.222208 0.18603,0.12919 0.32556,0.237711 0.35657,0.273884 0.58911,0.5426 0.59428,0.682127 0.59428,1.560624 0,0.888832 -0.6873,1.498611 -0.66145,0.594278 -1.55545,0.594278 -1.37459,0 -2.12907,-1.302242 l 1.29708,-0.749306 q 0.31522,0.552936 0.83199,0.552936 0.29455,0 0.50642,-0.155029 0.23772,-0.175699 0.23772,-0.465086 0,-0.346231 -0.3514,-0.687295 -0.21188,-0.211872 -0.81132,-0.60978 l -0.1602,-0.113688 -0.16536,-0.10852 q -0.18087,-0.12919 -0.32039,-0.237711 -0.35657,-0.279051 -0.58911,-0.5426 -0.59428,-0.687295 -0.59428,-1.560624 z"
         id="path6" />
      <path
         style="letter-spacing:-0.502708px"
         d="m 150.09171,58.344508 q -0.5736,0 -0.91983,0.604612 l -1.29708,-0.754473 q 0.78548,-1.353918 2.21691,-1.353918 0.97669,0 1.6123,0.620115 0.64079,0.625283 0.64079,1.586461 0,0.82682 -0.46509,1.446936 -0.30489,0.41341 -1.12654,1.049028 -0.52193,0.403075 -0.79065,0.744138 -0.34106,0.428913 -0.47025,0.966346 h 3.02823 v 1.498612 h -4.61986 l 0.0258,-1.167884 q 0,-1.746657 1.91202,-3.224599 l 0.0775,-0.06201 0.0827,-0.06201 0.17053,-0.134358 q 0.19637,-0.160196 0.32556,-0.299722 0.3514,-0.377237 0.3514,-0.754474 0,-0.346231 -0.20671,-0.527098 -0.19637,-0.175699 -0.54777,-0.175699 z m 5.36772,-1.503779 q 1.02836,0 1.75699,0.733803 0.73381,0.728635 0.73381,1.756993 v 3.095408 q 0,1.02319 -0.73381,1.756993 -0.72863,0.728636 -1.75699,0.728636 -1.02836,0 -1.75699,-0.728636 -0.73381,-0.733803 -0.73381,-1.756993 v -3.095408 q 0,-1.028358 0.73381,-1.756993 0.72863,-0.733803 1.75699,-0.733803 z m 0,1.503779 q -0.40824,0 -0.69763,0.289387 -0.29455,0.289387 -0.29455,0.69763 v 3.095408 q 0,0.403075 0.29455,0.69763 0.28939,0.289387 0.69763,0.289387 0.40824,0 0.69763,-0.289387 0.29455,-0.294555 0.29455,-0.69763 v -3.095408 q 0,-0.408243 -0.29455,-0.69763 -0.28939,-0.289387 -0.69763,-0.289387 z"
         id="path7" />
      <path
         style="letter-spacing:-1.32292px"
         d="m 160.32072,58.344508 q -0.57361,0 -0.91984,0.604612 l -1.29707,-0.754473 q 0.78548,-1.353918 2.21691,-1.353918 0.97668,0 1.6123,0.620115 0.64078,0.625283 0.64078,1.586461 0,0.82682 -0.46508,1.446936 -0.30489,0.41341 -1.12655,1.049028 -0.52193,0.403075 -0.79064,0.744138 -0.34107,0.428913 -0.47026,0.966346 h 3.02823 v 1.498612 h -4.61986 l 0.0258,-1.167884 q 0,-1.746657 1.91202,-3.224599 l 0.0775,-0.06201 0.0827,-0.06201 0.17053,-0.134358 q 0.19637,-0.160196 0.32556,-0.299722 0.3514,-0.377237 0.3514,-0.754474 0,-0.346231 -0.2067,-0.527098 -0.19637,-0.175699 -0.54777,-0.175699 z m 5.80324,-1.343583 -2.02054,4.423488 h 1.28157 v -1.829339 h 1.49861 v 1.829339 h 0.58394 v 1.498612 h -0.58394 v 1.82934 h -1.49861 v -1.82934 h -3.22977 v -0.842323 l 2.32027,-5.079777 z"
         id="path8" />
    </g>
  </g>
</svg>
