<?xml version="1.0" standalone="no"?>
<!DOCTYPE svg PUBLIC "-//W3C//DTD SVG 20010904//EN"
 "http://www.w3.org/TR/2001/REC-SVG-20010904/DTD/svg10.dtd">
<svg version="1.0" xmlns="http://www.w3.org/2000/svg"
 width="700.000000pt" height="700.000000pt" viewBox="0 0 700.000000 700.000000"
 preserveAspectRatio="xMidYMid meet">
<metadata>
Created by potrace 1.14, written by Peter Selinger 2001-2017
</metadata>
<g transform="translate(0.000000,700.000000) scale(0.100000,-0.100000)"
fill="#000000" stroke="none">
<path d="M3753 6844 c-176 -38 -278 -152 -276 -309 1 -130 69 -247 196 -336
125 -88 264 -145 577 -234 255 -72 353 -107 476 -165 357 -168 658 -479 837
-861 56 -120 114 -293 131 -394 3 -16 10 -51 14 -77 5 -27 8 -48 6 -48 -3 0
-32 11 -66 25 -60 24 -178 58 -248 71 -75 13 -286 12 -365 -2 -44 -9 -89 -16
-100 -18 -49 -7 -210 -69 -281 -107 -114 -60 -188 -113 -303 -214 -50 -44
-173 -194 -224 -272 -79 -122 -121 -214 -202 -438 -26 -71 -63 -158 -81 -192
-36 -64 -108 -138 -124 -128 -25 15 -72 150 -85 242 -3 21 -7 47 -10 58 -8 40
-23 272 -30 489 -10 284 -22 466 -36 545 -15 87 -13 98 21 109 73 26 179 119
227 199 60 102 79 248 48 368 -69 264 -360 420 -614 329 l-64 -23 -41 46
c-272 307 -604 460 -1015 467 -297 6 -632 -91 -893 -259 -65 -43 -66 -43 -87
-24 -34 32 -113 74 -174 93 -55 17 -182 24 -232 12 -124 -28 -245 -113 -311
-217 -120 -190 -81 -472 84 -609 l41 -33 -38 -76 c-101 -202 -216 -583 -246
-818 -2 -18 -7 -48 -10 -65 -31 -181 -37 -636 -11 -838 2 -14 7 -48 10 -75 9
-66 47 -278 51 -286 2 -3 6 -17 9 -31 2 -14 16 -68 30 -119 90 -332 236 -657
424 -944 446 -683 1131 -1187 1907 -1405 108 -30 128 -35 183 -45 15 -3 41 -8
57 -12 17 -4 32 -7 35 -8 7 -1 101 -17 125 -21 11 -1 42 -6 70 -9 27 -4 63 -8
80 -11 131 -17 399 -22 590 -10 134 8 176 13 286 31 37 6 102 17 124 20 174
29 476 121 675 206 66 27 327 158 390 195 104 61 369 244 416 288 7 6 39 34
72 61 72 60 318 308 382 384 233 280 432 614 550 921 18 47 38 99 45 115 13
31 64 196 70 227 2 10 6 22 9 26 3 5 12 42 21 83 23 104 24 109 29 127 3 9 8
40 12 67 3 28 7 52 9 55 2 3 6 30 10 60 3 30 8 62 10 70 11 42 20 219 20 420
0 257 -8 361 -46 575 -25 145 -22 134 -63 287 -168 635 -513 1198 -1007 1643
-386 348 -886 617 -1386 745 -62 17 -126 32 -141 35 -15 3 -38 7 -52 10 -190
41 -390 53 -497 29z"/>
</g>
</svg>
