<svg xmlns="http://www.w3.org/2000/svg">
  <symbol id="sprite-icons-timer" viewBox="0 0 256 256">
    <g>
      <rect fill="none" height="256" width="256"/><circle cx="128" cy="128" fill="none" r="88" stroke="#000" stroke-miterlimit="10" stroke-width="16"/><line fill="none" stroke="#000" stroke-linecap="round" stroke-linejoin="round" stroke-width="16" x1="128" x2="167.6" y1="128" y2="88.4"/><line fill="none" stroke="#000" stroke-linecap="round" stroke-linejoin="round" stroke-width="16" x1="104" x2="152" y1="8" y2="8"/>
    </g>
  </symbol>
  <symbol id="sprite-icons-tags" viewBox="0 0 32 32">
    <path d="M 14.59375 4 L 14.28125 4.28125 L 3.28125 15.28125 L 2.59375 16 L 3.28125 16.71875 L 12.28125 25.71875 L 13 26.40625 L 13.71875 25.71875 L 24.71875 14.71875 L 25 14.40625 L 25 4 Z M 15.4375 6 L 23 6 L 23 13.5625 L 13 23.5625 L 5.4375 16 Z M 26 7 L 26 9 L 27 9 L 27 17.15625 L 17.5 26.59375 L 16.25 25.34375 L 14.84375 26.75 L 16.78125 28.71875 L 17.5 29.40625 L 18.1875 28.71875 L 28.71875 18.3125 L 29 18 L 29 7 Z M 20 8 C 19.449219 8 19 8.449219 19 9 C 19 9.550781 19.449219 10 20 10 C 20.550781 10 21 9.550781 21 9 C 21 8.449219 20.550781 8 20 8 Z"/>
  </symbol>
  <symbol id="sprite-icons-speaker" viewBox="0 0 32 32">
    <g id="user_people_person_users_man"><path d="M23.74,16.18a1,1,0,1,0-1.41,1.42A9,9,0,0,1,25,24c0,1.22-3.51,3-9,3s-9-1.78-9-3a9,9,0,0,1,2.63-6.37,1,1,0,0,0,0-1.41,1,1,0,0,0-1.41,0A10.92,10.92,0,0,0,5,24c0,3.25,5.67,5,11,5s11-1.75,11-5A10.94,10.94,0,0,0,23.74,16.18Z"/><path d="M16,17a7,7,0,1,0-7-7A7,7,0,0,0,16,17ZM16,5a5,5,0,1,1-5,5A5,5,0,0,1,16,5Z"/></g>
  </symbol>
  <symbol id="sprite-icons-caution" viewBox="0 0 32 32">
    <g><path class="cls-1" d="M16,26a2,2,0,1,1,2-2A2,2,0,0,1,16,26Zm0-2Z"/><path class="cls-1" d="M16,20a1,1,0,0,1-1-1V11a1,1,0,0,1,2,0v8A1,1,0,0,1,16,20Z"/><path class="cls-1" d="M27.78,30H4.22a3.19,3.19,0,0,1-2.77-1.57,3.13,3.13,0,0,1-.06-3.13L13.17,3.67a3.23,3.23,0,0,1,5.66,0L30.61,25.3a3.13,3.13,0,0,1-.06,3.13A3.19,3.19,0,0,1,27.78,30ZM16,4a1.18,1.18,0,0,0-1.07.63L3.15,26.25a1.12,1.12,0,0,0,0,1.16,1.19,1.19,0,0,0,1,.59H27.78a1.19,1.19,0,0,0,1-.59,1.12,1.12,0,0,0,0-1.16L17.07,4.63A1.18,1.18,0,0,0,16,4Z"/></g>
  </symbol>
</svg>
