<svg xmlns="http://www.w3.org/2000/svg"
     viewBox="0 0 48 60" version="1.1" fill-rule="evenodd"
     clip-rule="evenodd" stroke-linejoin="round" stroke-miterlimit="2"><path d="M5,13.565L43,13.565C43.864,13.565 44.565,12.864 44.565,12C44.565,11.136 43.864,10.435 43,10.435L5,10.435C4.136,10.435 3.435,11.136 3.435,12C3.435,12.864 4.136,13.565 5,13.565Z"/>
  <path
    d="M5,25.565L43,25.565C43.864,25.565 44.565,24.864 44.565,24C44.565,23.136 43.864,22.435 43,22.435L5,22.435C4.136,22.435 3.435,23.136 3.435,24C3.435,24.864 4.136,25.565 5,25.565Z"/>
  <path
    d="M5,37.565L43,37.565C43.864,37.565 44.565,36.864 44.565,36C44.565,35.136 43.864,34.435 43,34.435L5,34.435C4.136,34.435 3.435,35.136 3.435,36C3.435,36.864 4.136,37.565 5,37.565Z"/>
</svg>
