<?xml version="1.0" encoding="UTF-8" standalone="no"?>
<!-- Created with Inkscape (http://www.inkscape.org/) -->

<svg
   width="78.764595mm"
   height="5.9548926mm"
   viewBox="0 0 78.764595 5.9548926"
   version="1.1"
   id="svg12833"
   sodipodi:docname="dcrennes_subtitle_text.svg"
   inkscape:version="1.1.2 (0a00cf5339, 2022-02-04)"
   xmlns:inkscape="http://www.inkscape.org/namespaces/inkscape"
   xmlns:sodipodi="http://sodipodi.sourceforge.net/DTD/sodipodi-0.dtd"
   xmlns="http://www.w3.org/2000/svg"
   xmlns:svg="http://www.w3.org/2000/svg">
  <sodipodi:namedview
     id="namedview12835"
     pagecolor="#ffffff"
     bordercolor="#666666"
     borderopacity="1.0"
     inkscape:pageshadow="2"
     inkscape:pageopacity="0.0"
     inkscape:pagecheckerboard="0"
     inkscape:document-units="mm"
     showgrid="false"
     inkscape:zoom="1.0405118"
     inkscape:cx="48.533806"
     inkscape:cy="265.7346"
     inkscape:window-width="1600"
     inkscape:window-height="839"
     inkscape:window-x="0"
     inkscape:window-y="24"
     inkscape:window-maximized="1"
     inkscape:current-layer="layer1" />
  <defs
     id="defs12830" />
  <g
     inkscape:label="Calque 1"
     inkscape:groupmode="layer"
     id="layer1"
     transform="translate(-46.461848,-103.70462)">
    <g
       aria-label="Rennes, 28-30 mars 2024"
       id="text13565"
       style="font-size:7.05556px;line-height:1.25;font-family:'Josefin Sans';-inkscape-font-specification:'Josefin Sans';letter-spacing:0px;word-spacing:0px;stroke-width:0.264583">
      <path
         d="m 47.816515,103.70462 q 0.388056,0 0.712612,0.10584 0.331611,0.0988 0.5715,0.30339 0.246945,0.19755 0.381,0.49389 0.141111,0.28927 0.141111,0.67733 0,0.30339 -0.09172,0.59267 -0.08467,0.28927 -0.289278,0.52916 -0.204611,0.23284 -0.536222,0.381 -0.324556,0.14111 -0.804334,0.14111 h -0.754945 v 1.87678 h -0.684389 v -5.10117 z m 0.07056,2.56823 q 0.303389,0 0.500944,-0.0917 0.204612,-0.0917 0.317501,-0.23284 0.112889,-0.14816 0.162278,-0.3175 0.04939,-0.16933 0.04939,-0.3175 0,-0.15522 -0.05644,-0.3175 -0.04939,-0.16933 -0.169333,-0.31044 -0.112889,-0.14111 -0.30339,-0.23284 -0.183444,-0.0917 -0.451555,-0.0917 h -0.790223 v 1.91206 z m 0.839611,0.38805 1.333501,2.14489 H 49.26996 l -1.354667,-2.12372 z"
         id="path22708" />
      <path
         d="m 52.212129,108.87635 q -0.500945,0 -0.860779,-0.19756 -0.359833,-0.20461 -0.557389,-0.55033 -0.1905,-0.35278 -0.1905,-0.80433 0,-0.43039 0.218722,-0.78317 0.218723,-0.35278 0.585612,-0.56445 0.366889,-0.21166 0.818445,-0.21166 0.578556,0 0.959556,0.33866 0.381,0.33867 0.515056,0.93134 l -2.405946,0.84667 -0.155223,-0.38806 1.975557,-0.71967 -0.141111,0.0917 q -0.08467,-0.23283 -0.282222,-0.40216 -0.197556,-0.17639 -0.515056,-0.17639 -0.268111,0 -0.479778,0.13405 -0.211667,0.127 -0.331612,0.35278 -0.119944,0.22578 -0.119944,0.51506 0,0.30339 0.127,0.53622 0.127,0.22578 0.345722,0.35983 0.225778,0.127 0.508001,0.127 0.1905,0 0.366889,-0.0705 0.183444,-0.0706 0.338667,-0.18345 l 0.303389,0.48684 q -0.218723,0.14816 -0.493889,0.23989 -0.268112,0.0917 -0.529167,0.0917 z"
         id="path22710" />
      <path
         d="m 55.111953,105.88479 0.05645,0.71261 -0.02822,-0.11289 q 0.141111,-0.32455 0.458611,-0.51505 0.3175,-0.19756 0.733778,-0.19756 0.416278,0 0.677334,0.24695 0.268111,0.23989 0.275167,0.62794 v 2.159 h -0.663223 v -1.92616 q -0.0071,-0.23989 -0.141111,-0.38806 -0.127,-0.15522 -0.402167,-0.15522 -0.254,0 -0.458611,0.14111 -0.204611,0.14111 -0.324556,0.38805 -0.112889,0.24695 -0.112889,0.57151 v 1.36877 h -0.656167 v -2.921 z"
         id="path22712" />
      <path
         d="m 59.013674,105.88479 0.05644,0.71261 -0.02822,-0.11289 q 0.141111,-0.32455 0.458611,-0.51505 0.3175,-0.19756 0.733778,-0.19756 0.416278,0 0.677334,0.24695 0.268111,0.23989 0.275167,0.62794 v 2.159 h -0.663223 v -1.92616 q -0.0071,-0.23989 -0.141111,-0.38806 -0.127,-0.15522 -0.402167,-0.15522 -0.254,0 -0.458611,0.14111 -0.204611,0.14111 -0.324556,0.38805 -0.112889,0.24695 -0.112889,0.57151 v 1.36877 h -0.656167 v -2.921 z"
         id="path22714" />
      <path
         d="m 63.684452,108.87635 q -0.500945,0 -0.860779,-0.19756 -0.359833,-0.20461 -0.557389,-0.55033 -0.1905,-0.35278 -0.1905,-0.80433 0,-0.43039 0.218722,-0.78317 0.218723,-0.35278 0.585612,-0.56445 0.366889,-0.21166 0.818445,-0.21166 0.578556,0 0.959556,0.33866 0.381,0.33867 0.515056,0.93134 l -2.405946,0.84667 -0.155223,-0.38806 1.975557,-0.71967 -0.141111,0.0917 q -0.08467,-0.23283 -0.282222,-0.40216 -0.197556,-0.17639 -0.515056,-0.17639 -0.268112,0 -0.479778,0.13405 -0.211667,0.127 -0.331612,0.35278 -0.119944,0.22578 -0.119944,0.51506 0,0.30339 0.127,0.53622 0.127,0.22578 0.345722,0.35983 0.225778,0.127 0.508001,0.127 0.1905,0 0.366889,-0.0705 0.183444,-0.0706 0.338667,-0.18345 l 0.303389,0.48684 q -0.218723,0.14816 -0.493889,0.23989 -0.268112,0.0917 -0.529167,0.0917 z"
         id="path22716" />
      <path
         d="m 66.817111,108.86224 q -0.310444,0 -0.606778,-0.10584 -0.289278,-0.11288 -0.479778,-0.33161 l 0.275167,-0.381 q 0.183444,0.17639 0.373945,0.26811 0.197555,0.0847 0.388055,0.0847 0.141112,0 0.261056,-0.0353 0.119945,-0.0353 0.1905,-0.11289 0.07761,-0.0847 0.07761,-0.22577 0,-0.15523 -0.105833,-0.24695 -0.09878,-0.0917 -0.261056,-0.14816 -0.155222,-0.0564 -0.331611,-0.10584 -0.359834,-0.11994 -0.550334,-0.33161 -0.1905,-0.21167 -0.1905,-0.51506 0,-0.23283 0.112889,-0.43038 0.119945,-0.20462 0.345723,-0.33162 0.232833,-0.127 0.5715,-0.127 0.303389,0 0.543278,0.0776 0.239889,0.0705 0.451556,0.23988 l -0.261056,0.40923 q -0.127,-0.13406 -0.303389,-0.19756 -0.176389,-0.0635 -0.3175,-0.0705 -0.119945,-0.007 -0.232834,0.0353 -0.105833,0.0423 -0.176389,0.11995 -0.07055,0.0776 -0.07055,0.18344 0,0.14817 0.09878,0.23989 0.09878,0.0917 0.254,0.14817 0.162278,0.0494 0.3175,0.10583 0.218722,0.0635 0.388056,0.16933 0.169333,0.10584 0.268111,0.26106 0.105834,0.15522 0.105834,0.38806 0,0.26105 -0.127001,0.48683 -0.119944,0.21872 -0.373944,0.35278 -0.246945,0.127 -0.635001,0.127 z"
         id="path22718" />
      <path
         d="m 69.462942,108.19196 q -0.155222,0.36689 -0.310445,0.72672 -0.148166,0.36689 -0.303389,0.74084 h -0.529167 q 0.141112,-0.37395 0.275167,-0.74084 0.134056,-0.35983 0.275167,-0.72672 z"
         id="path22720" />
      <path
         d="m 72.334548,108.80579 q 0.451556,-0.43744 0.860779,-0.86077 0.409222,-0.42334 0.733778,-0.81845 0.331611,-0.39511 0.522111,-0.762 0.190501,-0.37394 0.190501,-0.71967 0,-0.23283 -0.07761,-0.39511 -0.07761,-0.16933 -0.204611,-0.27517 -0.119944,-0.10583 -0.275167,-0.15522 -0.155222,-0.0564 -0.3175,-0.0564 -0.232833,0 -0.395111,0.0776 -0.162278,0.0705 -0.268112,0.1905 -0.09878,0.11994 -0.148166,0.254 -0.04233,0.13405 -0.04233,0.26811 0,0.23283 0.07056,0.42333 0.07056,0.18345 0.204611,0.32456 l -0.423333,0.37394 q -0.162278,-0.10583 -0.282223,-0.29633 -0.112889,-0.1905 -0.176389,-0.40922 -0.05644,-0.22578 -0.05644,-0.40217 0,-0.381 0.183444,-0.71261 0.1905,-0.33867 0.550334,-0.54328 0.366889,-0.20461 0.889001,-0.20461 0.4445,0 0.776111,0.20461 0.331611,0.20461 0.515056,0.54328 0.183445,0.33161 0.183445,0.73378 0,0.35278 -0.141112,0.69144 -0.141111,0.33867 -0.381,0.67028 -0.232833,0.33161 -0.522111,0.65617 -0.282223,0.3175 -0.564445,0.64205 l -0.296334,-0.0988 h 2.060224 v 0.65616 z"
         id="path22722" />
      <path
         d="m 76.003428,107.34529 q 0,-0.35983 0.134055,-0.62089 0.141111,-0.26105 0.345723,-0.43744 0.211667,-0.18345 0.430389,-0.27517 -0.211667,-0.13405 -0.352778,-0.33161 -0.134056,-0.19756 -0.134056,-0.508 0,-0.31044 0.155223,-0.55033 0.162277,-0.23989 0.437444,-0.37395 0.275167,-0.14111 0.627945,-0.14111 0.345723,0 0.620889,0.14111 0.275167,0.13406 0.437445,0.36689 0.162278,0.23283 0.162278,0.52917 0,0.33161 -0.141111,0.52917 -0.134056,0.19755 -0.345723,0.33866 0.218723,0.0988 0.43039,0.28222 0.211666,0.17639 0.345722,0.43745 0.141111,0.26105 0.141111,0.61383 0,0.40217 -0.225778,0.74789 -0.218722,0.34572 -0.592667,0.55739 -0.366889,0.21167 -0.839611,0.21167 -0.472723,0 -0.839612,-0.21167 -0.366889,-0.21167 -0.585612,-0.55739 -0.211666,-0.34572 -0.211666,-0.74789 z m 0.6985,-0.0353 q 0,0.26811 0.127,0.48683 0.127,0.21872 0.338667,0.35278 0.211667,0.13405 0.472723,0.13405 0.268111,0 0.486833,-0.13405 0.225778,-0.13406 0.352778,-0.35278 0.134056,-0.21872 0.134056,-0.47978 0,-0.26811 -0.127,-0.47978 -0.127,-0.21872 -0.345723,-0.35278 -0.211666,-0.13405 -0.472722,-0.13405 -0.261056,-0.007 -0.479778,0.127 -0.218723,0.127 -0.352778,0.34572 -0.134056,0.21872 -0.134056,0.48684 z m 0.388056,-2.05317 q 0,0.21872 0.169333,0.37394 0.176389,0.14817 0.402167,0.14817 0.225778,0 0.388056,-0.14817 0.169334,-0.15522 0.169334,-0.37394 0,-0.254 -0.169334,-0.41628 -0.162278,-0.16228 -0.388056,-0.16228 -0.232833,0 -0.402167,0.16228 -0.169333,0.16228 -0.169333,0.41628 z"
         id="path22724" />
      <path
         d="m 79.869867,106.99957 h 1.31939 v 0.57856 h -1.31939 z"
         id="path22726" />
      <path
         d="m 84.724084,104.16324 -1.241779,1.99672 -0.409222,-0.1905 q 0.09172,-0.0494 0.204611,-0.0706 0.112889,-0.0212 0.225778,-0.0212 0.261056,-0.0141 0.508,0.0564 0.246945,0.0706 0.444501,0.23283 0.197555,0.16228 0.310444,0.43039 0.119945,0.26811 0.119945,0.66323 0,0.49389 -0.225778,0.85372 -0.225778,0.35983 -0.599723,0.55739 -0.366889,0.1905 -0.818445,0.1905 -0.338666,0 -0.677333,-0.13406 -0.331612,-0.14111 -0.550334,-0.36689 l 0.345722,-0.56444 q 0.134056,0.15522 0.36689,0.28222 0.239889,0.127 0.493889,0.127 0.268111,0 0.479778,-0.11994 0.218722,-0.11995 0.345722,-0.33867 0.134056,-0.22578 0.134056,-0.52211 0,-0.40922 -0.239889,-0.64206 -0.232834,-0.23283 -0.642056,-0.23283 -0.204611,0 -0.345723,0.0353 -0.141111,0.0282 -0.254,0.0705 l -0.02117,-0.0282 1.093611,-1.70039 0.211667,0.0917 h -1.70039 v -0.65616 z"
         id="path22728" />
      <path
         d="m 87.532187,108.82696 q -0.430389,0 -0.790222,-0.16228 -0.359834,-0.16228 -0.62089,-0.46566 -0.254,-0.31045 -0.395111,-0.74789 -0.141111,-0.43745 -0.141111,-0.98073 0,-0.59266 0.134055,-1.03011 0.134056,-0.4445 0.388056,-0.74083 0.261056,-0.29634 0.620889,-0.43745 0.359834,-0.14816 0.804334,-0.14816 0.430389,0 0.783167,0.16227 0.359834,0.16228 0.613834,0.47273 0.261056,0.30339 0.402167,0.74083 0.148167,0.43039 0.148167,0.98072 0,0.55739 -0.148167,0.99484 -0.141111,0.43744 -0.402167,0.74083 -0.254,0.30339 -0.613834,0.46567 -0.352778,0.15522 -0.783167,0.15522 z m -0.0071,-0.65617 q 0.409222,0 0.684389,-0.21166 0.282222,-0.21873 0.423334,-0.60678 0.141111,-0.38806 0.141111,-0.89606 0,-0.508 -0.141111,-0.88194 -0.141112,-0.381 -0.423334,-0.59267 -0.275167,-0.21167 -0.684389,-0.21167 -0.409223,0 -0.68439,0.21873 -0.275166,0.21166 -0.416278,0.59266 -0.134055,0.381 -0.134055,0.889 0,0.50095 0.134055,0.889 0.141112,0.381 0.416278,0.59973 0.275167,0.21166 0.68439,0.21166 z"
         id="path22730" />
      <path
         d="m 93.113132,105.88479 0.05645,0.65617 -0.02822,-0.0564 q 0.162278,-0.33161 0.458612,-0.52211 0.303389,-0.1905 0.691445,-0.1905 0.246944,0 0.437444,0.0776 0.190501,0.0776 0.310445,0.22578 0.127,0.14111 0.162278,0.35278 l -0.03528,0.0212 q 0.169334,-0.3175 0.465667,-0.49389 0.303389,-0.18345 0.635001,-0.18345 0.430389,0 0.677333,0.24695 0.254001,0.23989 0.261056,0.62794 v 2.159 H 96.54919 v -1.92616 q -0.0071,-0.22578 -0.112889,-0.37395 -0.09878,-0.15522 -0.352778,-0.16933 -0.254,0 -0.458611,0.15522 -0.197556,0.15522 -0.310445,0.40217 -0.112889,0.23989 -0.119945,0.52211 v 1.38994 h -0.656167 v -1.92616 q -0.0071,-0.22578 -0.119944,-0.37395 -0.105834,-0.15522 -0.359834,-0.16933 -0.261055,0 -0.458611,0.15522 -0.197556,0.15522 -0.310445,0.40217 -0.105833,0.24694 -0.105833,0.52916 v 1.38289 h -0.656167 v -2.921 z"
         id="path22732" />
      <path
         d="m 99.561905,108.87635 q -0.409223,0 -0.74789,-0.17639 -0.331611,-0.17639 -0.529167,-0.51506 -0.1905,-0.34572 -0.1905,-0.83961 0,-0.48683 0.204611,-0.83961 0.204612,-0.35983 0.543278,-0.55033 0.345723,-0.1905 0.754945,-0.1905 0.409218,0 0.691448,0.1905 0.28222,0.18344 0.43039,0.43744 l -0.0423,0.11289 0.0635,-0.62089 h 0.60678 v 2.921 h -0.65617 v -0.762 l 0.0706,0.16934 q -0.0282,0.0705 -0.127,0.18344 -0.0917,0.10583 -0.254,0.21872 -0.15522,0.11289 -0.35983,0.1905 -0.204615,0.0706 -0.458615,0.0706 z m 0.176389,-0.54328 q 0.246944,0 0.444496,-0.0917 0.19756,-0.0917 0.32456,-0.254 0.13406,-0.16933 0.18344,-0.40217 v -0.5715 q -0.0564,-0.21167 -0.19755,-0.36689 -0.14111,-0.16228 -0.33867,-0.24694 -0.197554,-0.0917 -0.437443,-0.0917 -0.261056,0 -0.479778,0.127 -0.218723,0.127 -0.352778,0.35277 -0.127,0.22578 -0.127,0.52917 0,0.28222 0.134055,0.51506 0.134056,0.23283 0.359834,0.36689 0.225778,0.13405 0.486834,0.13405 z"
         id="path22734" />
      <path
         d="m 103.06851,105.88479 0.0635,0.84667 -0.0353,-0.11289 q 0.11289,-0.26811 0.32456,-0.45156 0.21872,-0.1905 0.45155,-0.28927 0.23989,-0.10584 0.41628,-0.10584 l -0.0353,0.64911 q -0.33161,-0.0212 -0.58561,0.127 -0.24694,0.14817 -0.39511,0.39512 -0.14111,0.24694 -0.14111,0.52916 v 1.3335 h -0.64911 v -2.921 z"
         id="path22736" />
      <path
         d="m 105.95423,108.86224 q -0.31045,0 -0.60678,-0.10584 -0.28928,-0.11288 -0.47978,-0.33161 l 0.27517,-0.381 q 0.18344,0.17639 0.37394,0.26811 0.19756,0.0847 0.38806,0.0847 0.14111,0 0.26105,-0.0353 0.11995,-0.0353 0.1905,-0.11289 0.0776,-0.0847 0.0776,-0.22577 0,-0.15523 -0.10583,-0.24695 -0.0988,-0.0917 -0.26105,-0.14816 -0.15523,-0.0564 -0.33162,-0.10584 -0.35983,-0.11994 -0.55033,-0.33161 -0.1905,-0.21167 -0.1905,-0.51506 0,-0.23283 0.11289,-0.43038 0.11994,-0.20462 0.34572,-0.33162 0.23284,-0.127 0.5715,-0.127 0.30339,0 0.54328,0.0776 0.23989,0.0705 0.45156,0.23988 l -0.26106,0.40923 q -0.127,-0.13406 -0.30339,-0.19756 -0.17639,-0.0635 -0.3175,-0.0705 -0.11994,-0.007 -0.23283,0.0353 -0.10584,0.0423 -0.17639,0.11995 -0.0706,0.0776 -0.0706,0.18344 0,0.14817 0.0988,0.23989 0.0988,0.0917 0.254,0.14817 0.16228,0.0494 0.3175,0.10583 0.21872,0.0635 0.38806,0.16933 0.16933,0.10584 0.26811,0.26106 0.10583,0.15522 0.10583,0.38806 0,0.26105 -0.127,0.48683 -0.11994,0.21872 -0.37394,0.35278 -0.24695,0.127 -0.635,0.127 z"
         id="path22738" />
      <path
         d="m 110.0394,108.80579 q 0.45155,-0.43744 0.86077,-0.86077 0.40923,-0.42334 0.73378,-0.81845 0.33161,-0.39511 0.52211,-0.762 0.1905,-0.37394 0.1905,-0.71967 0,-0.23283 -0.0776,-0.39511 -0.0776,-0.16933 -0.20461,-0.27517 -0.11994,-0.10583 -0.27517,-0.15522 -0.15522,-0.0564 -0.3175,-0.0564 -0.23283,0 -0.39511,0.0776 -0.16227,0.0705 -0.26811,0.1905 -0.0988,0.11994 -0.14816,0.254 -0.0423,0.13405 -0.0423,0.26811 0,0.23283 0.0706,0.42333 0.0706,0.18345 0.20461,0.32456 l -0.42334,0.37394 q -0.16227,-0.10583 -0.28222,-0.29633 -0.11289,-0.1905 -0.17639,-0.40922 -0.0564,-0.22578 -0.0564,-0.40217 0,-0.381 0.18344,-0.71261 0.1905,-0.33867 0.55034,-0.54328 0.36689,-0.20461 0.889,-0.20461 0.4445,0 0.77611,0.20461 0.33161,0.20461 0.51506,0.54328 0.18344,0.33161 0.18344,0.73378 0,0.35278 -0.14111,0.69144 -0.14111,0.33867 -0.381,0.67028 -0.23284,0.33161 -0.52211,0.65617 -0.28223,0.3175 -0.56445,0.64205 l -0.29633,-0.0988 h 2.06022 v 0.65616 z"
         id="path22740" />
      <path
         d="m 115.71205,108.82696 q -0.43039,0 -0.79022,-0.16228 -0.35984,-0.16228 -0.62089,-0.46566 -0.254,-0.31045 -0.39511,-0.74789 -0.14111,-0.43745 -0.14111,-0.98073 0,-0.59266 0.13405,-1.03011 0.13406,-0.4445 0.38806,-0.74083 0.26105,-0.29634 0.62089,-0.43745 0.35983,-0.14816 0.80433,-0.14816 0.43039,0 0.78317,0.16227 0.35983,0.16228 0.61383,0.47273 0.26106,0.30339 0.40217,0.74083 0.14816,0.43039 0.14816,0.98072 0,0.55739 -0.14816,0.99484 -0.14111,0.43744 -0.40217,0.74083 -0.254,0.30339 -0.61383,0.46567 -0.35278,0.15522 -0.78317,0.15522 z m -0.007,-0.65617 q 0.40923,0 0.68439,-0.21166 0.28223,-0.21873 0.42334,-0.60678 0.14111,-0.38806 0.14111,-0.89606 0,-0.508 -0.14111,-0.88194 -0.14111,-0.381 -0.42334,-0.59267 -0.27516,-0.21167 -0.68439,-0.21167 -0.40922,0 -0.68438,0.21873 -0.27517,0.21166 -0.41628,0.59266 -0.13406,0.381 -0.13406,0.889 0,0.50095 0.13406,0.889 0.14111,0.381 0.41628,0.59973 0.27516,0.21166 0.68438,0.21166 z"
         id="path22742" />
      <path
         d="m 118.28027,108.80579 q 0.45155,-0.43744 0.86078,-0.86077 0.40922,-0.42334 0.73377,-0.81845 0.33162,-0.39511 0.52212,-0.762 0.1905,-0.37394 0.1905,-0.71967 0,-0.23283 -0.0776,-0.39511 -0.0776,-0.16933 -0.20461,-0.27517 -0.11994,-0.10583 -0.27516,-0.15522 -0.15523,-0.0564 -0.3175,-0.0564 -0.23284,0 -0.39512,0.0776 -0.16227,0.0705 -0.26811,0.1905 -0.0988,0.11994 -0.14816,0.254 -0.0423,0.13405 -0.0423,0.26811 0,0.23283 0.0706,0.42333 0.0706,0.18345 0.20461,0.32456 l -0.42333,0.37394 q -0.16228,-0.10583 -0.28223,-0.29633 -0.11289,-0.1905 -0.17639,-0.40922 -0.0564,-0.22578 -0.0564,-0.40217 0,-0.381 0.18345,-0.71261 0.1905,-0.33867 0.55033,-0.54328 0.36689,-0.20461 0.889,-0.20461 0.4445,0 0.77611,0.20461 0.33161,0.20461 0.51506,0.54328 0.18344,0.33161 0.18344,0.73378 0,0.35278 -0.14111,0.69144 -0.14111,0.33867 -0.381,0.67028 -0.23283,0.33161 -0.52211,0.65617 -0.28222,0.3175 -0.56445,0.64205 l -0.29633,-0.0988 h 2.06022 v 0.65616 z"
         id="path22744" />
      <path
         d="m 121.79039,107.68396 v -0.007 l 2.82928,-3.57011 h 0.007 v 3.05506 h 0.59973 v 0.52211 h -0.59973 v 1.12183 h -0.68439 v -1.12183 z m 2.19428,-2.032 -1.19239,1.54517 -0.10584,-0.0353 h 1.25589 v -1.63689 z"
         id="path22746" />
    </g>
  </g>
</svg>
