<?xml version="1.0" standalone="no"?>
<!DOCTYPE svg PUBLIC "-//W3C//DTD SVG 20010904//EN"
 "http://www.w3.org/TR/2001/REC-SVG-20010904/DTD/svg10.dtd">
<svg version="1.0" xmlns="http://www.w3.org/2000/svg"
 width="652.000000pt" height="652.000000pt" viewBox="0 0 652.000000 652.000000"
 preserveAspectRatio="xMidYMid meet">
<metadata>
Created by potrace 1.14, written by Peter Selinger 2001-2017
</metadata>
<g transform="translate(0.000000,652.000000) scale(0.100000,-0.100000)"
fill="#000000" stroke="none">
<path d="M1380 6508 c-114 -31 -174 -92 -173 -178 0 -56 14 -111 57 -225 24
-66 47 -133 50 -150 3 -16 10 -52 16 -79 5 -27 12 -74 15 -105 3 -31 8 -74 11
-96 2 -22 6 -105 9 -185 3 -80 7 -182 9 -227 3 -62 1 -83 -10 -87 -32 -12
-169 -279 -181 -352 -3 -18 -8 -32 -12 -32 -11 3 -82 -13 -110 -24 -14 -6 -28
-12 -31 -13 -103 -35 -281 -166 -424 -312 -99 -100 -182 -196 -274 -318 -68
-89 -112 -232 -97 -312 11 -61 74 -113 154 -128 55 -10 68 -14 146 -43 161
-61 306 -130 543 -260 101 -56 103 -58 97 -87 -11 -50 -13 -59 -23 -100 -6
-22 -13 -53 -16 -70 -3 -16 -10 -55 -16 -85 -5 -30 -12 -80 -15 -110 -3 -30
-8 -77 -11 -105 -7 -63 -6 -318 0 -410 5 -71 11 -118 23 -190 4 -22 8 -44 9
-50 6 -55 48 -230 75 -311 11 -33 21 -69 24 -80 6 -32 74 -193 121 -292 339
-700 976 -1220 1729 -1410 66 -17 136 -33 155 -36 19 -3 46 -8 60 -10 47 -9
105 -17 170 -24 82 -9 459 -8 525 0 28 4 75 10 105 13 30 4 58 9 61 11 4 2 27
6 50 9 94 12 387 96 483 140 17 7 60 26 96 41 36 15 72 33 80 40 8 6 26 15 40
19 14 4 36 16 49 26 13 11 27 19 32 19 12 0 134 77 234 148 365 261 675 649
849 1064 68 163 136 383 160 523 3 17 8 41 11 55 11 55 27 173 41 305 10 83
10 608 1 730 -7 93 -9 122 -22 245 -3 25 -7 70 -10 100 -3 30 -7 66 -9 80 -3
14 -8 48 -11 75 -3 28 -8 70 -11 95 -4 25 -8 59 -9 75 -2 17 -4 30 -5 30 -2 0
-11 62 -15 100 -1 17 -4 30 -5 30 0 0 -3 14 -5 30 -6 55 -16 130 -20 155 -2
14 -7 48 -10 75 -2 28 -7 61 -10 75 -3 14 -8 48 -11 75 -3 28 -7 67 -9 88 -3
20 -7 54 -9 75 -3 20 -7 62 -11 92 -7 54 -12 116 -20 235 -6 82 -6 421 0 469
2 22 6 53 9 70 2 17 8 54 11 81 13 90 54 245 78 294 9 17 12 31 8 31 -7 0 -52
-29 -61 -39 -40 -46 -438 -216 -571 -245 -13 -3 -60 -15 -103 -25 -44 -11 -93
-23 -110 -25 -42 -8 -74 -14 -94 -20 -9 -3 -35 -8 -57 -11 -23 -3 -52 -8 -65
-10 -14 -3 -43 -8 -65 -11 -22 -2 -51 -6 -65 -9 -14 -2 -45 -6 -70 -10 -25 -4
-56 -8 -70 -10 -14 -3 -43 -7 -65 -9 -22 -3 -56 -7 -75 -10 -19 -2 -60 -7 -90
-11 -30 -3 -66 -8 -80 -10 -14 -2 -50 -7 -80 -10 -30 -3 -66 -8 -80 -10 -14
-2 -52 -6 -85 -10 -60 -6 -60 -6 -79 27 -33 57 -122 171 -173 221 -26 27 -85
72 -129 100 l-82 52 2 190 c3 222 -9 310 -54 401 -34 70 -106 140 -163 160
-53 18 -97 9 -211 -46 -119 -56 -154 -63 -230 -43 -28 7 -64 16 -81 19 -16 3
-48 9 -70 13 -22 5 -47 9 -55 9 -8 1 -42 5 -75 9 -75 10 -324 10 -390 0 -27
-4 -95 -19 -150 -33 -156 -40 -179 -38 -390 23 -11 3 -26 10 -32 16 -7 5 -13
7 -13 4 0 -3 -15 -1 -32 4 -37 10 -59 14 -138 24 -30 4 -64 9 -75 12 -43 9
-262 11 -295 1z m3918 -1865 c-1 -25 4 -81 18 -203 2 -19 6 -60 9 -90 3 -30 8
-66 10 -80 5 -29 15 -98 20 -143 2 -18 6 -50 9 -72 3 -22 8 -60 10 -85 4 -43
20 -156 30 -210 5 -26 13 -83 21 -160 3 -25 8 -65 11 -90 3 -25 8 -65 10 -90
2 -25 6 -74 9 -110 26 -310 27 -881 0 -980 -2 -8 -6 -35 -9 -60 -4 -25 -15
-79 -27 -120 -11 -41 -21 -79 -22 -85 -10 -36 -51 -151 -57 -158 -3 -4 -12 12
-19 35 -36 119 -112 287 -185 411 -25 43 -46 82 -46 87 0 6 -4 10 -10 10 -5 0
-10 7 -10 15 0 8 -4 15 -9 15 -5 0 -11 8 -14 18 -5 16 -32 62 -50 87 -13 18
-52 78 -102 160 -27 44 -53 82 -57 83 -5 2 -8 7 -8 12 0 5 -26 53 -58 107 -87
148 -137 265 -168 394 -4 13 -12 66 -18 117 -19 143 -27 137 182 137 164 1
173 2 194 23 19 18 22 32 20 84 -1 35 -4 75 -7 90 -4 15 -8 39 -10 55 -2 15
-7 39 -9 53 -3 14 -8 39 -12 55 -3 17 -15 62 -27 100 -11 39 -22 76 -23 83 -1
7 -25 59 -52 115 -44 90 -83 148 -178 265 l-27 32 32 11 c17 6 28 15 25 20 -3
5 5 10 18 10 41 3 83 7 88 9 3 1 8 2 11 2 3 -1 86 11 185 24 98 14 197 28 219
31 22 3 42 7 44 9 2 2 12 4 22 4 13 0 17 -7 17 -27z"/>
</g>
</svg>
