<svg xmlns="http://www.w3.org/2000/svg">
  <symbol id="sprite-icons-facebook" viewBox="0 0 32 32">
    <path
      d="M30.7 0H1.3C.6 0 0 .6 0 1.3v29.3c0 .8.6 1.4 1.3 1.4H17V20h-4v-5h4v-4c0-4.1 2.6-6.2 6.3-6.2 1.8 0 3.3.2 3.7.2v4.3h-2.6c-2 0-2.5 1-2.5 2.4V15h5l-1 5h-4l.1 12h8.6c.7 0 1.3-.6 1.3-1.3V1.3C32 .6 31.4 0 30.7 0z"/>
  </symbol>
  <symbol id="sprite-icons-instagram" viewBox="0 0 32 32">
    <path
      d="M28.2 0H3.8C1.7 0 0 1.7 0 3.8v24.4C0 30.3 1.7 32 3.8 32h24.4c2.1 0 3.8-1.7 3.8-3.8V3.8C32 1.7 30.3 0 28.2 0zM24 4h3c.6 0 1 .4 1 1v3c0 .6-.4 1-1 1h-3c-.6 0-1-.4-1-1V5c0-.6.4-1 1-1zm-8 5.9c3.4 0 6.2 2.7 6.2 6.1 0 3.4-2.8 6.1-6.2 6.1-3.4 0-6.2-2.7-6.2-6.1.1-3.4 2.8-6.1 6.2-6.1zM28 29H4c-.6 0-1-.4-1-1V13h4c-.5.8-.7 2.1-.7 3 0 5.4 4.4 9.7 9.7 9.7 5.4 0 9.7-4.4 9.7-9.7 0-.9-.1-2.3-.8-3h4v15c.1.6-.3 1-.9 1z"/>
  </symbol>
  <symbol id="sprite-icons-twitter" viewBox="0 0 24 24">
    <path d="M14.095479,10.316482L22.286354,1h-1.940718l-7.115352,8.087682L7.551414,1H1l8.589488,12.231093L1,23h1.940717  l7.509372-8.542861L16.448587,23H23L14.095479,10.316482z M11.436522,13.338465l-0.871624-1.218704l-6.924311-9.68815h2.981339  l5.58978,7.82155l0.867949,1.218704l7.26506,10.166271h-2.981339L11.436522,13.338465z"/>
  </symbol>
  <symbol id="sprite-icons-mastodon" viewBox="0 0 448 512">
    <path
      d="M433 179.11c0-97.2-63.71-125.7-63.71-124.7-62.52-28.7-228.56-28.4-290.48 0 0 0-63.72 28.5-63.72 125.7 0 115.7-6.6 259.4 105.63 289.1 40.51 10.7 75.32 13 103.33 11.4 50.81-2.8 79.32-18.1 79.32-18.1l-1.7-36.9s-36.31 11.4-77.12 10.1c-40.41-1.4-83-4.4-89.63-54a102.54 102.54 0 0 1-.9-13.9c85.63 20.9 158.65 9.1 178.75 6.7 56.12-6.7 105-41.3 111.23-72.9 9.8-49.8 9-121.5 9-121.5zm-75.12 125.2h-46.63v-114.2c0-49.7-64-51.6-64 6.9v62.5h-46.33V197c0-58.5-64-56.6-64-6.9v114.2H90.19c0-122.1-5.2-147.9 18.41-175 25.9-28.9 79.82-30.8 103.83 6.1l11.6 19.5 11.6-19.5c24.11-37.1 78.12-34.8 103.83-6.1 23.71 27.3 18.4 53 18.4 175z"/>
  </symbol>
  <symbol id="sprite-icons-linkedin" viewBox="0 0 512 512">
    <path
      d="M450,12H60c-27.614,0-50,22.386-50,50v390c0,27.614,22.386,50,50,50h390c27.614,0,50-22.386,50-50V62  C500,34.386,477.614,12,450,12z M161.946,408.707H96.155V197.052h65.791V408.707z M128.617,171.082  c-20.776,0-34.193-14.715-34.193-32.895c0-18.611,13.851-32.896,35.059-32.896s34.194,14.284,34.626,32.896  C164.109,156.367,150.691,171.082,128.617,171.082z M415.576,408.707h-65.79V291.41c0-27.269-9.522-45.881-33.327-45.881  c-18.18,0-29.001,12.553-33.762,24.672c-1.732,4.328-2.165,10.388-2.165,16.447v122.059h-65.79V264.573  c0-26.402-0.865-48.477-1.731-67.521h57.134l3.029,29.434h1.3c8.656-13.851,29.864-34.194,65.356-34.194  c43.283,0,75.746,29,75.746,91.327V408.707z"/>
  </symbol>
  <symbol id="sprite-icons-youtube" viewBox="0 0 24 24">
    <path d="M23.3,7.3c0-0.2-0.3-1.8-1-2.5c-0.9-1-1.9-1.1-2.4-1.1l-0.1,0c-3.1-0.2-7.7-0.2-7.8-0.2c0,0-4.7,0-7.8,0.2l-0.1,0   c-0.5,0-1.5,0.1-2.4,1.1c-0.7,0.8-1,2.4-1,2.6c0,0.1-0.2,1.9-0.2,3.8v1.7c0,1.9,0.2,3.7,0.2,3.8c0,0.2,0.3,1.8,1,2.5   c0.8,0.9,1.8,1,2.4,1.1c0.1,0,0.2,0,0.3,0c1.8,0.2,7.3,0.2,7.5,0.2c0,0,0,0,0,0c0,0,4.7,0,7.8-0.2l0.1,0c0.5-0.1,1.5-0.2,2.4-1.1   c0.7-0.8,1-2.4,1-2.6c0-0.1,0.2-1.9,0.2-3.8v-1.7C23.5,9.3,23.3,7.4,23.3,7.3z M15.9,12.2l-6,3.2c-0.1,0-0.1,0.1-0.2,0.1   c-0.1,0-0.2,0-0.2-0.1c-0.1-0.1-0.2-0.2-0.2-0.4l0-6.5c0-0.2,0.1-0.3,0.2-0.4S9.8,8,10,8.1l6,3.2c0.2,0.1,0.3,0.2,0.3,0.4   S16.1,12.1,15.9,12.2z"/>
  </symbol>
</svg>
